<svg width="509" height="550" viewBox="0 0 509 550" fill="none" xmlns="http://www.w3.org/2000/svg">
<path fill-rule="evenodd" clip-rule="evenodd" d="M322.182 364.866C321.188 383.514 301.4 393.209 289.398 397.187C291.804 378.894 294.911 359.93 292.978 341.378C292.341 335.267 291.506 329.188 290.61 323.132C290.278 320.893 289.936 318.655 289.581 316.422C289.496 315.878 288.799 313.501 289.021 312.959C289.418 311.99 292.774 312.142 293.63 312.184C295.834 312.292 297.997 313.005 300.014 314.131C304.253 316.498 307.824 320.573 310.767 325.07C317.706 335.676 322.932 350.805 322.182 364.866ZM299.273 238.107C287.786 246.805 273.949 251.473 260.847 253.748C240.887 257.214 220.507 253.224 200.994 247.695C196.203 246.337 191.422 244.874 186.701 243.157C186.488 260.84 190.379 277.657 197.977 292.405C204.259 304.598 212.458 314.789 219.624 326.083C226.295 336.597 231.675 348.457 231.942 362.335C232.054 368.126 231.681 373.425 227.889 377.178C224.079 380.95 218.932 382.348 214.269 383.208C202.593 385.359 190.364 384.197 178.761 381.828C176.509 381.367 174.26 380.844 172.037 380.189C169.512 379.446 168.628 378.57 166.519 380.993C161.969 386.223 159.882 394.065 158.852 401.567C156.921 415.618 157.575 432.009 160.36 445.872C163.041 459.225 175.7 466.626 185.077 469.854C213.362 479.588 244.57 466.145 266.273 442.214C266.746 441.692 267.215 441.163 267.674 440.619C269.216 444.724 270.899 448.756 272.739 452.655C274.019 455.368 275.366 458.093 276.98 460.507C277.562 461.379 278.247 462.556 279.043 463.128C280.526 464.19 282.035 463.409 283.714 463.036C296.101 460.285 308.46 456.668 320.239 450.971C338.146 442.311 354.206 428.044 362.693 405.507C366.981 394.122 369.216 381.649 370.298 369.141C371.54 354.778 371.808 340.096 368.647 326.097C362.856 300.444 348.079 279.647 331.897 263.607C321.884 253.681 310.876 244.711 299.273 238.107Z" fill="#FF5678"/>
<path fill-rule="evenodd" clip-rule="evenodd" d="M501.68 68.2301C499.062 69.5605 496.244 69.9306 493.458 70.191C491.273 70.3947 489.558 71.515 487.5 71.5781C481.768 71.7531 476.011 72.0823 470.307 73.1775C464.578 74.2784 459.3 72.8411 454.777 78.3458C453.166 80.3045 451.148 82.5566 452.116 85.7181C452.559 87.1661 453.185 88.2047 453.553 89.7589C453.971 91.5161 454.489 93.1757 455.091 94.8483C456.248 98.0571 462.039 110.007 457.34 111.468C452.245 113.053 445.335 111.201 440.427 109.388C437.563 108.331 434.745 107.091 431.922 105.87C429.688 104.903 426.753 104.355 424.694 102.84C423.329 101.835 423.046 100.121 422.143 98.4911C420.501 95.5268 418.967 93.0022 416.846 90.5357C412.444 85.4204 406.942 81.9469 401.516 78.8937C401.166 78.6958 400.526 78.2339 400.148 78.1887C399.74 78.1399 399.29 78.6778 399.026 78.6126C398.303 78.4326 398.051 77.8509 397.259 77.2757C396.195 76.5032 391.858 73.9334 391.1 75.9538C391.809 73.2994 392.327 74.0654 394.248 74.4506C395.094 74.6213 395.66 74.1257 396.42 74.1751C397.121 74.2203 397.408 74.7303 397.994 74.868C399.066 75.1197 400.064 74.9304 401.183 74.9196C401.484 74.0711 401.911 74.0776 402.463 74.9383C402.772 75.0659 403.08 75.1936 403.389 75.322C404.504 75.7129 405.695 75.6383 406.836 75.753C408.55 75.9266 413.016 78.599 413.875 75.8943C414.792 73.0061 412.007 72.286 411.543 70.2706C411.09 68.2932 413.212 67.1328 414.063 65.9386C415.033 64.5809 415.626 63.3889 416.764 62.1925C417.431 61.4904 418.305 60.8356 418.799 59.9003C419.254 59.0396 419.234 57.6482 419.824 56.931C420.528 56.0761 420.636 56.6678 421.275 56.2547C422.529 55.4435 421.975 55.4844 422.717 54.3756C423.351 53.4274 423.82 53.4561 424.65 52.7295C425.865 51.6659 426.292 49.5874 427.473 48.4442C428.336 47.6072 429.712 47.6086 430.47 46.7393C430.916 46.2272 430.778 45.3974 431.164 44.914C431.905 43.9852 432.413 44.3625 433.337 44.0562C434.897 43.5398 435.402 42.4374 436.55 41.1608C437.599 39.9953 438.265 40.0003 439.578 39.5169C441.372 38.8571 442.53 37.1286 444.149 36.113C445.673 35.1577 447.247 34.4878 448.789 33.47C449.902 32.7349 450.975 32.2787 451.991 31.5285C452.334 31.2753 452.364 30.348 452.807 30.2225C453.315 30.0776 453.722 31.1584 454.263 31.2151C455.397 31.3342 456.687 29.7261 457.431 28.7952C457.755 28.3907 458.193 27.2969 458.609 27.071C459.48 26.5976 459.999 27.535 460.776 27.1649C461.865 26.6457 461.432 25.1252 462.1 24.2867C462.683 23.5552 463.923 23.6047 464.96 23.8363C469.135 24.7673 462.636 28.5399 461.414 29.303C459.359 30.5882 444.402 39.9379 447.901 44.6006C449.752 47.0671 454.272 45.2124 456.284 44.5626C459.813 43.4229 463.49 41.2289 467.109 40.7254C467.557 40.663 468.891 41.0726 469.255 40.894C470.078 40.4916 469.873 39.6869 470.541 39.2637C471.547 38.6283 473.603 38.6591 474.624 38.8018C475.423 38.9137 476.297 39.5234 477.109 39.4409C478.004 39.3498 478.869 38.6842 479.756 38.4698C481.274 38.104 482.846 38.2833 484.38 38.34C486.585 38.4224 490.994 38.8485 487.79 42.5952C485.196 45.6276 480.71 46.9401 477.439 48.2634C472.6 50.2193 467.846 51.9987 463.069 54.2271C459.814 55.7447 452.87 58.4106 456.745 64.0996C457.128 63.6377 457.51 63.1766 457.892 62.7147C458.344 63.2992 458.811 64.4367 459.535 64.4697C460.137 64.497 459.916 63.6693 460.485 63.4104C462.276 62.5985 464.729 62.6602 466.616 62.5074C471.344 62.1244 476.055 61.3233 480.79 61.0751C485.249 60.8413 489.754 61.1454 494.126 62.341C495.251 62.6487 505.734 66.1695 501.68 68.2301ZM463.016 126.729C463.254 129.268 462.373 131.323 462.128 133.775C461.832 136.741 462.049 139.353 461.391 142.302C460.113 148.033 459.205 153.896 457.833 159.594C455.411 169.654 451.501 178.539 447.48 187.667C445.429 192.321 442.341 196.164 439.518 200.057C436.625 204.046 434.314 207.973 430.856 211.249C423.946 217.796 416.489 223.619 408.308 227.155C399.745 230.858 390.74 231.98 381.746 231.509C377.754 231.3 373.523 231.817 369.595 230.992C365.418 230.113 360.892 229.034 356.786 227.738C349.25 225.359 341.99 221.32 334.63 217.713C326.411 213.684 319.012 208.542 311.517 202.733C309.534 201.196 307.438 200.478 305.579 198.617C304.011 197.05 302.469 195.551 300.82 194.119C298.928 192.477 297.117 190.681 295.184 189.12C294.028 188.187 292.403 187.274 291.797 185.585C290.963 183.262 291.968 180.345 292.488 178.091C293.165 175.158 293.885 172.261 294.699 169.385C296.076 164.517 299.581 157.007 297.654 151.859C293.589 155.08 291.796 161.411 290.058 166.793C287.983 173.222 286.534 179.636 286.221 186.609C285.592 200.636 287.428 215.4 291.408 228.479C291.999 230.422 293.037 232.528 292.274 234.606C291.473 236.786 289.299 238.628 287.628 239.57C282.342 242.553 277.035 243.421 271.515 245.07C270.011 245.519 268.366 246.867 266.955 247.037C266.003 247.152 265.216 246.753 264.126 246.762C263.031 246.772 262.175 247.556 261.194 247.64C260.339 247.714 259.58 247.074 258.764 247.134C256.939 247.27 256.602 251.27 255.698 247.749C255.534 247.894 254.627 249.207 254.514 249.207C254.256 249.208 253.801 248.229 253.554 248.054C253.074 247.714 252.443 247.695 251.906 247.606C250.723 247.41 249.446 247.39 248.281 247.737C246.119 248.381 243.946 248.11 242.097 248.063C241.677 248.052 241.379 248.485 240.856 248.46C240.618 248.447 240.275 247.909 240.023 247.826C238.561 247.344 237.045 247.704 235.557 247.598C232.06 247.352 228.683 247.232 225.269 246.244C218.271 244.218 211.137 243.812 204.112 241.959C200.532 241.016 197.036 240.5 193.512 239.256C192.273 238.819 191.004 238.612 189.906 238.015C188.859 237.445 189.271 236.686 187.644 238.211C186.913 235.921 186.827 236.154 185.063 235.397C184.381 235.104 182.814 234.376 182.306 233.799C182.255 233.742 181.169 230.255 181.076 229.827C180.624 227.745 181.001 225.364 181.189 223.269C181.615 218.544 182.232 213.857 182.268 209.096C182.284 206.995 182.58 206.935 183.091 205.352C183.249 204.861 183.714 204.9 183.752 204.153C183.804 203.157 183.008 202.464 183.094 201.301C183.208 199.737 184.437 198.152 184.868 196.694C185.386 194.938 185.379 193.082 185.689 191.264C186.102 188.847 186.902 186.578 187.305 184.151C187.648 182.095 187.68 180.459 188.536 178.696C189.393 176.935 189.141 175.497 189.823 173.743C190.449 172.135 191.241 171.558 191.67 169.616C192.707 164.918 194.285 160.266 196.519 156.283C198.485 166.27 200.575 176.588 206.048 184.483C208.302 187.733 211.212 191.013 214.611 192.003C218.453 193.123 221.527 190.224 224.029 186.791C229.991 178.609 232.46 169.476 232.821 158.383C232.91 155.626 232.897 152.864 232.868 150.104C232.855 148.876 232.362 145.725 233.021 144.693C233.742 143.561 235.8 144.268 236.872 143.522C238.189 142.603 239.637 140.145 239.049 138.118C242.56 140.151 245.917 142.827 249.822 143.394C251.368 143.619 253.014 143.277 254.397 143.182C254.355 143.185 255.467 143.475 255.534 143.494C255.808 143.09 256.104 142.992 256.424 143.2C256.708 143.238 256.914 143.433 257.044 143.785C262.61 144.496 268.214 140.979 272.977 137.254C275.761 135.077 278.818 131.855 279.599 127.617C279.878 126.105 279.637 124.681 280.86 123.909C281.853 123.282 283.77 124.187 284.818 124.285C288.504 124.631 292.137 124.183 295.736 125.588C297.932 126.445 301.766 132.454 303.298 128.227C303.962 129.025 303.601 130.445 304.309 131.221C304.925 131.897 306.998 132.373 307.85 132.952C309.171 133.848 309.946 135.04 311.102 136.116C312.522 137.44 314.009 137.542 315.384 139.094C320.147 144.472 325.726 148.367 331.043 152.827C337.352 158.118 342.936 164.354 349.706 168.67C356.63 173.082 363.33 176.768 370.896 179.064C374.328 180.106 377.848 180.975 381.371 181.296C383.033 181.447 384.618 181.371 386.221 182.008C387.195 182.396 387.51 182.589 388.466 182.625C389.023 182.646 389.83 182.234 390.517 182.25C391.926 182.283 392.647 182.209 393.919 182.805C395.359 183.479 396.555 183.885 398.195 183.944C400.081 184.011 401.191 183.085 402.904 182.514C404.285 182.054 405.528 182.273 406.763 181.317C412.255 177.069 416.668 170.582 419.548 163.217C422.855 154.764 425.402 144.461 425.92 134.988C426.217 129.566 425.282 124.279 423.662 119.301C423.205 117.897 420.464 111.916 421.308 110.829C422.267 109.595 425.402 112.424 426.286 113.039C429.09 114.988 434.155 115.613 436.121 118.891C436.621 117.662 439.405 119.483 440.298 119.996C441.037 120.42 441.247 121.187 442.176 121.279C443.052 121.365 443.956 120.472 444.761 120.187C444.173 122.286 446.15 122.384 447.506 122.495C448.481 122.575 449.53 122.379 450.4 122.3C452.063 122.149 452.09 121.671 453.609 120.581C453.55 121.379 453.618 122.159 453.812 122.92C454.788 121.112 456.651 122.368 457.97 121.573C457.017 119.723 461.088 119.217 462.036 119.605C464.423 120.586 462.805 124.479 463.016 126.729ZM276.127 253.903C277.702 253.303 279.287 252.754 280.866 252.18C279.67 253.584 278.427 256.118 276.718 256.513C274.657 256.989 273.846 254.773 276.127 253.903ZM198.377 254.909C201.029 255.315 203.916 255.004 206.24 257.006C205.107 258.672 204.372 260.416 202.482 259.461C200.895 258.658 199.588 256.371 198.377 254.909ZM286.956 346.14C285.215 344.143 285.444 343.25 286.262 340.665C286.614 339.554 287.171 336.098 288.491 337.111C288.96 337.47 289.528 341.235 289.612 341.999C289.799 343.704 288.974 348.454 286.956 346.14ZM296.775 334.545C296.16 331.655 296.181 328.508 295.577 325.547C294.939 322.42 294.154 319.283 293.929 316.051C303.127 318.129 308.352 329.804 312.336 339.547C314.453 344.723 316.529 350.448 317.328 356.236C318.107 361.875 316.755 366.157 315.184 371.183C314.384 373.749 313.06 374.639 311.516 376.334C310.147 377.836 309.634 380.371 308.208 381.721C307.154 382.717 305.784 383.235 304.683 384.242C303.594 385.236 302.505 386.223 301.382 387.151C300.097 388.213 296.248 392.082 294.514 391.257C293.216 390.638 293.794 388.607 294.121 387.333C294.81 384.649 295.293 382.063 295.719 379.265C296.854 371.797 297.469 364.376 297.763 356.78C298.05 349.363 298.318 341.786 296.775 334.545ZM289.082 368.228C289.219 368.595 289.794 371.73 288.512 371.086C287.621 370.638 288.951 368.804 289.082 368.228ZM294.501 243.755C295.587 243.181 296.021 244.878 296.976 244.929C298.243 244.995 298.509 243.194 299.839 243.141C303.089 243.01 307.8 247.027 310.443 249.124C309.148 251.216 308.614 253.356 309.258 255.932C309.825 258.202 311.991 260.739 311.912 263.144C311.83 265.555 309.487 267.108 308.756 269.253C308.084 271.224 307.828 275.165 309.902 276.033C313.468 277.528 314.284 268.984 316.987 268.918C318.143 268.89 319.644 271.669 320.475 272.534C322.337 274.471 324.436 275.886 326.6 277.173C328.061 278.041 330.095 279.751 331.179 277.418C332.047 275.549 331.338 272.588 330.494 270.98C329.526 269.135 320.851 260.691 321.398 259.947C321.69 259.551 323.85 260.644 324.157 260.977C324.848 261.725 325.102 262.944 325.796 263.741C326.854 264.959 328.221 265.441 329.529 266.004C332.259 267.177 333.988 271.305 336.634 273.227C338.161 274.335 339.093 276.463 340.385 278.112C342.075 280.27 343.798 282.532 343.544 285.71C343.367 287.912 343.111 293.041 342.138 294.899C341.08 296.916 339.322 296.143 337.715 296.619C335.908 297.155 334.463 298.958 334.822 301.533C335.196 304.211 336.871 304.402 338.62 304.47C343.554 304.66 341.737 308.667 343.458 313.068C344.393 315.457 345.952 316.395 347.025 313.598C347.889 311.348 346.346 307.8 347.283 305.878C348.425 303.536 354.538 304.173 355.813 305.992C356.779 307.372 357.291 309.268 358.255 310.711C359.718 312.902 360.319 315.973 361.196 318.658C362.128 321.511 362.941 324.403 363.654 327.357C364.156 329.433 365.238 332.719 362.646 330.947C360.836 329.709 359.483 326.917 357.19 326.829C354.921 326.741 353.628 329.755 354.291 332.376C354.932 334.912 357.857 336.029 358.196 338.601C358.568 341.414 354.8 344.284 353.656 346.352C351.022 351.115 353.225 356.477 357.543 352.434C359.073 351.001 360.676 348.11 362.403 347.205C365.134 345.772 365.118 351.081 366.426 353.035C367.131 354.085 367.385 353.017 366.968 354.588C366.814 355.167 366.034 355.348 365.946 356.068C365.883 356.596 366.253 356.875 366.266 357.283C366.309 358.668 366.311 358.871 366.067 360.376C365.798 362.044 365.896 364.116 365.815 365.812C365.629 369.686 365.589 373.385 365.271 377.257C365.094 379.412 364.724 383.803 366.714 384.853C366.006 386.272 365.062 390.22 363.671 389.923C363.784 390.857 363.721 392.051 364.43 392.662C364.6 392.092 364.77 391.522 364.939 390.952C365.329 392.254 364.986 392.404 364.963 393.291C364.991 392.193 364.179 394.822 364.618 394.497C364.245 394.897 363.752 395.125 363.191 395.642C362.407 396.363 361.993 397.36 361.384 398.336C360.283 400.101 360.347 401.882 359.382 403.723C358.014 406.333 356.258 408.909 354.817 411.517C353.644 413.64 351.407 414.864 350.467 417.146C349.869 418.598 349.63 420.285 348.61 421.306C347.149 422.768 345.195 424.146 343.608 425.655C342.61 426.604 341.85 427.921 340.855 428.842C340.35 429.309 338.832 429.781 338.829 430.732C336.918 430.048 335.565 427.551 334.062 426.032C333.058 425.016 330.667 423.697 330.811 421.663C330.93 419.998 332.78 417.932 333.207 416.187C333.568 414.708 334.072 411.949 333.072 410.685C330.974 408.035 328.594 413.723 327.468 415.237C325.144 418.36 324.157 415.211 322.246 412.943C319.194 409.321 317.276 413.079 318.35 417.589C318.895 419.873 320.967 421.909 321.1 424.241C321.248 426.804 319.077 428.091 318.218 430.139C317.407 432.069 317.032 435.461 318.557 437.059C320.239 438.822 321.701 436.736 322.801 435.11C323.655 433.846 324.605 431.065 325.993 430.908C327.731 430.71 330.581 434.747 331.904 435.993C329.895 436.737 328.686 438.889 326.987 440.267C324.795 442.045 321.735 442.466 319.282 443.687C316.971 444.837 314.892 445.774 312.691 447.201C310.08 448.894 306.886 449.317 304.121 450.55C301.653 451.651 299.311 453.195 296.789 454.104C293.948 455.129 290.998 455.745 288.132 456.671C285.682 457.462 282.808 458.223 280.283 458.229C277.729 458.234 277.782 456.212 276.965 453.517C275.995 450.316 274.388 447.507 273.362 444.383C272.387 441.413 273.86 440.285 275.273 438.012C276.603 435.87 276.251 435.535 277.967 437.039C280.227 439.019 281.719 437.679 283.476 435.403C285.04 433.38 285.614 431.697 287.864 433.107C290.115 434.517 292.261 436.811 294.679 437.73C296.585 438.455 298.005 437.928 298.324 435.262C298.668 432.383 297.384 430.338 295.766 428.627C294.533 427.327 291.842 425.783 291.391 423.671C290.917 421.447 293.416 418.202 293.683 415.715C294.02 412.575 292.962 410.267 290.633 412.44C288.943 414.016 287.818 417.436 285.472 417.648C286.123 414.153 287.537 411.046 288.749 407.842C289.765 405.161 290.637 402.117 293.365 401.818C294.25 401.721 294.825 401.839 295.669 401.645C296.783 401.388 298.295 401.184 299.486 400.8C302.289 399.894 304.764 397.127 307.344 395.541C307.936 397.577 308.983 403.376 311.392 399.99C313.175 397.486 311.2 393.175 312.842 390.39C316.229 384.641 323.606 388.862 328.055 385.898C329.992 384.607 331.569 380.493 328.837 379.252C327.242 378.527 322.633 381.203 321.673 379.23C320.989 377.823 323.857 372.326 324.204 370.816C325.283 366.114 325.107 361.232 325.107 356.389C327.273 357.522 330.012 360.174 332.346 360.537C334.745 360.91 335.166 357.307 334.538 354.941C333.671 351.681 330.784 349.01 328.805 346.91C327.933 345.984 325.649 344.494 325.171 343.087C324.677 341.634 325.384 340.93 325.938 339.667C326.804 337.693 328.902 332.592 326.619 330.743C324.519 329.042 323.341 333.81 322.003 334.83C319.732 336.561 318.954 332.596 318.051 330.578C316.413 326.915 314.142 323.645 312.104 320.349C310.248 317.349 309.105 315.318 308.833 311.495C308.628 308.599 308.165 306.357 310.835 305.699C315.569 304.533 322.5 307.407 326.344 302.481C328.361 299.898 326.921 297.228 324.374 297.36C321.029 297.535 317.849 297.746 314.482 297.399C312.693 297.215 308.952 297.771 308.048 295.412C306.885 292.374 308.857 287.494 306.716 284.833C303.982 281.433 303.312 289.115 303.221 291.236C303.155 292.782 303.465 295.134 302.713 296.471C302.011 297.718 300.728 297.7 299.691 298.151C297.078 299.286 295.728 303.393 299.195 304.262C300.361 304.554 301.988 304.129 302.957 305.235C303.971 306.392 303.584 308.449 303.679 310.009C301.25 306.408 296.202 308.004 292.914 306.667C291.182 305.963 290.889 305.025 290.16 302.879C289.279 300.283 287.269 297 287.192 294.129C287.127 291.692 288.714 289.858 289.455 287.757C290.09 285.954 290.665 283.02 290.571 280.997C290.345 276.118 283.462 281.099 282.044 282.966C279.471 286.354 276.299 290.736 277.694 295.535C278.938 299.818 279.598 302.245 275.282 301.909C273.702 301.786 270.383 302.186 269.157 301.332C268.247 300.699 268.589 299.564 268.559 297.918C268.534 296.493 268.618 294.332 267.903 293.086C265.385 288.705 264.796 299.607 263.382 300.789C261.174 302.636 256.498 300.7 256.858 306.181C257.174 310.978 262.242 309.019 263.645 313.145C264.32 315.133 264.176 317.447 265.027 319.365C266.239 322.099 267.73 321.953 268.534 319.103C269.098 317.101 268.346 315.043 268.78 313.154C269.406 310.423 272.391 310.676 274.226 310.367C276.458 309.992 278.403 309.273 280.525 308.396C283.144 307.312 283.002 309.091 283.428 311.667C283.923 314.655 284.679 317.536 285.142 320.569C285.574 323.395 286.721 326.439 286.908 329.268C287.05 331.431 286.477 331.233 285.077 332.481C283.546 333.845 281.862 337.391 280.086 337.974C277.414 338.851 274.721 331.04 272.29 335.037C271.246 336.752 271.65 340.406 272.393 342.179C273.373 344.521 275.176 345.117 273.665 347.8C272.529 349.816 271.102 351.377 270.996 354.09C270.896 356.608 272.235 358.99 274.328 358.25C276.019 357.654 277.019 355.438 278.3 354.092C280.511 351.771 282.326 353.922 284.589 355.236C286.37 356.271 289.643 356.946 290.537 359.378C291.671 362.466 290.217 363.66 288.109 362.782C288.93 366.234 287.85 368.239 287.554 371.807C287.313 374.695 286.794 377.337 286.464 380.13C286.024 383.858 285.978 383.453 282.978 383.58C280.429 383.688 277.951 383.6 275.405 383.458C273.163 383.331 271.637 383.591 271.536 380.13C271.492 378.602 272.245 373.423 269.891 374.045C267.818 374.592 268.415 379.324 267.722 381.102C266.719 383.676 265.022 382.89 263.135 383.525C261.214 384.172 259.662 385.985 260.157 388.787C260.686 391.778 262.83 391.569 264.693 392.262C267.563 393.327 266.933 398.725 268.608 401.657C269.292 402.853 270.011 404.062 271.158 403.08C273.263 401.279 271.276 396.879 271.832 394.671C272.417 392.35 274.388 392.825 276.252 392.524C279.002 392.08 281.882 390.383 284.622 390.404C284.097 392.426 282.624 393.602 282.095 395.731C281.811 396.873 282.075 399.005 281.681 399.949C281.257 400.963 279.92 401.266 279.367 402.677C278.644 404.524 278.42 406.503 277.574 408.311C275.572 412.59 273.847 416.963 271.72 421.198C269.522 425.571 267.154 429.733 264.39 433.523C261.709 437.202 260.909 435.42 258.604 432.414C257.666 431.189 255.674 429.773 255.413 427.945C255.156 426.144 256.321 424.673 256.959 423.207C257.805 421.263 259.332 417.917 258.96 415.584C258.262 411.203 255.199 415.237 254.038 416.877C252.011 419.742 250.877 422.754 247.813 420.491C245.851 419.043 243.377 415.076 240.802 416.543C238.458 417.878 239.115 421.736 240.557 423.693C241.365 424.789 242.516 425.416 243.373 426.443C245.217 428.654 244.173 429.254 243.331 431.732C242.642 433.76 242.542 437.746 243.812 439.435C246.312 442.758 248.245 436.055 250.564 435.919C251.664 435.854 256.235 439.691 256.561 441.071C257.133 443.495 252.201 446.388 250.891 447.526C247.843 450.171 244.523 452.867 241.095 454.621C237.049 456.692 240.064 450.168 237.852 448.001C234.976 445.182 234.753 452.905 234.458 454.825C233.674 459.928 229.458 460.061 226.057 461.327C223.892 462.133 221.725 462.989 219.537 463.69C217.681 464.285 215.603 464.27 213.803 465.007C212.225 465.653 211.145 466.964 209.379 466.979C208.806 466.984 208.307 466.736 207.754 466.719C206.637 466.684 205.614 467.5 204.547 467.415C202.773 467.274 203.545 466.559 202.927 464.975C202.348 463.49 200.873 462.944 199.725 462.48C196.435 461.15 193.695 462.315 193.218 456.965C193.071 455.322 193.265 448.576 190.821 449.364C187.966 450.284 190.478 458.302 188.706 460.311C187.844 461.289 186.543 460.801 185.503 461.09C183.797 461.564 183.049 463.212 181.181 463.101C179.606 463.009 178.139 462.115 176.766 461.226C174.719 459.901 172.277 459.023 170.57 457.002C168.231 454.231 167.204 449.916 166.207 446.17C164.74 440.652 164.114 435.153 163.878 429.366C163.796 427.349 163.126 425.926 162.846 424.076C162.549 422.107 163.428 421.713 163.631 419.848C163.827 418.035 163.732 416.098 164.03 414.156C164.459 411.363 164.609 408.505 165.024 405.704C165.712 401.07 166.755 396.469 167.611 391.877C167.877 390.451 168.359 385.878 169.736 385.439C170.751 385.115 173.096 387.049 174.038 387.617C175.899 388.739 177.498 390.29 179.49 391.067C180.517 391.468 181.814 391.429 182.489 392.649C183.555 394.58 182.693 398.361 183.134 400.642C183.675 403.436 185.466 404.624 186.908 401.818C187.677 400.322 187.472 398.539 187.575 396.885C187.723 394.501 187.756 393.925 189.773 394.085C191.816 394.249 193.811 395.236 195.907 395.356C197.796 395.463 199.694 395.397 201.581 395.265C206.165 394.944 210.357 393.99 214.655 391.904C217.566 390.49 220.943 387.399 224.152 387.509C228.681 387.662 227.455 393.025 228.075 397.036C228.453 399.478 231.646 406.972 232.872 400.89C233.478 397.881 231.457 393.494 232.655 390.777C234.069 387.566 239.267 390.23 241.632 389.487C243.546 388.885 246.745 385.414 245.393 382.421C244.753 381.002 243.51 381.271 242.401 381.165C240.299 380.964 238.213 380.597 236.128 380.205C234.943 379.981 233.131 379.851 232.658 378.11C232.255 376.633 234.141 372.8 234.551 371.387C235.904 366.706 236.392 362.9 236.398 357.796C236.4 355.496 236.517 353.069 236.228 350.794C236.122 349.961 235.143 347.239 235.601 346.442C236.217 345.37 237.478 346.73 237.984 347.534C238.989 349.134 238.64 349.006 238.069 350.663C237.227 353.103 235.592 358.217 238.365 360.094C241.266 362.058 242.313 355.423 245.061 356.15C246.342 356.489 247.607 358.644 248.639 359.65C249.848 360.829 251.153 362.079 252.573 362.802C254.903 363.988 257.522 363.099 256.58 359.351C255.838 356.396 253.489 353.923 251.81 351.828C249.134 348.49 249.255 347.088 251.104 343.156C251.877 341.511 254.848 334.525 251.405 333.957C249.583 333.655 247.612 337.434 246.649 338.88C244.997 341.362 244.05 342.427 241.592 340.434C239.189 338.487 238.073 336.859 235.167 336.68C231.824 336.473 230.319 330.048 228.547 326.748C223.731 317.786 216.358 313.353 210.142 306.486C207.112 303.139 205.067 298.76 202.763 294.641C201.666 292.678 200.25 291.048 199.356 288.91C198.793 287.565 197.27 284.324 197.666 282.738C198.16 280.762 200.824 279.543 201.933 278.148C202.863 276.978 203.359 275.518 204.823 275.966C206.125 276.364 207.298 278.618 208.363 279.608C209.407 280.58 210.586 281.483 211.745 282.209C213.841 283.524 216.372 284.227 216.494 280.228C216.601 276.769 214.135 273.065 212.352 270.731C211.055 269.033 209.09 267.556 209.348 264.86C209.474 263.522 210.362 261.142 210.881 260.02C212.668 256.158 218.125 258.514 221.09 258.762C224.662 259.061 228.6 258.293 231.44 261.526C232.366 262.58 234.513 264.651 234.967 266.118C235.496 267.827 234.632 268.594 234.152 270.248C233.531 272.384 233.104 276.602 234.891 278.075C237.874 280.533 239.429 273.242 242.53 274.837C245.471 276.349 247.526 280.697 250.883 281.386C255.275 282.286 252.774 275.323 251.254 273.274C249.283 270.618 245.459 267.871 246.711 263.944C247.069 262.821 247.886 260.48 248.621 259.783C250.059 258.418 252.379 259.168 254.026 259.19C258.184 259.247 262.109 258.809 266.184 257.88C267.412 257.599 267.691 257.377 268.557 258.547C269.756 260.166 270.385 262.276 271.779 263.868C269.765 266.644 266.78 269.921 268.18 274.194C269.385 277.871 272.026 276.068 273.814 274.103C274.653 273.181 275.52 271.228 276.632 270.858C278.076 270.378 279.698 272.055 280.88 272.907C282.655 274.186 286.449 277.976 288.464 275.738C291.129 272.778 287.975 268.324 286.139 266.496C285.029 265.391 283.55 264.602 282.615 263.237C281.371 261.421 282.101 261.154 282.855 259.518C284.233 256.523 283.728 252.666 285.934 250.327C287.157 249.029 288.906 248.214 290.303 247.263C291.677 246.326 293.152 244.468 294.501 243.755ZM316.977 255.402C316.44 254.981 315.903 254.561 315.367 254.141C316.593 253.376 317.403 253.467 316.977 255.402ZM346.573 291.79C346.789 290.393 347.632 287.892 348.793 289.2C349.54 290.04 348.724 293.196 350.501 292.323C350.593 294.333 349.422 294.162 351.149 295.95C348.97 295.628 345.962 295.754 346.573 291.79ZM262.003 461.244C262.551 459.361 262.546 456.442 264.236 458.163C264.324 455.883 263.902 448.654 267.139 448.947C268.458 449.067 268.444 450.555 268.793 451.845C269.4 454.094 270.427 456.143 271.292 458.239C268.081 458.405 264.867 459.345 262.003 461.244ZM263.054 487.228C264.889 489.001 265.81 486.907 267.542 486.143C269.141 485.438 270.801 485.861 272.573 485.36C274.77 484.74 277.357 484.834 279.504 484.809C280.033 484.804 281.139 484.911 281.673 484.989C282.647 485.132 282.56 485.39 283.568 485.737C283.957 485.622 284.351 485.538 284.748 485.487C285.234 485.459 285.617 485.717 285.898 486.258C286.804 486.645 287.134 486.387 288.002 486.658C290.069 487.304 291.611 488.896 292.961 491.007C295.71 495.305 295.791 501.762 295.729 507.081C295.711 508.596 295.62 510.103 295.751 511.614C295.871 513 296.637 515.094 296.324 516.472C295.85 518.557 294.382 518.088 292.672 518.181C291.665 518.236 290.66 519.066 289.859 519.14C289.085 519.212 288.773 518.846 287.989 518.621C285.943 518.036 283.529 518.871 281.511 519.583C279.441 520.314 277.626 521.035 275.526 521.552C274.159 521.888 272.93 522.08 271.552 522.3C270.422 522.481 269.934 523.242 268.948 523.555C267.997 523.856 267.07 523.405 266.111 523.642C264.803 523.965 263.892 525.193 262.7 525.804C261.058 526.646 258.432 525.387 257.705 527.984C257.419 525.479 255.541 526.16 254.142 525.938C251.838 525.573 249.567 524.251 247.351 523.408C245.533 522.717 239.249 516.348 238.046 518.933C238.048 518.672 238.266 517.191 238.076 517.021C237.406 516.417 237.412 516.749 236.69 516.371C235.585 515.794 235.12 515.273 234.331 514.299C232.734 512.332 230.586 511.303 228.904 509.518C224.679 505.034 223.233 495.797 222.203 489.367C220.854 492.423 221.351 488.501 221.584 487.191C222.135 484.099 221.426 482.574 221.266 479.587C221.118 476.84 222.097 476.296 224.037 476.009C226.427 475.655 228.727 475.16 231.068 474.398C233.303 473.669 235.493 472.847 237.51 471.398C239.356 470.072 241.292 469.551 243.18 468.39C245.262 467.11 247.303 465.764 249.403 464.516C250.35 463.955 254.518 459.933 255.241 460.177C256.727 460.681 255.325 464.007 254.872 464.88C253.708 467.122 251.797 468.162 250.074 469.573C248.519 470.844 243.804 476.87 248.591 476.265C251.763 475.865 253.911 471.614 255.94 476.458C256.657 478.169 257.71 479.542 256.887 481.31C255.737 483.776 252.42 484.951 250.681 486.611C249.199 488.026 246.167 494.695 249.223 495.41C250.101 495.615 251.455 495.35 252.108 494.476C252.549 493.887 252.518 492.676 252.963 492.273C253.595 491.701 254.821 492.409 255.542 492.096C256.569 491.649 256.81 490.932 257.188 489.671C258.284 490.311 258.3 491.169 259.552 490.344C259.967 490.07 260.12 489.065 260.601 488.797C261.247 488.437 261.439 489.618 261.793 489.443C262.753 488.973 262.75 488.442 263.054 487.228ZM197.226 467.613C195.387 467.789 193.378 467.978 191.808 466.479C193.716 466.626 195.398 467.177 197.308 466.673C198.068 466.473 199.284 465.556 200.062 465.875C202.828 467.009 197.962 467.542 197.226 467.613ZM192.118 260.711C192.091 259.883 191.542 248.753 194.515 253.125C195.329 254.321 194.452 255.923 194.336 257.246C194.14 259.475 194.751 261.71 195.67 263.587C196.526 265.337 198.126 266.87 197.887 269.153C197.676 271.156 196.096 272.866 195.317 274.528C193.401 270.668 192.272 265.357 192.118 260.711ZM185.583 143.9C178.694 144.827 171.839 146.468 165.196 149C158.674 151.486 152.594 155.372 146.466 159.095C145.203 152.179 143.88 145.281 142.633 138.36C142.032 135.028 141.459 131.689 140.897 128.346C140.497 125.969 139.042 121.538 139.65 119.2C139.972 117.961 140.397 117.956 141.09 117.191C141.512 116.724 142.25 115.582 142.689 115.338C143.757 114.744 146.501 114.223 147.594 114.308C148.59 114.385 149.111 114.891 150.136 114.525C151.009 114.213 151.742 113.354 152.561 112.883C154.645 111.684 157.247 111.283 159.476 110.649C161.621 110.038 163.836 109.903 165.986 109.298C167.869 108.768 168.764 106.995 170.371 107.059C174.551 107.226 179.174 106.6 183.322 105.323C187.976 103.89 193.038 104.166 197.813 104.013C199.715 103.952 201.052 103.405 201.062 106.113C201.073 109.419 200.041 113.129 199.514 116.356C198.346 123.51 197.357 130.464 196.915 137.729C196.694 141.362 195.529 141.108 193.219 142.223C190.649 143.463 188.316 143.533 185.583 143.9ZM149.36 217.3C151.058 217.621 150.863 211.683 150.987 210.476C155.035 220.237 159.593 229.63 163.159 239.712C163.993 242.069 164.749 244.481 165.63 246.81C166.233 248.404 167.582 250.545 167.549 252.4C167.515 254.336 166.292 255.06 165.003 255.778C163.611 256.553 163.067 256.94 162.086 256.044C160.898 254.958 159.906 251.613 159.173 250.001C158.052 247.539 156.98 245.043 155.882 242.565C153.895 238.073 151.549 233.772 149.916 229.056C148.386 224.638 146.071 220.837 144.422 216.497C142.789 212.198 140.554 208.124 138.676 203.917C140.562 202.914 142.912 200.407 145.054 200.546C147.267 200.691 147.213 203.422 147.309 205.698C147.41 208.113 146.778 216.812 149.36 217.3ZM154.796 261.4C153.787 262.932 151.51 263.833 150.114 264.682C148.18 265.858 146.2 266.904 144.276 268.105C137.962 272.045 131.674 275.652 125.242 279.27C121.917 281.14 118.632 283.128 115.388 285.215C113.688 286.309 109.943 290.14 107.988 290.238C105.746 290.349 105.693 284.56 105.199 282.388C104.784 280.572 104.014 279.157 103.496 277.435C103.285 276.731 103.449 276.198 103.127 275.501C102.761 274.707 101.735 274.067 101.207 273.382C98.9668 270.473 97.1096 266.768 95.2171 263.49C93.4836 260.487 90.5269 256.727 89.6952 253.047C88.0603 245.813 97.5593 241.809 101.194 238.902C107.557 233.813 113.951 228.586 120.016 222.932C122.779 220.357 125.485 217.679 128.261 215.127C129.557 213.936 133.149 209.303 134.812 210.953C135.431 211.569 135.443 213.269 135.702 214.161C136.266 216.109 137.124 217.81 137.992 219.557C138.764 221.105 139.86 222.705 140.342 224.431C140.917 226.49 140.89 227.657 141.942 229.503C143.855 232.863 144.758 236.738 146.536 240.162C148.251 243.464 149.899 245.9 151.02 249.589C151.663 251.704 152.678 253.58 153.576 255.524C153.998 256.442 154.44 257.345 154.818 258.296C155.497 259.995 155.736 259.973 154.796 261.4ZM100.522 289.656C99.3079 290.767 97.5212 288.9 96.3439 288.874C95.832 288.863 95.3235 289.373 94.9813 289.36C93.9524 289.32 93.1117 288.437 92.1652 288.025C87.7931 286.123 82.581 286.051 78.8464 282.188C71.4269 274.516 74.9644 259.12 76.3154 249.147C76.5909 247.113 77.086 244.296 75.8012 242.631C74.3926 240.805 72.2744 241.894 70.985 243.372C69.6621 244.886 68.7632 247.007 67.6637 248.776C65.9124 251.593 64.0008 254.255 62.0702 256.87C55.2103 266.16 47.946 276.789 39.4602 283.606C35.9305 286.442 32.7364 290.285 28.8679 292.446C24.2147 295.046 28.9917 285.011 29.8284 283.38C35.3049 272.708 43.2777 264.26 49.9741 254.892C51.2376 253.124 53.0321 250.74 53.0545 248.194C53.0887 244.369 50.4468 244.712 48.3582 245.774C46.4047 246.767 45.4256 249.239 43.854 250.928C41.8971 253.031 39.6108 254.737 37.4327 256.434C32.7353 260.094 27.7483 263.166 22.777 266.161C20.4515 267.562 18.1148 268.933 15.7782 270.304C15.1369 270.681 11.3037 273.79 11.4868 271.124C11.512 270.766 13.9573 266.968 14.2592 266.827C15.7647 266.123 16.5113 268.248 17.851 265.463C18.8032 263.486 18.9354 262.46 20.2796 260.959C20.5081 260.705 20.6655 260.059 20.8508 259.64C20.8279 259.798 21.8495 258.527 21.654 258.748C21.9223 258.445 22.3121 257.89 22.53 257.526C23.5807 255.772 25.6004 255.738 26.5139 253.733C26.8622 252.97 26.6645 251.99 27.0846 251.232C27.6727 250.169 28.967 249.717 29.6576 248.782C30.2496 247.978 30.7374 247.323 31.1049 246.832C31.358 246.493 31.8022 246.256 32.1018 245.868C32.8467 244.904 32.7885 244.05 33.8313 243.24C34.7678 242.512 35.1985 243.193 35.5222 241.391C36.662 242.326 36.5192 240.959 36.9818 239.98C37.5833 238.706 38.3473 238.138 39.1762 237.216C40.9999 235.188 42.7092 232.169 44.2612 229.615C48.1196 223.266 51.241 215.841 52.3903 207.874C52.6653 205.969 52.8171 204.044 52.9263 202.113C52.9845 201.097 52.7252 198.624 53.2175 197.628C53.9809 196.085 55.4304 196.697 56.5338 196.021C56.9085 195.792 57.2781 195.115 57.6299 194.961C58.1216 194.747 58.7237 194.956 59.2339 194.749C59.4322 194.669 59.4781 193.923 59.8063 193.828C60.4493 193.639 61.0884 193.938 61.7241 193.949C63.1153 193.973 64.4892 193.66 65.8233 193.092C67.037 192.577 68.053 191.394 69.2639 190.968C69.1401 191.012 71.26 191.227 71.1458 191.075C71.2472 190.407 71.3485 189.739 71.4499 189.072C72.2547 189.79 74.9992 190.738 75.8505 190.574C77.2188 190.31 76.9303 188.733 78.0903 190.804C78.7472 190.072 79.4036 189.34 80.0601 188.608C80.5574 191.276 83.9829 189.981 85.536 190.129C87.7237 190.338 89.4471 189.812 91.441 190.786C93.8661 191.972 95.9928 193.222 98.6044 193.546C100.43 193.771 101.189 194.868 102.976 195.545C105.379 196.455 105.569 197.457 104.817 200.597C104.208 203.143 103.682 205.106 104.572 207.717C106.151 212.349 110.442 214.257 113.209 217.458C106.728 223.275 100.328 228.998 94.0627 235.197C91.4376 237.793 88.6456 240.394 87.1507 244.3C85.7718 247.906 84.9894 252.239 84.1599 256.098C82.2567 264.947 87.6178 270.902 93.1257 274.795C94.2655 275.599 102.115 288.199 100.522 289.656ZM89.8318 300.352C89.4443 298.65 89.4952 298.196 90.7801 297.585C91.2662 297.354 93.1302 297.052 93.4315 297.905C94.1148 299.842 90.5252 299.817 89.8318 300.352ZM144.449 177.027C144.909 180.803 145.362 184.58 145.774 188.365C146 190.457 146.514 192.306 145.296 193.883C144.604 194.779 142.925 195.114 142.041 195.59C140.766 196.279 139.525 197.068 138.299 197.888C136.113 199.352 133.829 200.234 131.672 201.553C130.734 202.126 130.178 203.256 129.366 204.035C128.255 205.102 126.903 205.62 125.756 206.634C123.707 208.448 121.828 210.595 119.78 212.421C117.46 214.491 116.976 213.826 115.673 210.768C114.503 208.023 113.099 206.771 111.414 204.62C110.759 203.783 108.414 199.014 110.406 198.603C110.916 198.497 112.679 199.478 113.079 199.792C113.686 200.268 114.656 202.976 115.149 203.022C116.038 203.105 117.177 199.868 117.731 199.016C121.361 193.427 125.355 187.899 129.562 183.01C131.743 180.476 134.034 178.168 136.506 176.122C138.264 174.668 139.798 172.63 141.531 171.251C141.898 170.845 142.313 170.554 142.779 170.381C143.684 169.855 144.023 170.308 143.798 171.741C144.317 173.141 144.261 175.48 144.449 177.027ZM65.033 172.078C65.9157 170.929 67.0303 170.01 67.7998 168.728C68.2339 168.005 68.5201 166.712 69.0169 166.244C69.8817 165.429 71.1189 165.805 72.1248 164.713C73.0966 163.657 73.9496 162.393 74.8983 161.297C76.955 158.924 79.0777 156.742 81.0957 154.326C82.2422 152.953 83.4452 151.172 84.464 150.265C84.734 150.025 85.0364 149.667 85.3237 149.482C85.9376 149.087 86.2434 149.489 87.1395 149.12C87.7321 148.877 88.155 147.918 88.6305 147.464C89.7602 146.385 91.2326 145.957 92.3203 144.919C93.408 143.88 93.9311 142.267 95.4282 141.401C97.239 140.354 98.596 141.181 99.905 139.178C100.439 138.362 100.585 137.333 101.423 136.818C102.433 136.197 103.319 136.856 104.284 136.15C104.933 135.674 105.378 134.676 106.049 134.155C107.25 133.225 108.58 133.126 109.703 131.975C110.651 131.005 110.125 131.104 111.248 130.694C111.741 130.514 112.289 130.437 112.816 130.207C114.504 129.47 117.261 128.568 118.261 126.521C118.768 127.467 118.942 127.66 119.766 127.366C120.198 126.916 120.594 126.421 120.956 125.881C121.221 126.309 121.505 126.335 121.808 125.958C123.59 125.175 125.224 123.829 126.979 123.082C127.228 123.254 127.476 123.426 127.724 123.597C128.07 123.622 128.21 123.406 128.145 122.948C128.836 122.787 129.631 122.399 130.267 122.045C131.487 121.365 132.834 119.749 134.271 120.328C136.671 121.293 136.786 127.553 137.2 130.034C138.22 136.148 139.247 142.259 140.272 148.372C140.689 150.86 141.055 153.366 141.604 155.811C141.963 157.409 142.856 159.765 142.533 161.464C142.138 163.547 140.549 164.226 139.22 165.189C137.389 166.517 135.618 167.989 133.885 169.518C126.526 176.009 121.04 184.935 115.823 194.093C114.856 192.297 112.267 189.775 110.654 188.965C109.523 188.398 108.506 188.855 107.381 188.164C106.578 187.67 105.912 186.706 105.153 186.084C100.52 182.29 94.9286 179.153 89.5585 177.648C78.5406 174.557 67.7539 179.343 57.0703 181.613C59.2384 177.802 62.4796 175.399 65.033 172.078ZM138.785 68.6511C140.671 60.7925 143.846 53.1843 148.365 47.2887C150.643 44.3165 153.321 41.7188 156.323 40.0663C158.934 38.6297 162.039 37.2519 161.999 41.8715C161.911 51.9004 160.099 61.8153 159.878 71.86C159.663 81.7031 160.951 89.604 165.609 97.5357C162.658 98.4122 159.708 99.3015 156.767 100.234C154.534 100.942 152.219 101.736 150.106 102.223C148.018 102.703 146.097 103.015 144.032 103.918C142.64 104.526 140.459 106.386 138.953 105.982C136.45 105.312 137.042 93.827 136.914 91.0671C136.552 83.2745 136.987 76.1511 138.785 68.6511ZM184.542 83.7823C187.962 78.4734 191.516 72.2795 197.27 71.2934C202.834 70.3402 204.885 78.8736 204.531 84.6272C204.411 86.5744 204.185 91.6301 203.079 93.2073C201.855 94.9523 199.684 93.6369 198.129 93.368C191.419 92.206 184.539 94.1454 177.81 94.1454C180.053 90.6898 182.309 87.2479 184.542 83.7823ZM212.076 104.955C214.41 105.383 216.274 105.838 215.147 109.236C212.891 116.041 211.158 122.536 213.135 129.954C214.645 135.619 219.426 142.497 224.204 143.632C225.878 144.03 228.396 143.318 229.425 145.493C230.342 147.43 229.349 153.239 229.241 155.39C228.844 163.402 227.239 171.353 223.184 177.649C219.575 183.251 215.172 187.636 209.923 182.348C205.499 177.891 202.887 169.918 201.578 163.104C200.879 159.466 200.794 155.837 200.661 152.12C200.542 148.832 200.052 146.747 202.959 146.066C203.739 145.884 205.685 145.94 205.688 144.419C205.692 142.375 203.581 143.142 202.774 143.038C199.66 142.641 201.119 138.01 201.409 135.015C201.903 129.915 202.704 124.873 203.439 119.824C204.064 115.524 204.097 109.888 205.456 105.868C206.249 103.52 210.519 104.67 212.076 104.955ZM217.809 120.057C218.163 117.285 218.351 113.821 220.502 112.289C222.866 110.606 224.049 113.348 225.215 115.59C228.309 121.535 231.732 127.098 232.239 134.479C232.299 135.359 232.594 137.126 231.931 137.735C231.635 138.008 230.928 137.291 230.47 137.333C228.02 137.558 226.247 138.398 223.845 136.629C219.144 133.166 216.954 126.746 217.809 120.057ZM236.293 136.659C235.787 130.206 233.456 124.482 230.852 119.034C229.569 116.347 227.076 113.41 226.19 110.572C225.715 109.051 226.556 107.169 228.282 107.821C229.141 108.146 230.797 111.061 231.372 112.07C232.848 114.663 234.071 117.555 235.239 120.386C236.487 123.412 240.035 134.516 236.293 136.659ZM220.817 72.3928C221.09 66.3209 221.118 59.348 224.193 54.3089C226.576 50.4014 230.94 48.7002 234.48 47.1897C239.249 45.1543 244.978 44.8401 249.965 45.4978C254.355 46.0773 257.669 49.8994 260.377 54.1023C263.132 58.3762 265.267 63.8794 267.162 68.8526C267.635 70.097 271.657 78.0804 268.937 77.8946C267.858 77.8208 266.92 75.1269 266.094 74.3315C265.447 73.7082 264.68 73.7857 264.1 73.2872C263.477 72.7529 263.612 72.2587 263.13 71.5989C259.807 67.0618 256.751 69.6746 253.167 72.0644C253 70.4815 253.293 67.5409 252.258 66.384C250.904 64.8699 249.489 67.2683 248.518 68.4446C247.633 69.5161 246.543 71.4684 245.429 72.0479C243.983 72.8002 244.475 72.0005 243.219 71.3687C240.689 70.0963 238.744 73.8617 237.465 76.0514C236.988 76.8683 236.208 78.9303 235.354 79.1512C234.528 79.3642 234.42 78.6119 233.708 78.3336C231.694 77.5482 231.136 79.385 230.495 81.6658C229.773 84.2306 229.158 86.7014 228.09 89.0969C226.199 93.3357 225.387 94.7299 226.882 99.4105C224.698 99.8251 224.24 100.158 223.157 97.6799C222.042 95.1259 221.752 93.0072 221.822 90.0716C221.969 83.9322 220.536 78.6291 220.817 72.3928ZM271.511 101.442C273.797 106.723 275.25 114.071 275.227 120.087C275.214 123.071 275.077 126.742 273.988 129.449C272.942 132.047 270.754 133.348 268.738 134.455C263.879 137.123 258.406 137.093 253.297 135.903C250.646 135.284 248.067 135.684 245.798 133.646C244.091 132.112 242.031 130.623 241.531 127.81C241.322 126.633 241.645 125.646 241.578 124.492C241.66 123.942 241.63 123.407 241.485 122.883C241.187 122.664 240.886 122.45 240.583 122.242C240.345 121.365 240.802 120.387 240.685 119.471C240.544 118.365 239.826 117.465 239.49 116.462C238.566 113.699 239.226 112.153 240.956 110.276C241.37 109.859 241.786 109.447 242.205 109.038C242.582 108.277 242.997 108.274 243.452 109.028C244.276 109.042 244.252 109.367 245.118 109.044C247.016 108.337 248.609 105.754 250.468 104.847C251.191 104.494 252.268 104.794 252.855 104.143C253.38 103.562 253.042 102.343 253.503 101.772C254.974 99.9477 257.288 101.677 258.648 99.0254C259.758 96.8622 259.523 93.7925 259.637 91.3361C263.046 92.1695 264.522 96.3466 267.322 98.448C267.876 95.7025 267.957 95.7843 270.095 95.0305C269.126 97.322 270.693 99.5525 271.511 101.442ZM274.12 72.2946C274.748 73.3288 275.227 75.8972 274.12 76.1453V72.2946ZM277.03 81.6363C282.234 81.65 285.56 90.0637 287.08 95.2758C288.732 100.944 290.472 108.503 287.39 114.024C286.207 116.14 284.757 116.335 282.855 116.06C280.563 115.729 279.388 115.306 280.285 112.173C281.966 106.304 280.702 98.8432 277.724 93.9303C281.82 92.9183 279.223 88.1136 277.167 86.3155C274.766 84.2162 272.826 81.6249 277.03 81.6363ZM158.212 385.806C156.988 389.959 155.744 394.1 154.716 398.379C153.742 402.433 154.307 407.003 153.096 410.901C152.351 410.43 152.138 409.593 151.49 409.085C151.091 408.77 150.396 408.646 150.053 408.299C149.464 407.705 148.036 405.493 147.649 404.635C146.311 401.666 147.203 396.84 147.918 393.788C148.803 390.009 150.315 386.381 152.344 383.404C153.769 381.317 154.554 381.981 156.458 383.009C157.583 383.616 158.743 384.005 158.212 385.806ZM148.937 418.572C147.959 421.102 146.152 423.188 145.078 425.739C143.951 428.416 143.098 431.433 141.661 433.882C140.198 436.378 138.884 435.96 136.87 437.037C136.147 437.423 135.843 438.139 135.261 438.698C134.17 439.744 132.973 440.386 131.826 441.317C131.011 438.757 128.519 425.91 125.348 426.185C122.592 426.424 124.002 433.15 124.358 435.135C124.658 436.812 125.001 438.514 125.458 440.132C125.92 441.767 127.358 444.215 126.826 446.006C126.15 448.284 124.467 448.134 123.625 446.473C122.92 445.083 122.563 443.196 122.043 441.684C121.587 440.355 119.5 433.081 117.696 434.209C115.959 435.295 118.661 442.347 119.114 443.733C120.206 447.077 122.3 450.292 119.532 452.972C115.33 457.041 110.156 460.104 105.448 463.038C102.7 464.75 100.229 467.001 97.3448 468.391C94.6659 469.682 91.5704 469.902 88.9805 471.386C88.3432 471.752 88.7705 472.206 87.8396 472.419C87.0589 472.596 85.6951 472.119 84.8577 472.129C83.471 472.146 82.0814 472.281 80.6974 472.058C79.9178 471.932 78.1429 470.84 78.4235 472.644C77.3207 472.252 76.8939 470.829 76.0891 469.939C75.3722 469.146 74.4564 468.716 73.6561 468.094C72.0016 466.806 70.7638 465.338 70.2676 462.885C69.102 457.123 71.5658 451.126 74.6071 447.109C76.3523 444.804 78.4 442.888 80.0007 440.406C80.5625 439.536 80.9618 438.524 81.6748 437.816C82.5474 436.949 83.7449 436.842 84.59 435.964C85.219 435.311 85.4072 434.271 86.0664 433.671C87.0415 432.786 88.1824 433.153 89.1032 431.991C89.6285 431.326 91.432 428.199 91.3054 427.333C91.7994 427.544 92.294 427.756 92.7874 427.968C93.0876 426.04 95.6864 423.664 96.9684 422.741C97.617 422.274 98.88 422.297 99.3622 421.794C100.004 421.125 99.9514 419.724 100.461 418.885C101.921 416.48 104.977 415.4 106.911 413.726C109.371 411.594 111.761 409.18 113.984 406.658C118.476 401.559 122.437 395.635 125.672 389.162C126.975 386.555 128.185 383.897 129.113 381.039C129.684 379.281 130.254 376.153 131.665 375.134C133.122 374.08 136.469 375.507 138.101 375.657C140.498 375.878 144.234 375.741 146.383 377.247C148.68 378.858 146.813 380.19 145.63 382.11C143.9 384.92 142.863 388.361 141.999 391.732C141.333 394.325 141.209 396.835 140.774 399.449C140.314 402.213 140.318 405.945 141.383 408.484C142.438 410.998 150.037 415.728 148.937 418.572ZM58.3333 469.528C53.1727 460.543 57.445 447.39 62.4931 440.13C68.584 431.369 77.2529 426.441 84.3733 419.317C92.6071 411.079 101.064 403.426 108.359 393.764C112.058 388.867 115.278 383.588 118.197 377.897C120.676 373.064 122.475 366.627 127.482 365.929C124.528 370.638 124.356 377.422 122.072 382.665C119.654 388.217 116.089 392.835 112.459 397.102C104.793 406.113 96.5131 414.368 88.2328 422.422C84.0064 426.532 79.8971 430.829 75.6853 434.959C71.9131 438.659 67.9505 441.824 65.7768 447.462C62.0265 457.188 61.8025 471.598 70.1079 477.59C65.8284 476.499 61.015 474.196 58.3333 469.528ZM508.275 64.3413C506.748 60.4346 503.886 59.0432 501.013 57.5148C498.201 56.0194 495.631 54.1769 492.512 53.6985C491.125 53.4855 487.213 54.0141 487.031 51.4436C486.878 49.3019 490.965 47.1524 491.907 45.5208C493.304 43.1023 494.252 39.1755 493.711 36.1209C493.197 33.224 490.994 32.3089 488.937 31.7838C482.539 30.1522 475.736 31.3521 469.321 32.0227C470.107 30.6184 471.213 29.4665 471.843 27.7846L472.86 30.4885C473.439 28.9422 474.067 27.4246 474.787 25.9765C475.275 26.6765 475.762 27.3772 476.249 28.0773C475.439 24.4417 478.164 24.4603 477.877 21.3956C477.765 20.2036 477.134 19.6815 476.979 18.7233C476.675 16.8183 477.825 15.627 476.516 13.8605C475.059 11.8932 472.676 12.6735 470.98 12.8571C470.768 12.8808 470.459 13.4194 470.184 13.4632C469.803 13.5249 469.583 12.8535 469.111 12.8894C467.847 12.9848 466.733 14.2406 465.476 14.6222C459.652 16.3909 453.826 19.5452 448.236 22.4901C442.546 25.4881 436.959 28.9788 431.997 33.6838C426.687 38.7194 422.852 45.193 418.611 51.5712C416.618 54.5685 414.555 57.4467 413.038 60.9001C412.254 62.6846 411.545 68.2896 410.134 69.1044C408.601 69.9894 404.747 67.4871 403.179 67.0252C399.489 65.9393 395.816 65.486 392.033 65.7041C389.025 65.8762 385.85 65.7736 382.866 66.2441C381.134 66.5174 376.817 68.9753 376.54 71.7237C376.418 72.9451 377.511 73.9607 377.757 75.1054C378.128 76.8367 377.515 78.6707 377.942 80.4056C378.814 83.943 382.859 85.2447 385.243 86.3586C391.898 89.4699 398.645 91.8819 405.369 94.6668C408.291 95.8775 410.789 97.8047 413.435 99.7397C415.63 101.343 417.633 102.948 415.416 105.959C413.315 108.813 413.577 109.964 414.203 113.894C414.863 118.042 415.091 122.235 415.952 126.343C416.807 130.433 418.407 134.341 418.096 138.668C417.784 142.982 416.388 147.413 415.083 151.366C413.765 155.359 412.309 159.306 410.876 163.235C409.551 166.87 408.117 170.555 405.051 172.107C399.197 175.068 391.719 174.598 385.618 173.523C378.694 172.302 371.541 170.232 364.992 167.073C358.696 164.036 351.771 159.377 346.563 153.871C343.782 150.931 340.769 148.752 337.817 146.121C334.825 143.454 332.553 139.858 329.932 136.665C324.795 130.407 318.471 126.095 311.962 122.655C304.644 118.788 297.089 119.189 289.335 118.771C290.555 115.704 292.126 112.773 292.702 109.359C293.303 105.803 292.868 101.939 292.488 98.3871C291.749 91.4723 290.35 85.3867 286.937 79.8025C285.376 77.2484 283.554 75.2574 280.954 74.8866C279.379 74.6614 276.468 76.2085 275.331 74.5022C274.83 73.7498 274.947 72.1676 274.632 71.241C274.353 70.4183 273.792 69.5907 273.488 68.697C272.186 64.8771 270.562 61.5011 268.94 57.877C268.295 56.4361 267.796 54.3089 266.916 53.096C266.437 52.4362 265.822 52.1364 265.554 51.6537C265.053 50.7507 264.822 49.0997 264.404 48.0805C263.69 46.3362 262.78 44.7153 261.73 43.2759C260.052 40.975 257.893 38.9446 255.592 37.7985C254.315 37.1616 253.378 37.0109 252.044 37.1042C251.653 37.1314 251.218 37.4198 250.827 37.3818C249.891 37.2907 250.038 36.8618 249.288 36.6624C244.27 35.3262 237.542 37.201 232.836 39.5026C227.878 41.9268 223.851 45.1234 220.839 50.8676C213.438 64.9754 215.163 83.1913 218.302 98.7299C216.403 98.0923 214.513 97.3378 212.595 96.7977C211.421 96.4663 209.82 96.5287 208.771 95.7362C206.438 93.9733 208.335 89.4491 208.349 86.5257C208.386 79.0981 205.645 67.4828 199.667 64.3456C193.438 61.0765 185.861 70.2527 182.01 75.4561C179.54 78.794 177.294 82.3916 174.93 85.85C173.279 88.2671 171.098 92.1207 168.202 91.4888C161.887 90.1118 163.813 74.7468 164.093 69.5534C164.537 61.3434 165.482 53.0021 165.487 44.7713C165.49 39.7679 164.813 33.0182 160.009 32.4315C153.396 31.6246 147.132 39.3161 143.276 45.2339C133.107 60.8384 130.861 81.4642 133.581 101.046C133.98 103.917 135.253 107.458 132.824 109.24C129.633 111.582 125.552 113 122.123 114.719C114.454 118.562 107.352 123.688 100.131 128.699C92.9829 133.66 85.9482 138.584 79.4989 144.976C73.0697 151.348 66.7054 158.1 60.8486 165.324C57.9295 168.924 55.1128 172.681 52.4552 176.601C49.9545 180.289 47.9286 184.478 45.2106 187.925C43.3606 190.272 39.957 193.419 39.5504 196.999C39.2216 199.889 43.033 201.892 44.753 203.227C45.9319 204.143 46.7491 204.115 46.8342 205.748C46.9395 207.784 45.2615 211.047 44.6639 212.988C43.1416 217.94 41.1516 222.042 38.536 226.163C32.742 235.292 25.7404 243.032 19.095 251.141C12.9201 258.676 6.86948 266.092 2.34345 275.441C1.23448 277.732 -1.52561 282.436 1.09726 284.58C1.77608 285.135 3.85903 285.574 4.55018 284.978C5.40654 284.24 4.97248 283.127 5.98455 282.386C5.73083 284.876 14.5706 280.012 15.2584 279.56C17.1162 278.343 18.7965 276.916 20.6957 275.825C21.8097 275.185 21.9447 274.293 22.8072 273.579C23.2682 273.197 23.2738 273.709 23.891 273.472C24.4466 273.257 25.7505 273.176 26.1649 272.491C26.1761 272.471 26.6287 270.815 26.2439 271.158C27.75 269.817 28.6399 271.845 27.736 273.75C25.0632 279.379 21.6837 283.52 20.6363 290.284C20.256 292.742 19.6069 297.302 20.7797 299.542C20.8223 299.623 21.2171 299.386 21.2653 299.473C21.3101 299.555 21.7403 300.32 21.9172 300.538C22.9534 301.806 22.8868 302.371 24.6163 302.318C25.3836 302.294 26.9132 302.169 27.6155 301.725C28.1437 301.392 28.4019 300.571 28.808 300.278C29.2191 299.981 29.1703 299.827 29.5562 299.654C29.6352 299.618 29.787 300.481 29.9371 300.445C30.761 300.247 31.1161 299.617 31.8162 299.11C33.8336 297.649 35.8112 296.044 37.7323 294.573C39.6657 293.094 41.1102 291.03 43.0363 289.31C45.0823 287.484 46.7558 286.084 48.3297 283.549C49.419 281.794 50.719 281.155 51.4505 280.291C52.3186 279.265 53.8146 275.305 55.2137 274.834C55.8505 274.619 56.3601 275.34 56.7091 275.045C57.1023 274.713 56.6738 274.076 56.8709 273.701C57.2389 273.003 57.2848 272.887 57.9104 272.246C58.7119 271.426 59.6966 271.206 60.3692 270.138C61.1169 268.95 61.2194 267.617 62.1396 266.504C64.3525 263.826 66.3229 261.005 68.668 258.409C67.7623 264.867 66.8651 271.281 67.5668 277.85C68.2468 284.216 70.3594 287.067 74.5063 290.298C75.4192 291.009 76.377 292.044 77.3571 292.549C77.953 292.856 78.8503 292.673 79.2944 292.898C80.7983 293.66 80.2869 295.221 80.493 296.98C80.8128 299.706 82.772 301.804 84.0361 303.927C85.0997 305.714 87.0174 309.778 88.7968 310.394C90.4031 310.951 91.9187 308.548 93.2568 307.525C95.2742 305.982 97.472 304.876 99.5992 303.615C103.754 301.153 107.769 298.215 111.878 295.611C113.755 294.422 115.651 293.938 117.637 293.17C120.023 292.247 122.058 290.483 124.347 289.279C128.461 287.113 132.404 284.53 136.493 282.256C144.958 277.552 154.189 274.319 161.721 267.26C165.129 264.066 169.516 263.726 172.874 260.623C176.374 257.388 174.228 252.44 172.73 248.47C168.635 237.624 166.191 226.36 160.555 216.479C157.626 211.346 154.92 206.04 152.366 200.583C150.107 195.753 150.153 190.282 149.586 184.826C149.206 181.18 148.851 177.519 148.387 173.888C148.093 171.581 147.143 168.674 148.292 166.582C149.526 164.335 152.458 163.379 154.31 162.193C156.613 160.72 158.843 159.135 161.231 157.888C166.69 155.038 172.441 153.066 178.168 151.325C179.875 150.806 187.185 147.093 188.576 149.268C186.867 150.729 186.368 153.382 185.602 155.656C184.46 159.044 183.282 162.272 182.449 165.823C180.728 173.164 179.264 180.623 177.861 188.073C176.468 195.469 174.807 202.924 174.381 210.544C174.163 214.433 174.313 218.326 174.307 222.219C174.301 226.374 173.628 230.45 173.748 234.616C173.828 237.386 174.01 240.714 175.279 243.077C176.454 245.267 178.453 245.51 180.196 246.682C182.494 248.227 183.394 248.886 183.416 252.247C183.441 256.165 183.243 260.013 183.529 263.929C184.527 277.564 188.109 293.745 195.259 304.272C195.734 304.972 209.606 327.348 211.141 324.073C212.199 325.674 213.78 326.26 215.082 327.656C217.127 329.851 219.134 331.606 220.826 334.324C223.905 339.27 226.522 345.067 227.292 351.392C227.953 356.835 227.556 363.343 225.155 368.061C222.748 372.794 217.599 375.899 213.713 378.229C208.605 381.292 203.421 381.636 197.874 380.868C195.138 380.49 192.422 379.898 189.705 379.339C188.575 379.107 187.257 379.106 186.187 378.561C185.039 377.978 184.651 377.333 183.505 377.26C182.649 377.206 182.182 377.449 181.277 377.207C180.158 376.908 178.942 376.364 177.825 375.997C176.584 375.588 175.566 375.007 174.422 374.256C173.363 373.562 172.17 373.428 171.15 372.77C169.393 371.636 168.852 369.74 166.475 370.791C163.966 371.9 164.49 374.676 162.889 376.579C161.465 378.271 159.702 376.706 158.286 375.701C156.201 374.221 154.036 372.989 151.816 371.868C149.419 370.657 146.969 369.605 144.474 368.771C141.745 367.86 138.747 367.679 136.118 366.352C133.807 365.186 132.813 362.932 131.139 360.825C129.379 358.609 126.99 357.765 124.55 357.962C120.105 358.322 117.07 364.466 114.723 368.734C108.163 380.655 100.913 390.811 92.1456 400.176C87.9567 404.649 83.2346 408.454 79.1835 413.097C77.4747 415.055 76.2341 416.892 74.2106 418.35C71.5524 420.265 69.1401 422.668 66.599 424.828C56.6598 433.276 49.3692 445.582 52.1181 461.65C53.3553 468.883 55.8264 473.96 60.4437 478.312C62.5401 480.288 64.4584 481.931 67.1289 481.817C69.6504 481.709 71.875 481.597 70.3897 477.76C72.2716 478.505 73.8465 480.344 75.9009 481.286C78.2678 482.37 81.3471 483.046 83.8602 483.112C87.8839 483.217 92.6171 480.504 96.1406 479.354C97.1258 479.033 99.0239 478.507 100.146 477.322C101.039 476.381 100.845 475.266 102.196 474.819C103.967 474.233 104.641 474.918 106.336 473.546C108.796 471.555 111.464 470.372 114.016 468.536C117.453 466.063 120.757 463.276 124.163 460.729C124.617 462.33 127.285 471.84 128.933 467.255C130.367 463.263 125.711 459.847 128.541 455.806C131.242 451.952 131.806 456.004 134.425 457.792C138.061 460.276 137.516 455.637 136.459 452.89C136.036 451.791 135.147 450.134 135.409 448.852C135.914 446.377 137.479 447.83 138.71 448.082C140.649 448.48 142.216 447.798 143.672 446.135C144.885 444.748 146.893 443.55 147.626 441.722C147.993 440.807 148.058 439.549 148.363 438.577C148.766 437.297 149.052 437.607 149.199 436.018C149.058 435.197 149.003 434.365 149.031 433.522C149.35 433.44 149.667 433.358 149.985 433.275C149.994 433.217 150.017 431.614 149.888 431.853C150.185 431.301 150.823 431.067 151.19 430.302C151.527 429.598 151.214 428.248 151.349 427.417C151.624 425.734 152.372 424.376 152.984 422.876C154.278 429.88 153.904 437.183 155.14 444.19C156.156 449.943 158.47 455.1 161.168 459.817C162.419 462.003 164.074 463.555 165.384 465.632C166.492 467.39 167.046 468.939 168.681 469.978C169.769 470.668 170.992 471.024 172.114 471.62C172.831 472.001 174.462 473.757 175.135 473.726C174.549 473.754 176.236 473.82 175.845 473.735C175.874 473.741 175.645 472.795 175.848 472.811C178.294 475.773 180.849 475.78 183.679 477.62C184.975 478.464 185.461 478.411 186.843 478.723C188.633 479.127 190.141 480.434 191.855 480.573C194.495 480.787 197.468 481.241 200.22 481.116C200.969 481.081 202.376 480.465 202.963 481.302C203.351 481.855 202.615 485.852 202.569 486.767C202.085 496.366 203.088 506.443 206.255 515.226C208.88 522.509 211.68 531.124 216.324 536.685C221.472 542.849 228.683 547.193 235.568 548.856C243.192 550.696 250.748 549.318 258.395 548.746C266.153 548.166 273.331 546.758 280.814 543.882C287.772 541.207 294.363 537.722 301.02 534.044C305.549 531.544 311.29 527.945 308.916 520.356C308.342 518.52 306.117 513.417 304.147 515.935C302.404 518.162 305.317 522.378 306.636 523.793C296.699 532.655 284.641 535.586 273.014 538.726C266.629 540.45 260.338 540.377 253.843 540.401C248.34 540.421 242.837 540.624 237.368 539.64C232.422 538.751 226.662 537.083 222.98 532.457C219.13 527.618 215.485 521.84 212.857 515.803C209.973 509.178 209.274 502.014 209.04 494.542C208.917 490.609 208.78 486.626 209.101 482.702C209.335 479.853 210.472 479.515 211.036 477.264C212.339 479.6 213.198 478.737 214.798 477.372C215.832 481.066 215.372 484.903 215.194 488.713C215.021 492.423 215.408 496.185 215.763 499.87C216.365 506.135 218.712 512.668 221.69 517.711C223.035 519.991 225.053 520.954 226.878 522.528C229.204 524.536 231.617 526.405 234.046 528.207C238.619 531.6 243.611 534.501 248.765 535.012C250.571 535.191 251.884 536.395 254.036 536.226C255.314 536.127 256.6 535.567 257.875 535.612C259.152 535.656 260.25 536.179 261.562 536.057C267.015 535.552 272.636 533.268 278.036 532.013C283.881 530.654 289.763 529.191 295.344 526.509C297.762 525.347 299.758 523.848 301.108 520.927C302.072 518.841 301.82 515.099 303.616 513.85C302.44 511.91 302.877 511.567 303.894 509.831C304.368 509.022 305.9 506.88 304.042 506.918C304.607 503.791 303.662 500.768 303.26 497.709C303.086 496.388 303.133 494.387 302.494 493.249C302.121 492.586 301.501 492.573 301.167 492.085C300.823 492.075 300.553 491.891 300.36 491.535C300.337 491.013 300.528 490.694 300.933 490.58C300.839 489.546 301.438 489.917 300.839 488.301C300.023 486.094 298.475 484.173 297.009 482.672C295.76 481.393 294.84 479.123 293.398 478.441C291.522 477.553 289.554 476.589 287.582 475.765C283.112 473.896 278.682 473.181 273.992 474.217C271.844 474.692 269.728 475.274 267.653 476.123C266.44 476.62 264.583 477.962 263.508 476.516C263.139 476.019 262.368 471.803 262.416 471.347C262.609 469.518 265.528 468.78 266.594 468.142C268.222 467.167 271.236 466.124 272.27 464.188C272.704 463.377 272.214 459.93 272.285 459.868C272.968 459.28 275.834 467.649 276.615 468.22C277.744 469.046 280.916 467.955 282.083 467.791C285.565 467.301 289.105 467.023 292.515 465.961C299.055 463.924 305.476 460.773 311.841 457.989C323.948 452.692 335.637 445.712 346.521 437.041C351.604 432.991 356.654 427.815 360.522 421.934C362.267 419.282 363.499 416.136 365.28 413.536C367.336 410.536 366.688 407.829 367.609 404.071C369.474 396.464 371.739 389.555 372.754 381.584C373.799 373.376 374.23 364.996 373.941 356.687C373.368 340.265 372.745 324.695 367.102 309.605C361.931 295.777 355.229 282.267 347.262 270.818C345.41 268.157 343.453 265.622 341.178 263.552C338.729 261.323 336.033 259.575 333.816 256.942C331.997 254.782 330.475 252.237 328.572 250.186C326.236 247.67 323.457 246.558 320.721 244.951C318.098 243.411 315.706 241.409 313.024 240.006C311.392 239.154 309.739 238.368 308.037 237.772C306.78 237.333 305.109 237.305 303.959 236.47C302.139 235.148 300.278 231.302 299.09 229.129C297.356 225.959 296.416 222.271 295.591 218.586C294.588 214.102 293.655 209.591 292.673 205.099C292.338 203.564 291.084 198.222 293.584 199.518C294.316 199.897 295.002 201.583 295.565 202.303C296.633 203.67 297.951 204.891 299.276 205.821C301.412 207.32 303.637 209.124 305.686 210.158C307.492 211.068 309.349 212.853 311.032 214.137C311.288 214.332 311.363 215.003 311.692 215.191C312.468 215.631 312.985 214.416 313.717 214.714C314.718 215.12 314.883 216.327 315.439 217.286C316.244 218.678 316.661 218.788 317.891 219.504C319.259 220.301 320.264 221.875 321.598 222.655C323.219 223.602 326.786 222.868 327.03 226.134C329.549 224.03 332.708 228.116 334.28 230.236C335.863 227.128 338.665 230.767 341.06 229.735C339.735 232.091 339.976 231.857 342.067 232.148C343.831 232.395 344.888 233.894 346.632 234.764C347.84 235.367 349.176 236.382 350.431 236.806C351.619 237.208 352.518 236.307 353.552 236.532C354.265 236.687 354.942 237.476 355.621 237.691C356.48 237.965 357.705 238.297 358.676 238.592C359.859 238.951 361.035 238.622 362.214 238.907C363.59 239.24 364.777 240.288 366.174 240.628C367.732 241.008 369.352 240.755 370.9 241.237C372.311 241.678 373.169 242.184 374.631 242.202C376.811 242.229 379.245 242.599 381.398 242.284C382.544 242.116 383.18 241.372 384.477 242.099C385.343 242.584 385.861 244.082 387.041 243.395C385.796 242.757 386.888 240.272 388.261 242.175C388.586 241.108 388.796 240.512 389.699 240.161C389.654 241.206 389.52 242.256 390.562 242.474C390.641 241.747 390.722 241.021 390.802 240.293C393.067 242.498 393.603 243.277 395.741 240.586C395.683 241.467 395.393 242.464 396.093 243.088C396.541 242.134 396.99 241.182 397.438 240.23C398.195 243.304 401.81 242.243 403.562 241.698C404.241 241.487 406.118 241.153 406.561 240.44C406.869 239.946 406.831 239.56 406.945 239.257C407.046 238.988 405.894 238.327 406.874 237.94C407.613 237.648 408.188 239.719 409.055 239.636C409.828 239.563 410.14 237.889 410.696 237.55C410.75 237.518 411.127 238.225 411.389 238.07C411.795 237.83 412.027 237.196 412.475 236.971C413.448 236.485 414.704 236.606 415.793 236.029C417.173 235.298 418.564 234.949 419.974 234.347C421.76 233.583 422.571 232.083 424.021 230.855C424.361 230.567 424.715 230.735 425.049 230.531C425.498 230.257 425.97 229.614 426.505 229.311C428.184 228.358 429.619 227.71 431.212 226.396C432.632 225.225 434.507 224.359 435.772 222.952C436.824 221.782 437.392 220.073 438.45 218.881C439.97 217.172 443.898 215.026 443.261 211.686C445.803 212.182 446.425 210.077 447.358 207.755C448.246 205.547 450.065 204.885 451.255 202.871C451.769 202 452.597 200.793 452.881 199.8C453.05 199.209 452.626 198.592 452.74 198.188C453.268 196.333 455.303 195.522 456.245 193.849C457.443 191.72 457.827 189.026 458.827 186.839C459.024 186.409 459.508 186.153 459.696 185.694C459.816 185.399 459.565 184.669 459.712 184.379C460.06 183.692 460.608 183.454 460.958 182.817C461.806 181.275 461.96 179.084 462.722 177.336C462.91 176.905 463.563 175.703 463.645 175.447C463.921 174.586 463.837 174.02 463.979 173.063C464.021 172.774 464.457 171.107 464.546 170.869C464.825 170.126 465.096 170.016 465.523 169.2C466.593 167.156 467.256 163.947 467.344 161.467C467.382 160.414 467.108 159.326 467.406 158.322C467.663 157.455 468.455 156.919 468.754 156.011C469.537 153.627 469.409 150.257 469.624 147.707C469.859 144.928 470.554 142.189 470.746 139.431C470.839 138.095 470.349 136.913 470.385 135.655C470.426 134.214 471.011 133.945 471.236 132.747C471.493 131.378 471.117 129.802 471.346 128.335C471.56 126.97 471.871 125.706 471.959 124.306C472.19 120.659 471.865 116.844 471.741 113.195C471.693 111.78 471.545 110.303 471.838 108.917C472.074 107.801 473.036 106.554 473.005 105.344C472.906 101.606 470.568 104.841 469.224 104.585C467.662 104.287 467.374 99.8028 466.962 98.1023C465.956 93.9475 464.95 89.7933 463.944 85.6392C468.74 84.0419 473.727 84.5024 478.624 84.0713C483.436 83.6482 488.134 82.3127 492.799 80.8094C496.738 79.5399 501.048 78.8041 504.588 76.0937C507.56 73.8187 510.012 68.7838 508.275 64.3413Z" fill="black"/>
<path fill-rule="evenodd" clip-rule="evenodd" d="M42.5102 144.765C44.429 143.489 43.9449 141.727 45.354 140.089C53.2393 130.926 62.4928 122.924 71.7669 116.318C81.538 109.356 92.5013 106.409 102.489 100.24C103.832 99.4109 105.577 98.1137 105.076 95.8023C104.49 93.1012 102.479 94.3443 101.046 94.9813C96.269 97.1059 91.185 97.9052 86.3403 99.7716C75.9985 103.755 66.3136 110.623 57.5525 118.662C52.4556 123.339 47.5729 128.509 43.2206 134.317C41.6176 136.454 39.4803 138.948 39.0633 142.028C38.5469 145.839 40.3092 146.228 42.5102 144.765Z" fill="black"/>
<path fill-rule="evenodd" clip-rule="evenodd" d="M72.3773 384.362C72.3307 380.993 69.4625 382.218 67.9867 382.671C61.9878 384.512 56.6251 385.922 51.316 390.186C41.4629 398.1 33.9972 410.122 29.1673 423.427C28.5242 425.197 25.9347 430.808 28.0102 432.478C29.3784 433.58 30.2084 430.372 30.7196 429.181C33.321 423.12 36.8041 417.754 40.3064 412.488C48.0829 400.794 57.4303 393.372 68.6145 387.954C69.9861 387.289 72.4113 386.81 72.3773 384.362Z" fill="black"/>
<path fill-rule="evenodd" clip-rule="evenodd" d="M403.94 301.635C401.865 296.296 398.509 289.709 393.866 287.509C391.298 286.292 389.777 288.306 390.54 291.67C391.146 294.345 393.17 295.653 394.682 297.427C398.571 301.992 400.966 308.809 402.386 315.139C403.888 321.831 404.187 329.092 404.161 336.019C404.146 339.677 403.383 342.855 402.969 346.415C402.806 347.814 402.528 350.899 403.786 351.773C406.572 353.709 407.86 343.599 408.144 341.655C409.193 334.484 409.092 327.88 408.209 320.721C407.401 314.175 406.268 307.623 403.94 301.635Z" fill="black"/>
<path fill-rule="evenodd" clip-rule="evenodd" d="M395.968 45.0829C397.102 43.1278 396.275 40.3908 396.613 38.1618C396.966 35.8254 398.02 33.4619 398.912 31.4181C400.839 27.0058 402.989 22.6728 405.279 18.5574C407.644 14.3074 410.528 10.6863 413.042 6.60298C413.892 5.22162 415.398 3.24723 415.031 1.58473C414.436 -1.10716 413.141 0.204806 412.103 1.33293C406.43 7.50147 401.436 15.1072 397.4 23.0956C395.485 26.887 393.676 31.0389 393.042 35.5364C392.715 37.8592 392.712 40.2828 393.251 42.557C393.589 43.9862 394.606 47.4321 395.968 45.0829Z" fill="black"/>
<path fill-rule="evenodd" clip-rule="evenodd" d="M46.3862 374.121C49.2286 373.784 52.0874 373.665 54.9366 373.477C57.0454 373.339 59.4178 373.505 61.3535 372.207C63.3015 370.9 62.4548 368.943 60.8351 368.653C59.9041 368.486 58.3328 369.29 57.3349 369.345C56.2544 369.405 55.1682 369.362 54.0871 369.367C50.9265 369.382 47.5207 369.351 44.4736 370.695C43.4785 371.134 41.9707 371.811 41.5614 373.266C40.6861 376.378 45.0678 374.276 46.3862 374.121Z" fill="black"/>
<path fill-rule="evenodd" clip-rule="evenodd" d="M71.2761 89.3888C75.4043 88.7559 79.394 87.174 83.4612 86.1657C87.3277 85.2076 87.9859 81.3089 83.4082 81.4841C81.8711 81.5427 67.052 85.1378 71.2761 89.3888Z" fill="black"/>
<path fill-rule="evenodd" clip-rule="evenodd" d="M412.381 284.908C409.608 284.02 411.042 287.954 411.901 289.171C413.488 291.419 414.355 293.103 414.827 296.102C415.102 297.849 414.844 301.79 416.003 303.125C417.144 304.44 417.223 303.567 417.425 301.945C417.997 297.371 416.855 286.341 412.381 284.908Z" fill="black"/>
<path fill-rule="evenodd" clip-rule="evenodd" d="M381.935 35.9694C382.72 34.9045 381.878 30.2735 381.971 28.9163C382.084 27.2719 382.388 25.8802 382.772 24.337C382.958 23.5888 383.895 20.9476 383.39 20.1276C382.691 18.9908 381.529 20.9117 381.161 21.6679C379.965 24.1288 379.686 28.2319 379.885 31.0031C379.956 32.0062 380.431 38.0066 381.935 35.9694Z" fill="black"/>
<path fill-rule="evenodd" clip-rule="evenodd" d="M218.642 426.483C218.772 423.86 220.748 422.042 220.753 419.252C220.761 416.118 219.111 414.761 217.058 416.798C215.819 418.027 214.855 421.019 213.18 421.411C209.82 422.199 208.502 414.481 205.193 415.374C202.328 416.147 203.833 422.44 204.698 424.563C205.614 426.814 207.278 428.393 206.736 431.161C206.093 434.45 203.886 436.345 204.745 440.097C206.339 447.07 209.801 440.551 211.883 438.359C213.367 436.797 214.264 437.075 215.704 438.607C217.678 440.704 219.186 442.129 221.579 443.543C223.69 444.789 225.726 445.659 225.791 441.476C225.843 438.187 223.901 434.913 222.196 432.681C220.78 430.829 218.497 429.403 218.642 426.483Z" fill="black"/>
<path fill-rule="evenodd" clip-rule="evenodd" d="M181.659 416.081C179.19 412.713 176.071 421.301 174.075 422.252C170.84 423.792 170.096 415.537 167.118 415.796C164.8 415.998 164.983 420.246 165.487 422.184C166.03 424.269 167.656 425.974 167.929 428.112C168.347 431.386 163.502 437.934 166.883 441.097C169.77 443.799 170.845 434.673 174.454 438.396C176.226 440.224 181.184 447.025 183.64 443.64C186.542 439.64 179.639 432.809 178.379 429.767C176.674 425.647 185.278 421.014 181.659 416.081Z" fill="black"/>
<path fill-rule="evenodd" clip-rule="evenodd" d="M241.485 299.102C240.777 298.703 239.632 299.363 238.866 299.322C238.043 299.277 237.186 298.799 236.375 298.622C234.611 298.236 231.51 298.794 230.259 296.784C228.982 294.733 229.953 290.616 229.407 288.122C229.11 286.766 228.766 285.092 227.338 285.697C225.681 286.398 225.72 290.291 225.522 291.999C225.231 294.518 224.996 296.439 223.016 297.336C221.55 297.999 220.007 297.665 218.822 299.205C217.954 300.333 217.368 302.394 218.048 303.868C219.069 306.083 221.279 304.936 222.813 305.636C225.152 306.704 224.596 311.591 225.075 314.396C225.382 316.199 226.057 321.248 228.082 321.166C230.842 321.056 229.77 313.964 229.617 311.893C229.462 309.793 229.093 308.011 230.925 307.359C232.474 306.808 234.637 307.83 236.236 307.818C238.255 307.802 240.635 307.154 241.854 304.839C242.55 303.515 242.991 299.952 241.485 299.102Z" fill="black"/>
<path fill-rule="evenodd" clip-rule="evenodd" d="M342.921 386.393C347.309 386.877 344.65 393.793 347.562 396.543C350.34 399.165 350.714 391.926 350.714 389.859C350.712 384.851 355.474 386.702 358.373 385.873C360.847 385.167 363.549 381.881 360.594 379.083C358.462 377.062 354.926 378 352.45 377.465C349.095 376.739 350.092 373.875 350.018 370.573C349.991 369.364 349.665 365.049 348.443 364.709C346.204 364.087 346.071 372.122 345.92 373.651C345.282 380.121 341.807 376.18 339.046 379.423C335.437 383.663 340.306 386.104 342.921 386.393Z" fill="black"/>
<path fill-rule="evenodd" clip-rule="evenodd" d="M134.186 265.766C127.329 272.952 119.543 271.922 113.267 264.186C110.614 260.914 109.01 257.617 109.248 252.83C109.461 248.522 110.45 243.761 113.147 240.852C115.419 238.399 119.704 237.519 122.58 237.177C126.612 236.697 130.218 239.504 133.007 243.011C135.436 246.065 138.274 249.957 138.649 254.491C139.043 259.262 136.917 262.901 134.186 265.766ZM135.228 237.167C129.078 229.592 118.171 230.353 111.821 237.26C104.694 245.013 103.475 259.578 110.325 268.072C117.544 277.024 127.072 276.058 134.714 268.633C138.812 264.65 141.036 259.54 141.607 252.982C142.146 246.785 138.592 241.308 135.228 237.167Z" fill="black"/>
<path fill-rule="evenodd" clip-rule="evenodd" d="M130.631 262.049C129.067 260.575 126.475 264.028 124.822 264.04C121.48 264.063 123.3 259.05 121.208 257.425C120.117 256.578 115.551 257.432 116.272 253.924C116.706 251.813 118.403 253.337 119.333 252.047C120.499 250.431 118.836 249.142 117.801 248.478C118.255 247.704 120.872 247.363 121.529 247.899C122.664 248.826 122.599 251.603 123.64 253.034C124.99 250.828 124.258 248.057 125.697 246.077C126.255 245.307 127.889 244.729 127.254 243.357C126.886 242.56 125.272 242.823 124.719 242.19C124.237 241.636 124.261 239.853 123.483 239.705C122.212 239.463 122.243 241.947 121.861 242.665C120.713 244.82 115.665 244.077 117.757 248.45C116.364 247.56 112.562 246.857 113.3 249.962C113.488 250.756 114.207 251.242 114.385 252.147C114.54 252.931 114.199 254.049 114.167 254.836C114.107 256.328 114.014 258.074 114.877 259.274C116.064 260.925 117.65 259.724 118.924 260.442C120.658 261.419 120.033 263.451 120.948 265.229C122.146 267.553 123.988 266.839 125.685 266.136C127.707 265.297 128.027 265.221 129.507 267.375C130.184 266.257 132.038 263.376 130.631 262.049Z" fill="black"/>
<path fill-rule="evenodd" clip-rule="evenodd" d="M133.351 252.971C131.719 252.585 132.362 246.366 130.376 249.069C129.632 250.081 130.394 252.057 129.564 253.142C129.006 253.872 128.298 253.441 127.739 253.92C127.238 254.349 127.111 255.171 126.815 255.799C127.865 256.403 128.676 256.481 129.797 256.218C129.797 257.298 129.236 260.476 130.677 260.244C132.017 260.028 131.638 256.837 132.32 255.845C133.013 254.837 135.804 255.305 136.064 253.888C136.385 252.133 134.065 253.14 133.351 252.971Z" fill="black"/>
<ellipse cx="266.972" cy="112.954" rx="2.7355" ry="1.95393" fill="black"/>
<ellipse cx="276.875" cy="115.605" rx="4.89616" ry="1.46885" transform="rotate(-10.7205 276.875 115.605)" fill="#F5556E"/>
<ellipse cx="251.084" cy="123.421" rx="4.89616" ry="1.46885" transform="rotate(-10.7205 251.084 123.421)" fill="#F5556E"/>
<path fill-rule="evenodd" clip-rule="evenodd" d="M264.78 121.643C263.8 122.049 262.888 121.936 261.921 122.144C261.283 122.281 261.201 121.878 261.118 122.69C260.942 124.422 263.457 125.092 264.59 125.068C265.972 125.038 267.487 124.005 267.354 122.323C267.215 120.571 265.846 121.202 264.78 121.643Z" fill="black"/>
<ellipse cx="256.029" cy="116.08" rx="2.7355" ry="1.95393" fill="black"/>
</svg>
