<svg width="799" height="766" viewBox="0 0 799 766" fill="none" xmlns="http://www.w3.org/2000/svg">
<path fill-rule="evenodd" clip-rule="evenodd" d="M505.89 502.644C504.329 529.202 473.259 543.009 454.413 548.676C458.19 522.622 463.069 495.613 460.034 469.191C459.035 460.488 457.723 451.831 456.315 443.206C455.795 440.016 455.257 436.83 454.701 433.649C454.566 432.875 453.473 429.489 453.821 428.718C454.444 427.338 459.715 427.554 461.058 427.614C464.519 427.768 467.916 428.783 471.083 430.387C477.739 433.758 483.346 439.562 487.966 445.967C498.863 461.072 507.068 482.618 505.89 502.644ZM469.918 322.112C451.881 334.5 430.154 341.149 409.582 344.389C378.241 349.326 346.241 343.643 315.601 335.768C308.078 333.834 300.571 331.751 293.158 329.305C292.824 354.49 298.933 378.441 310.864 399.445C320.728 416.81 333.601 431.324 344.853 447.409C355.328 462.383 363.776 479.274 364.196 499.038C364.371 507.286 363.786 514.834 357.832 520.178C351.849 525.55 343.767 527.542 336.446 528.766C318.112 531.83 298.91 530.174 280.692 526.801C277.154 526.145 273.624 525.399 270.133 524.467C266.169 523.408 264.78 522.161 261.469 525.612C254.325 533.06 251.048 544.229 249.43 554.914C246.397 574.925 247.425 598.269 251.797 618.012C256.008 637.031 275.884 647.571 290.609 652.167C335.022 666.031 384.024 646.885 418.103 612.803C418.845 612.059 419.582 611.306 420.301 610.531C422.723 616.377 425.366 622.121 428.255 627.673C430.264 631.536 432.379 635.418 434.914 638.856C435.829 640.098 436.903 641.774 438.154 642.588C440.483 644.101 442.851 642.989 445.488 642.458C464.939 638.54 484.344 633.389 502.84 625.275C530.957 612.941 556.174 592.621 569.501 560.524C576.234 544.311 579.744 526.547 581.442 508.732C583.392 488.276 583.813 467.367 578.85 447.429C569.756 410.894 546.554 381.274 521.145 358.43C505.422 344.294 488.138 331.519 469.918 322.112Z" fill="#FF5678"/>
<path fill-rule="evenodd" clip-rule="evenodd" d="M787.737 80.1736C783.627 82.0684 779.201 82.5955 774.827 82.9663C771.396 83.2564 768.703 84.8519 765.472 84.9418C756.47 85.191 747.432 85.6599 738.474 87.2197C729.479 88.7876 721.193 86.7406 714.089 94.5804C711.561 97.37 708.391 100.577 709.911 105.08C710.608 107.142 711.59 108.621 712.169 110.835C712.824 113.338 713.637 115.701 714.584 118.083C716.4 122.653 725.493 139.672 718.114 141.754C710.113 144.01 699.264 141.373 691.557 138.792C687.061 137.285 682.635 135.52 678.204 133.78C674.696 132.403 670.086 131.623 666.854 129.466C664.71 128.034 664.265 125.592 662.848 123.271C660.27 119.05 657.861 115.454 654.53 111.941C647.619 104.656 638.98 99.7092 630.46 95.3608C629.91 95.0788 628.906 94.421 628.312 94.3567C627.671 94.2872 626.965 95.0533 626.551 94.9604C625.414 94.704 625.019 93.8755 623.775 93.0563C622.104 91.9562 615.295 88.2963 614.104 91.1738C615.218 87.3933 616.032 88.4842 619.048 89.0328C620.376 89.2759 621.265 88.5701 622.458 88.6405C623.559 88.7049 624.01 89.4311 624.929 89.6273C626.612 89.9858 628.18 89.7161 629.937 89.7008C630.41 88.4924 631.08 88.5016 631.947 89.7274C632.431 89.9092 632.916 90.091 633.401 90.2739C635.151 90.8306 637.021 90.7243 638.813 90.8878C641.504 91.135 648.516 94.9409 649.866 91.089C651.306 86.9755 646.932 85.95 646.203 83.0797C645.492 80.2635 648.824 78.6107 650.161 76.91C651.684 74.9764 652.615 73.2787 654.402 71.5749C655.449 70.5749 656.821 69.6423 657.597 68.3103C658.312 67.0845 658.28 65.1029 659.207 64.0814C660.311 62.8638 660.481 63.7065 661.485 63.1181C663.455 61.9629 662.585 62.0211 663.75 60.4419C664.746 59.0915 665.481 59.1324 666.784 58.0976C668.692 56.5828 669.363 53.6226 671.216 51.9944C672.573 50.8023 674.733 50.8043 675.922 49.5663C676.623 48.837 676.407 47.6552 677.013 46.9667C678.176 45.6439 678.973 46.1812 680.425 45.745C682.874 45.0096 683.667 43.4396 685.47 41.6214C687.117 39.9615 688.163 39.9686 690.225 39.2801C693.041 38.3404 694.86 35.8787 697.402 34.4323C699.795 33.0717 702.266 32.1176 704.687 30.6682C706.435 29.6211 708.12 28.9715 709.715 27.903C710.254 27.5425 710.301 26.2217 710.996 26.0429C711.795 25.8366 712.433 27.376 713.283 27.4567C715.063 27.6262 717.089 25.3361 718.258 24.0102C718.766 23.4341 719.453 21.8764 720.107 21.5546C721.475 20.8804 722.29 22.2155 723.509 21.6884C725.22 20.9489 724.54 18.7834 725.588 17.5893C726.504 16.5474 728.451 16.6179 730.078 16.9478C736.636 18.2737 726.431 23.6466 724.512 24.7334C721.284 26.5639 697.799 39.8797 703.293 46.5203C706.2 50.0331 713.297 47.3916 716.457 46.4662C721.997 44.8431 727.772 41.7184 733.454 41.0013C734.156 40.9125 736.252 41.4957 736.824 41.2414C738.115 40.6683 737.793 39.5222 738.842 38.9196C740.422 38.0145 743.65 38.0585 745.254 38.2617C746.508 38.4211 747.881 39.2893 749.156 39.1719C750.562 39.0421 751.919 38.0942 753.312 37.7888C755.696 37.2679 758.163 37.5232 760.572 37.6039C764.035 37.7214 770.958 38.3281 765.926 43.6643C761.854 47.9831 754.81 49.8523 749.673 51.7369C742.075 54.5225 734.61 57.0568 727.109 60.2305C721.998 62.3919 711.096 66.1887 717.181 74.291C717.781 73.6331 718.382 72.9763 718.981 72.3185C719.691 73.151 720.424 74.771 721.561 74.818C722.506 74.8568 722.159 73.6781 723.053 73.3093C725.864 72.153 729.716 72.2409 732.68 72.0233C740.104 71.4778 747.501 70.3369 754.935 69.9834C761.936 69.6504 769.011 70.0835 775.875 71.7863C777.641 72.2245 794.103 77.2389 787.737 80.1736ZM727.027 163.488C727.4 167.105 726.016 170.03 725.632 173.523C725.168 177.747 725.508 181.467 724.476 185.667C722.469 193.829 721.042 202.18 718.888 210.294C715.086 224.622 708.946 237.276 702.633 250.277C699.412 256.905 694.562 262.378 690.13 267.922C685.588 273.604 681.959 279.196 676.529 283.861C665.679 293.185 653.97 301.479 641.125 306.516C627.679 311.789 613.539 313.387 599.416 312.716C593.148 312.419 586.505 313.155 580.337 311.979C573.778 310.728 566.671 309.192 560.225 307.345C548.392 303.957 536.992 298.205 525.436 293.068C512.53 287.33 500.912 280.006 489.143 271.733C486.03 269.544 482.739 268.521 479.819 265.871C477.358 263.639 474.936 261.505 472.347 259.466C469.376 257.127 466.532 254.569 463.497 252.346C461.682 251.017 459.131 249.717 458.179 247.311C456.869 244.003 458.448 239.847 459.264 236.638C460.327 232.46 461.457 228.334 462.735 224.239C464.898 217.306 470.402 206.61 467.375 199.279C460.992 203.866 458.177 212.882 455.449 220.547C452.19 229.703 449.915 238.838 449.424 248.769C448.436 268.747 451.318 289.774 457.568 308.401C458.496 311.167 460.127 314.167 458.928 317.127C457.67 320.232 454.257 322.855 451.633 324.197C443.333 328.444 435 329.681 426.332 332.03C423.971 332.669 421.387 334.59 419.173 334.832C417.678 334.995 416.442 334.426 414.73 334.439C413.011 334.454 411.666 335.57 410.127 335.69C408.784 335.795 407.592 334.884 406.311 334.97C403.445 335.163 402.916 340.86 401.496 335.845C401.238 336.051 399.815 337.922 399.637 337.922C399.232 337.924 398.517 336.528 398.13 336.28C397.377 335.796 396.385 335.768 395.542 335.642C393.684 335.362 391.68 335.333 389.85 335.828C386.456 336.745 383.043 336.359 380.141 336.292C379.481 336.277 379.013 336.894 378.192 336.857C377.818 336.84 377.28 336.073 376.883 335.954C374.589 335.268 372.207 335.781 369.87 335.63C364.38 335.279 359.078 335.109 353.717 333.702C342.729 330.816 331.527 330.238 320.496 327.6C314.875 326.255 309.385 325.521 303.852 323.75C301.907 323.127 299.914 322.832 298.191 321.983C296.545 321.171 297.193 320.089 294.639 322.261C293.491 319 293.356 319.332 290.586 318.253C289.515 317.835 287.053 316.799 286.256 315.977C286.177 315.896 284.471 310.93 284.325 310.32C283.615 307.355 284.207 303.965 284.503 300.98C285.171 294.252 286.14 287.576 286.197 280.795C286.221 277.803 286.687 277.717 287.49 275.463C287.737 274.764 288.467 274.819 288.527 273.755C288.609 272.337 287.359 271.35 287.493 269.694C287.673 267.466 289.602 265.208 290.279 263.132C291.093 260.631 291.082 257.988 291.568 255.399C292.217 251.957 293.472 248.725 294.106 245.268C294.644 242.34 294.695 240.011 296.04 237.499C297.384 234.991 296.988 232.943 298.06 230.446C299.043 228.156 300.286 227.333 300.959 224.567C302.589 217.877 305.066 211.251 308.574 205.579C311.66 219.803 314.943 234.498 323.536 245.741C327.075 250.371 331.645 255.042 336.981 256.451C343.015 258.046 347.84 253.918 351.77 249.028C361.131 237.375 365.009 224.369 365.574 208.569C365.715 204.643 365.695 200.709 365.649 196.779C365.628 195.03 364.855 190.542 365.888 189.072C367.021 187.46 370.253 188.468 371.935 187.404C374.004 186.096 376.277 182.595 375.354 179.708C380.867 182.604 386.138 186.415 392.27 187.222C394.697 187.542 397.282 187.056 399.453 186.921C399.388 186.925 401.134 187.338 401.238 187.365C401.668 186.789 402.135 186.649 402.636 186.946C403.082 187 403.406 187.278 403.61 187.779C412.349 188.791 421.149 183.783 428.629 178.478C432.999 175.377 437.799 170.788 439.026 164.753C439.464 162.6 439.085 160.571 441.005 159.472C442.564 158.578 445.575 159.867 447.22 160.007C453.009 160.5 458.713 159.862 464.364 161.863C467.812 163.084 473.832 171.641 476.237 165.621C477.28 166.757 476.714 168.78 477.825 169.885C478.793 170.848 482.048 171.527 483.386 172.351C485.46 173.627 486.676 175.324 488.491 176.858C490.722 178.742 493.057 178.887 495.216 181.099C502.693 188.758 511.454 194.305 519.803 200.657C529.71 208.192 538.477 217.074 549.107 223.22C559.979 229.504 570.499 234.754 582.38 238.024C587.769 239.507 593.295 240.745 598.828 241.203C601.437 241.417 603.927 241.309 606.444 242.217C607.972 242.769 608.467 243.045 609.969 243.096C610.844 243.125 612.11 242.539 613.188 242.561C615.402 242.608 616.533 242.502 618.531 243.352C620.791 244.312 622.67 244.89 625.245 244.973C628.206 245.069 629.949 243.75 632.639 242.937C634.807 242.282 636.759 242.594 638.699 241.233C647.322 235.182 654.251 225.943 658.773 215.454C663.966 203.416 667.965 188.741 668.779 175.251C669.245 167.528 667.776 159.998 665.234 152.909C664.516 150.909 660.211 142.391 661.537 140.844C663.042 139.086 667.965 143.115 669.353 143.991C673.756 146.766 681.709 147.656 684.796 152.325C685.581 150.575 689.953 153.169 691.356 153.899C692.516 154.503 692.845 155.595 694.304 155.725C695.679 155.848 697.099 154.576 698.362 154.171C697.439 157.16 700.544 157.3 702.672 157.458C704.204 157.572 705.852 157.292 707.216 157.18C709.828 156.964 709.871 156.284 712.257 154.732C712.163 155.868 712.27 156.979 712.574 158.064C714.107 155.488 717.033 157.277 719.104 156.145C717.607 153.51 724 152.789 725.489 153.342C729.236 154.739 726.695 160.283 727.027 163.488ZM433.575 344.61C436.047 343.755 438.536 342.973 441.016 342.156C439.137 344.156 437.186 347.764 434.502 348.327C431.266 349.004 429.992 345.848 433.575 344.61ZM311.491 346.042C315.655 346.62 320.188 346.178 323.837 349.029C322.059 351.402 320.904 353.886 317.937 352.526C315.444 351.382 313.393 348.124 311.491 346.042ZM450.578 475.974C447.844 473.13 448.204 471.858 449.488 468.177C450.04 466.594 450.915 461.672 452.988 463.115C453.724 463.625 454.616 468.988 454.748 470.076C455.042 472.505 453.746 479.27 450.578 475.974ZM465.995 459.461C465.03 455.344 465.063 450.862 464.114 446.646C463.112 442.192 461.88 437.724 461.526 433.121C475.97 436.081 484.173 452.708 490.43 466.584C493.754 473.956 497.013 482.11 498.267 490.352C499.491 498.384 497.368 504.482 494.902 511.641C493.645 515.294 491.567 516.562 489.141 518.977C486.992 521.116 486.186 524.726 483.947 526.648C482.293 528.068 480.142 528.805 478.412 530.239C476.702 531.655 474.993 533.06 473.229 534.383C471.211 535.894 465.168 541.405 462.445 540.229C460.406 539.349 461.315 536.456 461.828 534.642C462.909 530.819 463.669 527.136 464.337 523.15C466.119 512.515 467.085 501.946 467.547 491.127C467.998 480.564 468.418 469.773 465.995 459.461ZM453.915 507.432C454.132 507.955 455.034 512.42 453.021 511.503C451.622 510.864 453.71 508.252 453.915 507.432ZM462.425 330.156C464.13 329.339 464.812 331.756 466.311 331.829C468.3 331.924 468.718 329.358 470.806 329.282C475.91 329.096 483.306 334.817 487.456 337.803C485.424 340.783 484.586 343.831 485.596 347.5C486.487 350.732 489.888 354.346 489.763 357.771C489.636 361.205 485.955 363.416 484.807 366.472C483.753 369.279 483.35 374.891 486.607 376.128C492.207 378.256 493.488 366.089 497.733 365.995C499.547 365.955 501.905 369.912 503.21 371.144C506.132 373.903 509.428 375.918 512.826 377.751C515.121 378.987 518.315 381.423 520.016 378.1C521.379 375.438 520.266 371.22 518.94 368.93C517.421 366.303 503.799 354.277 504.659 353.218C505.117 352.653 508.509 354.211 508.99 354.684C510.075 355.75 510.475 357.486 511.564 358.622C513.225 360.355 515.371 361.041 517.426 361.843C521.713 363.514 524.427 369.393 528.582 372.131C530.98 373.71 532.443 376.74 534.471 379.089C537.125 382.162 539.831 385.383 539.431 389.909C539.154 393.045 538.752 400.351 537.224 402.996C535.564 405.869 532.802 404.767 530.28 405.446C527.443 406.209 525.173 408.777 525.737 412.445C526.324 416.258 528.954 416.531 531.701 416.627C539.448 416.898 536.595 422.604 539.297 428.872C540.765 432.276 543.213 433.612 544.898 429.628C546.254 426.423 543.831 421.369 545.303 418.633C547.096 415.298 556.695 416.205 558.696 418.795C560.213 420.761 561.018 423.461 562.531 425.517C564.828 428.636 565.771 433.01 567.15 436.834C568.613 440.897 569.889 445.016 571.009 449.224C571.797 452.18 573.496 456.86 569.426 454.336C566.584 452.573 564.46 448.597 560.859 448.471C557.295 448.346 555.266 452.639 556.307 456.371C557.313 459.983 561.906 461.574 562.438 465.236C563.022 469.243 557.106 473.33 555.31 476.276C551.174 483.059 554.633 490.695 561.413 484.937C563.816 482.896 566.333 478.78 569.044 477.491C573.333 475.45 573.307 483.011 575.362 485.793C576.468 487.29 576.867 485.769 576.212 488.006C575.97 488.83 574.746 489.089 574.608 490.114C574.509 490.865 575.089 491.263 575.109 491.845C575.177 493.816 575.181 494.106 574.798 496.249C574.376 498.624 574.529 501.576 574.402 503.991C574.109 509.508 574.047 514.776 573.547 520.291C573.27 523.36 572.689 529.613 575.813 531.109C574.701 533.13 573.22 538.752 571.035 538.329C571.213 539.66 571.113 541.36 572.227 542.23C572.494 541.418 572.76 540.607 573.026 539.795C573.638 541.65 573.1 541.864 573.064 543.127C573.109 541.563 571.833 545.307 572.523 544.844C571.936 545.413 571.163 545.738 570.281 546.475C569.05 547.502 568.401 548.922 567.445 550.312C565.715 552.825 565.815 555.362 564.301 557.984C562.153 561.701 559.396 565.37 557.133 569.084C555.29 572.107 551.779 573.851 550.302 577.101C549.363 579.169 548.989 581.572 547.387 583.026C545.092 585.108 542.025 587.07 539.532 589.22C537.965 590.571 536.773 592.447 535.209 593.758C534.417 594.423 532.033 595.097 532.029 596.45C529.028 595.475 526.904 591.92 524.544 589.756C522.967 588.31 519.212 586.431 519.439 583.534C519.625 581.163 522.531 578.221 523.2 575.735C523.768 573.628 524.559 569.699 522.989 567.899C519.694 564.125 515.958 572.226 514.19 574.382C510.541 578.831 508.99 574.345 505.991 571.116C501.198 565.956 498.186 571.309 499.873 577.733C500.728 580.985 503.981 583.885 504.191 587.206C504.423 590.855 501.015 592.689 499.666 595.605C498.391 598.355 497.803 603.186 500.198 605.461C502.839 607.972 505.135 605.002 506.862 602.685C508.203 600.885 509.694 596.925 511.873 596.7C514.602 596.419 519.078 602.169 521.155 603.943C518 605.003 516.101 608.067 513.434 610.029C509.992 612.563 505.188 613.162 501.336 614.901C497.707 616.539 494.443 617.873 490.987 619.906C486.887 622.317 481.872 622.919 477.53 624.675C473.654 626.243 469.977 628.442 466.018 629.737C461.556 631.196 456.925 632.074 452.425 633.392C448.578 634.519 444.065 635.603 440.1 635.611C436.089 635.619 436.172 632.739 434.89 628.901C433.366 624.342 430.843 620.341 429.233 615.893C427.702 611.663 430.015 610.056 432.233 606.819C434.322 603.768 433.769 603.291 436.464 605.433C440.011 608.252 442.354 606.345 445.114 603.103C447.569 600.221 448.471 597.825 452.003 599.833C455.539 601.84 458.907 605.108 462.704 606.417C465.697 607.449 467.926 606.699 468.428 602.903C468.969 598.801 466.952 595.889 464.41 593.453C462.476 591.601 458.249 589.402 457.542 586.395C456.797 583.227 460.721 578.605 461.141 575.063C461.669 570.591 460.009 567.303 456.351 570.398C453.697 572.644 451.931 577.514 448.247 577.816C449.27 572.838 451.49 568.414 453.394 563.851C454.989 560.033 456.357 555.696 460.641 555.271C462.031 555.133 462.934 555.301 464.258 555.024C466.008 554.659 468.382 554.369 470.253 553.821C474.653 552.531 478.54 548.59 482.591 546.331C483.521 549.231 485.164 557.49 488.948 552.668C491.746 549.101 488.646 542.962 491.224 538.994C496.542 530.807 508.125 536.819 515.111 532.597C518.152 530.759 520.629 524.899 516.34 523.132C513.834 522.099 506.598 525.91 505.091 523.101C504.016 521.097 508.52 513.269 509.064 511.118C510.758 504.421 510.483 497.469 510.483 490.571C513.883 492.185 518.185 495.961 521.849 496.478C525.615 497.009 526.277 491.878 525.291 488.508C523.93 483.866 519.397 480.061 516.29 477.07C514.919 475.752 511.333 473.63 510.582 471.626C509.806 469.556 510.917 468.554 511.788 466.755C513.147 463.944 516.442 456.679 512.857 454.046C509.559 451.623 507.709 458.414 505.608 459.866C502.043 462.331 500.821 456.685 499.403 453.81C496.831 448.593 493.265 443.937 490.065 439.242C487.15 434.969 485.355 432.077 484.93 426.632C484.608 422.507 483.88 419.315 488.073 418.377C495.506 416.717 506.388 420.81 512.425 413.794C515.592 410.116 513.33 406.313 509.332 406.502C504.079 406.751 499.086 407.051 493.8 406.557C490.99 406.295 485.115 407.086 483.697 403.727C481.87 399.401 484.967 392.451 481.604 388.66C477.312 383.818 476.26 394.759 476.118 397.78C476.013 399.981 476.499 403.331 475.319 405.235C474.217 407.011 472.203 406.985 470.574 407.628C466.472 409.245 464.352 415.093 469.795 416.33C471.626 416.747 474.18 416.142 475.702 417.717C477.295 419.364 476.687 422.294 476.836 424.515C473.023 419.388 465.096 421.66 459.932 419.756C457.213 418.753 456.753 417.417 455.609 414.362C454.225 410.664 451.069 405.989 450.948 401.9C450.846 398.429 453.338 395.817 454.501 392.824C455.499 390.257 456.402 386.079 456.255 383.197C455.898 376.248 445.092 383.342 442.865 386.001C438.825 390.826 433.845 397.068 436.034 403.902C437.988 410.001 439.025 413.459 432.247 412.98C429.766 412.804 424.555 413.374 422.63 412.159C421.201 411.257 421.738 409.64 421.691 407.296C421.651 405.266 421.783 402.189 420.66 400.415C416.707 394.175 415.782 409.702 413.562 411.385C410.094 414.015 402.752 411.258 403.318 419.065C403.814 425.895 411.772 423.106 413.974 428.982C415.034 431.814 414.809 435.109 416.144 437.841C418.047 441.734 420.389 441.527 421.651 437.468C422.537 434.617 421.356 431.686 422.037 428.996C423.021 425.106 427.707 425.466 430.59 425.026C434.094 424.492 437.148 423.468 440.48 422.218C444.592 420.675 444.369 423.208 445.038 426.877C445.815 431.133 447.002 435.236 447.73 439.556C448.408 443.581 450.208 447.916 450.502 451.945C450.725 455.025 449.826 454.744 447.627 456.521C445.224 458.464 442.578 463.513 439.79 464.344C435.595 465.593 431.366 454.468 427.55 460.161C425.91 462.604 426.544 467.807 427.711 470.332C429.25 473.669 432.08 474.517 429.709 478.339C427.925 481.209 425.684 483.433 425.517 487.296C425.361 490.882 427.462 494.275 430.75 493.221C433.405 492.372 434.975 489.216 436.986 487.3C440.457 483.993 443.307 487.057 446.86 488.928C449.657 490.402 454.797 491.363 456.2 494.828C457.981 499.226 455.698 500.925 452.389 499.675C453.678 504.591 451.981 507.447 451.516 512.529C451.139 516.643 450.324 520.405 449.805 524.382C449.114 529.692 449.041 529.116 444.331 529.297C440.329 529.45 436.438 529.325 432.441 529.122C428.92 528.942 426.524 529.312 426.366 524.382C426.295 522.207 427.478 514.831 423.782 515.716C420.527 516.496 421.465 523.235 420.376 525.767C418.801 529.433 416.137 528.313 413.173 529.218C410.158 530.139 407.721 532.722 408.498 536.711C409.329 540.972 412.695 540.675 415.621 541.66C420.126 543.177 419.138 550.866 421.767 555.042C422.841 556.746 423.97 558.467 425.772 557.068C429.076 554.503 425.957 548.237 426.83 545.093C427.748 541.786 430.844 542.463 433.77 542.034C438.089 541.402 442.61 538.985 446.912 539.015C446.088 541.895 443.776 543.57 442.944 546.602C442.498 548.229 442.914 551.264 442.295 552.609C441.629 554.053 439.53 554.485 438.662 556.494C437.526 559.125 437.175 561.943 435.845 564.519C432.702 570.612 429.994 576.841 426.653 582.872C423.203 589.1 419.485 595.027 415.145 600.425C410.934 605.665 409.678 603.127 406.06 598.845C404.587 597.102 401.459 595.084 401.049 592.482C400.645 589.916 402.475 587.822 403.477 585.733C404.805 582.965 407.203 578.199 406.619 574.877C405.522 568.637 400.713 574.382 398.89 576.718C395.707 580.798 393.927 585.088 389.115 581.865C386.035 579.802 382.15 574.153 378.107 576.242C374.427 578.144 375.458 583.638 377.722 586.425C378.99 587.986 380.798 588.88 382.143 590.342C385.039 593.491 383.4 594.346 382.077 597.874C380.995 600.763 380.839 606.44 382.833 608.845C386.758 613.578 389.793 604.031 393.435 603.837C395.162 603.745 402.339 609.209 402.851 611.175C403.749 614.627 396.006 618.748 393.949 620.368C389.163 624.135 383.949 627.975 378.566 630.473C372.213 633.422 376.948 624.132 373.475 621.045C368.958 617.029 368.609 628.03 368.146 630.763C366.914 638.032 360.294 638.221 354.954 640.024C351.554 641.172 348.152 642.39 344.717 643.389C341.802 644.236 338.539 644.216 335.713 645.265C333.235 646.185 331.539 648.052 328.767 648.074C327.867 648.081 327.083 647.727 326.214 647.703C324.461 647.653 322.855 648.816 321.179 648.695C318.393 648.494 319.606 647.475 318.636 645.22C317.726 643.105 315.41 642.326 313.608 641.665C308.441 639.771 304.14 641.431 303.39 633.811C303.16 631.472 303.464 621.864 299.627 622.987C295.144 624.296 299.089 635.716 296.306 638.577C294.953 639.97 292.909 639.275 291.277 639.687C288.598 640.362 287.424 642.708 284.491 642.551C282.017 642.419 279.714 641.145 277.557 639.88C274.344 637.993 270.509 636.743 267.829 633.864C264.155 629.917 262.543 623.772 260.978 618.437C258.674 610.578 257.692 602.746 257.321 594.505C257.192 591.633 256.14 589.606 255.7 586.971C255.233 584.167 256.614 583.605 256.933 580.949C257.241 578.367 257.092 575.609 257.56 572.843C258.232 568.864 258.468 564.795 259.121 560.805C260.201 554.206 261.838 547.652 263.183 541.113C263.6 539.081 264.357 532.569 266.518 531.944C268.113 531.483 271.795 534.236 273.273 535.045C276.196 536.644 278.708 538.852 281.835 539.96C283.448 540.531 285.484 540.475 286.543 542.212C288.217 544.962 286.864 550.347 287.557 553.596C288.406 557.575 291.218 559.267 293.483 555.271C294.69 553.141 294.369 550.6 294.53 548.246C294.762 544.85 294.814 544.029 297.981 544.258C301.19 544.491 304.322 545.897 307.612 546.067C310.579 546.22 313.559 546.125 316.523 545.937C323.719 545.481 330.302 544.122 337.051 541.151C341.622 539.137 346.924 534.736 351.962 534.891C359.074 535.11 357.149 542.747 358.123 548.46C358.716 551.937 363.729 562.612 365.655 553.949C366.607 549.664 363.434 543.416 365.314 539.546C367.535 534.973 375.697 538.768 379.411 537.708C382.416 536.851 387.438 531.909 385.316 527.645C384.311 525.624 382.359 526.008 380.617 525.856C377.318 525.57 374.041 525.048 370.768 524.49C368.908 524.171 366.062 523.986 365.318 521.506C364.687 519.402 367.648 513.944 368.291 511.931C370.417 505.265 371.183 499.844 371.191 492.574C371.194 489.299 371.379 485.842 370.925 482.602C370.758 481.415 369.221 477.539 369.941 476.404C370.908 474.877 372.888 476.815 373.682 477.959C375.261 480.238 374.712 480.056 373.815 482.416C372.494 485.89 369.926 493.174 374.281 495.848C378.835 498.644 380.48 489.195 384.795 490.231C386.806 490.714 388.792 493.782 390.412 495.215C392.31 496.894 394.359 498.674 396.59 499.704C400.248 501.393 404.36 500.127 402.882 494.789C401.716 490.58 398.028 487.059 395.391 484.075C391.19 479.321 391.38 477.324 394.283 471.725C395.497 469.381 400.162 459.431 394.755 458.622C391.894 458.193 388.8 463.575 387.288 465.635C384.693 469.169 383.206 470.686 379.346 467.848C375.574 465.075 373.822 462.756 369.258 462.501C364.009 462.207 361.647 453.056 358.863 448.357C351.302 435.592 339.725 429.279 329.964 419.498C325.207 414.732 321.995 408.496 318.378 402.628C316.655 399.834 314.431 397.512 313.028 394.467C312.145 392.552 309.753 387.936 310.375 385.676C311.15 382.863 315.334 381.127 317.074 379.14C318.535 377.473 319.314 375.394 321.612 376.031C323.657 376.598 325.499 379.809 327.171 381.22C328.811 382.604 330.662 383.889 332.482 384.923C335.773 386.796 339.746 387.797 339.939 382.102C340.107 377.176 336.234 371.9 333.435 368.577C331.398 366.158 328.313 364.055 328.717 360.214C328.916 358.309 330.311 354.919 331.125 353.321C333.931 347.822 342.499 351.177 347.155 351.53C352.764 351.956 358.948 350.863 363.407 355.466C364.86 356.968 368.231 359.917 368.945 362.007C369.775 364.44 368.419 365.533 367.665 367.888C366.69 370.93 366.019 376.938 368.826 379.036C373.51 382.536 375.951 372.152 380.82 374.424C385.437 376.578 388.665 382.77 393.936 383.751C400.833 385.033 396.905 375.116 394.519 372.198C391.423 368.415 385.42 364.503 387.385 358.91C387.947 357.311 389.23 353.976 390.383 352.984C392.643 351.04 396.285 352.108 398.871 352.139C405.4 352.22 411.563 351.597 417.961 350.273C419.89 349.874 420.328 349.557 421.688 351.224C423.57 353.53 424.559 356.535 426.748 358.801C423.585 362.755 418.897 367.423 421.096 373.509C422.988 378.746 427.135 376.177 429.942 373.379C431.259 372.065 432.62 369.285 434.367 368.758C436.634 368.073 439.182 370.462 441.038 371.675C443.824 373.496 449.781 378.895 452.945 375.708C457.13 371.492 452.178 365.149 449.296 362.545C447.552 360.971 445.229 359.847 443.762 357.904C441.809 355.317 442.955 354.937 444.138 352.606C446.303 348.342 445.509 342.848 448.973 339.516C450.893 337.668 453.639 336.507 455.832 335.152C457.991 333.818 460.307 331.172 462.425 330.156ZM497.716 346.744C496.873 346.145 496.031 345.547 495.189 344.948C497.114 343.859 498.385 343.989 497.716 346.744ZM544.188 398.569C544.528 396.578 545.851 393.018 547.673 394.88C548.847 396.076 547.565 400.57 550.357 399.327C550.5 402.19 548.662 401.947 551.373 404.494C547.952 404.034 543.23 404.214 544.188 398.569ZM411.396 639.905C412.257 637.224 412.25 633.067 414.902 635.517C415.041 632.271 414.378 621.974 419.46 622.392C421.532 622.563 421.51 624.682 422.057 626.519C423.012 629.722 424.625 632.641 425.982 635.625C420.94 635.862 415.893 637.2 411.396 639.905ZM413.047 676.912C415.929 679.437 417.374 676.455 420.094 675.368C422.604 674.363 425.211 674.965 427.993 674.252C431.443 673.368 435.506 673.502 438.877 673.468C439.707 673.459 441.444 673.612 442.283 673.724C443.812 673.927 443.675 674.294 445.258 674.788C445.869 674.625 446.487 674.505 447.11 674.432C447.873 674.393 448.475 674.76 448.917 675.531C450.339 676.082 450.857 675.715 452.22 676.101C455.466 677.02 457.888 679.288 460.007 682.294C464.323 688.415 464.451 697.612 464.352 705.187C464.324 707.345 464.182 709.491 464.388 711.643C464.576 713.616 465.778 716.599 465.287 718.561C464.542 721.531 462.237 720.863 459.552 720.995C457.972 721.074 456.394 722.256 455.137 722.361C453.921 722.463 453.431 721.942 452.199 721.623C448.988 720.789 445.197 721.978 442.029 722.992C438.777 724.033 435.927 725.06 432.63 725.796C430.484 726.275 428.554 726.548 426.39 726.862C424.616 727.119 423.85 728.203 422.302 728.649C420.809 729.078 419.353 728.435 417.847 728.773C415.793 729.234 414.362 730.981 412.491 731.852C409.912 733.051 405.79 731.258 404.647 734.957C404.199 731.39 401.25 732.359 399.054 732.044C395.435 731.524 391.87 729.64 388.39 728.44C385.536 727.456 375.669 718.385 373.78 722.066C373.782 721.694 374.125 719.586 373.827 719.343C372.774 718.484 372.783 718.956 371.65 718.418C369.915 717.596 369.185 716.853 367.945 715.467C365.439 712.665 362.065 711.2 359.425 708.657C352.791 702.271 350.52 689.115 348.902 679.958C346.785 684.31 347.564 678.725 347.93 676.859C348.796 672.455 347.682 670.284 347.431 666.03C347.198 662.117 348.737 661.343 351.782 660.934C355.535 660.43 359.147 659.725 362.822 658.639C366.332 657.601 369.77 656.431 372.937 654.367C375.836 652.479 378.877 651.736 381.841 650.083C385.109 648.26 388.314 646.342 391.612 644.566C393.098 643.766 399.643 638.038 400.779 638.386C403.112 639.103 400.91 643.841 400.199 645.084C398.371 648.277 395.372 649.758 392.666 651.768C390.224 653.579 382.821 662.16 390.337 661.299C395.317 660.729 398.691 654.675 401.877 661.574C403.002 664.011 404.656 665.966 403.363 668.484C401.558 671.996 396.35 673.67 393.619 676.034C391.292 678.049 386.531 687.546 391.329 688.565C392.708 688.857 394.834 688.479 395.86 687.235C396.552 686.396 396.503 684.671 397.203 684.097C398.194 683.283 400.12 684.291 401.252 683.845C402.865 683.208 403.243 682.188 403.835 680.391C405.557 681.302 405.582 682.525 407.548 681.349C408.2 680.959 408.44 679.529 409.195 679.147C410.209 678.634 410.51 680.316 411.067 680.067C412.574 679.397 412.569 678.641 413.047 676.912ZM309.683 648.976C306.796 649.227 303.642 649.497 301.177 647.362C304.172 647.571 306.813 648.355 309.813 647.638C311.006 647.353 312.915 646.046 314.138 646.501C318.48 648.116 310.84 648.875 309.683 648.976ZM301.664 354.306C301.621 353.127 300.759 337.275 305.428 343.502C306.705 345.206 305.327 347.487 305.145 349.371C304.838 352.546 305.798 355.728 307.24 358.401C308.585 360.894 311.097 363.077 310.721 366.329C310.391 369.182 307.909 371.617 306.686 373.984C303.678 368.486 301.905 360.922 301.664 354.306ZM291.402 187.944C280.584 189.263 269.821 191.6 259.391 195.206C249.149 198.747 239.603 204.282 229.98 209.584C227.997 199.734 225.92 189.91 223.961 180.053C223.019 175.308 222.118 170.552 221.236 165.791C220.608 162.406 218.324 156.095 219.277 152.765C219.783 151.001 220.451 150.994 221.539 149.904C222.203 149.239 223.361 147.613 224.049 147.265C225.727 146.419 230.035 145.677 231.751 145.798C233.316 145.907 234.134 146.628 235.743 146.106C237.114 145.662 238.265 144.439 239.551 143.768C242.824 142.061 246.909 141.489 250.409 140.586C253.777 139.717 257.254 139.524 260.631 138.663C263.588 137.908 264.994 135.383 267.516 135.474C274.08 135.712 281.339 134.82 287.852 133.001C295.159 130.96 303.109 131.354 310.606 131.136C313.592 131.049 315.692 130.269 315.707 134.126C315.724 138.834 314.103 144.118 313.277 148.714C311.442 158.903 309.889 168.807 309.195 179.154C308.849 184.329 307.019 183.967 303.393 185.554C299.357 187.32 295.694 187.421 291.402 187.944ZM234.525 292.48C237.191 292.936 236.885 284.479 237.08 282.76C243.435 296.662 250.593 310.041 256.192 324.398C257.501 327.756 258.689 331.191 260.072 334.508C261.018 336.779 263.136 339.828 263.085 342.469C263.031 345.226 261.112 346.258 259.088 347.28C256.902 348.384 256.048 348.935 254.507 347.658C252.642 346.112 251.084 341.349 249.933 339.052C248.173 335.547 246.489 331.991 244.766 328.462C241.645 322.064 237.962 315.939 235.398 309.222C232.995 302.93 229.36 297.516 226.771 291.336C224.207 285.214 220.697 279.411 217.749 273.42C220.71 271.991 224.4 268.421 227.764 268.619C231.238 268.824 231.153 272.714 231.304 275.955C231.463 279.396 230.47 291.784 234.525 292.48ZM243.06 355.288C241.475 357.469 237.901 358.751 235.708 359.961C232.672 361.636 229.563 363.126 226.542 364.836C216.628 370.447 206.754 375.584 196.655 380.737C191.433 383.4 186.276 386.232 181.182 389.204C178.513 390.762 172.633 396.219 169.562 396.358C166.042 396.516 165.96 388.272 165.184 385.179C164.532 382.591 163.323 380.577 162.51 378.125C162.178 377.121 162.436 376.362 161.93 375.37C161.355 374.239 159.744 373.328 158.915 372.352C155.397 368.208 152.481 362.932 149.51 358.263C146.788 353.986 142.145 348.632 140.839 343.39C138.272 333.088 153.187 327.385 158.894 323.245C168.885 315.998 178.925 308.553 188.45 300.501C192.788 296.833 197.036 293.02 201.396 289.384C203.431 287.689 209.07 281.09 211.681 283.441C212.654 284.317 212.672 286.739 213.078 288.009C213.965 290.783 215.311 293.206 216.675 295.694C217.886 297.898 219.608 300.177 220.365 302.636C221.268 305.569 221.225 307.23 222.877 309.86C225.88 314.644 227.299 320.163 230.091 325.04C232.784 329.743 235.37 333.212 237.131 338.466C238.142 341.477 239.735 344.149 241.144 346.919C241.807 348.226 242.501 349.512 243.095 350.866C244.16 353.285 244.536 353.255 243.06 355.288ZM157.839 395.529C155.933 397.112 153.128 394.453 151.279 394.416C150.475 394.4 149.677 395.127 149.139 395.107C147.524 395.051 146.204 393.793 144.718 393.206C137.853 390.498 129.669 390.394 123.804 384.894C112.154 373.966 117.709 352.04 119.83 337.836C120.263 334.939 121.04 330.928 119.023 328.556C116.811 325.955 113.485 327.507 111.461 329.611C109.383 331.767 107.972 334.789 106.245 337.308C103.495 341.32 100.494 345.112 97.4625 348.836C86.6911 362.066 75.2847 377.204 61.9603 386.913C56.418 390.952 51.4026 396.425 45.3283 399.503C38.0219 403.206 45.5226 388.913 46.8365 386.59C55.4357 371.392 67.9546 359.36 78.4692 346.018C80.4532 343.5 83.2709 340.105 83.3061 336.478C83.3598 331.031 79.2114 331.52 75.932 333.032C72.8645 334.447 71.3272 337.968 68.8595 340.373C65.7867 343.368 62.1969 345.797 58.7767 348.214C51.4008 353.427 43.5703 357.802 35.7644 362.068C32.1129 364.063 28.4439 366.015 24.7748 367.968C23.7679 368.504 17.749 372.933 18.0366 369.137C18.0761 368.626 21.9158 363.217 22.3898 363.016C24.7537 362.014 25.926 365.039 28.0297 361.074C29.5247 358.258 29.7323 356.796 31.8429 354.659C32.2017 354.297 32.4489 353.377 32.74 352.781C32.7039 353.006 34.308 351.196 34.0011 351.51C34.4223 351.079 35.0344 350.287 35.3765 349.77C37.0264 347.271 40.1976 347.223 41.632 344.368C42.179 343.28 41.8686 341.886 42.5281 340.806C43.4516 339.292 45.4839 338.648 46.5683 337.316C47.4979 336.172 48.2639 335.238 48.8408 334.538C49.2383 334.056 49.9357 333.718 50.4062 333.167C51.5758 331.794 51.4844 330.577 53.1219 329.423C54.5923 328.387 55.2686 329.357 55.7769 326.791C57.5666 328.122 57.3423 326.175 58.0688 324.78C59.0133 322.966 60.2128 322.157 61.5144 320.845C64.3779 317.956 67.0619 313.656 69.4989 310.019C75.5573 300.976 80.4585 290.402 82.2631 279.055C82.6949 276.342 82.9332 273.601 83.1047 270.85C83.1962 269.404 82.789 265.881 83.562 264.463C84.7607 262.265 87.0367 263.137 88.7692 262.175C89.3575 261.848 89.938 260.884 90.4903 260.665C91.2624 260.359 92.2078 260.658 93.009 260.363C93.3203 260.248 93.3924 259.186 93.9078 259.05C94.9174 258.781 95.9208 259.207 96.919 259.224C99.1035 259.257 101.261 258.811 103.356 258.003C105.261 257.269 106.857 255.584 108.758 254.977C108.564 255.04 111.892 255.346 111.713 255.13C111.872 254.179 112.031 253.228 112.19 252.277C113.454 253.3 117.764 254.651 119.1 254.417C121.249 254.041 120.796 251.794 122.617 254.744C123.649 253.702 124.679 252.659 125.71 251.616C126.491 255.417 131.87 253.572 134.308 253.782C137.744 254.079 140.45 253.331 143.58 254.718C147.388 256.407 150.728 258.188 154.828 258.649C157.695 258.969 158.886 260.532 161.693 261.496C165.466 262.792 165.764 264.22 164.584 268.692C163.627 272.317 162.801 275.113 164.198 278.832C166.678 285.428 173.416 288.145 177.761 292.704C167.584 300.989 157.535 309.14 147.697 317.968C143.575 321.666 139.191 325.371 136.844 330.934C134.679 336.069 133.45 342.239 132.148 347.736C129.159 360.339 137.577 368.82 146.226 374.363C148.015 375.51 160.341 393.454 157.839 395.529ZM141.054 410.762C140.445 408.338 140.525 407.692 142.543 406.822C143.306 406.493 146.233 406.063 146.706 407.278C147.779 410.036 142.143 410 141.054 410.762ZM226.813 235.122C227.536 240.5 228.248 245.88 228.893 251.27C229.249 254.249 230.056 256.883 228.143 259.13C227.057 260.405 224.42 260.881 223.033 261.561C221.031 262.541 219.081 263.665 217.156 264.834C213.725 266.918 210.138 268.174 206.752 270.053C205.279 270.869 204.405 272.478 203.13 273.587C201.385 275.106 199.262 275.845 197.462 277.289C194.244 279.873 191.295 282.931 188.078 285.532C184.435 288.478 183.676 287.532 181.629 283.177C179.792 279.268 177.588 277.484 174.942 274.42C173.914 273.228 170.232 266.436 173.359 265.851C174.16 265.701 176.929 267.097 177.556 267.544C178.509 268.223 180.032 272.079 180.807 272.144C182.203 272.263 183.991 267.653 184.861 266.439C190.561 258.48 196.832 250.607 203.439 243.644C206.862 240.035 210.459 236.747 214.341 233.834C217.102 231.763 219.511 228.86 222.232 226.896C222.808 226.318 223.46 225.904 224.192 225.657C225.612 224.908 226.145 225.554 225.792 227.594C226.606 229.589 226.518 232.92 226.813 235.122ZM102.115 228.074C103.501 226.438 105.251 225.129 106.459 223.304C107.141 222.274 107.59 220.431 108.37 219.765C109.728 218.605 111.671 219.14 113.25 217.584C114.776 216.081 116.115 214.28 117.605 212.72C120.835 209.34 124.168 206.233 127.336 202.792C129.136 200.837 131.025 198.299 132.625 197.008C133.049 196.666 133.524 196.156 133.975 195.893C134.939 195.33 135.419 195.903 136.826 195.378C137.757 195.032 138.421 193.666 139.167 193.019C140.941 191.482 143.253 190.873 144.961 189.394C146.669 187.915 147.49 185.618 149.841 184.384C152.684 182.892 154.815 184.071 156.871 181.218C157.709 180.056 157.938 178.59 159.254 177.857C160.839 176.972 162.232 177.911 163.746 176.906C164.766 176.227 165.464 174.805 166.518 174.064C168.404 172.739 170.491 172.599 172.255 170.96C173.744 169.578 172.918 169.719 174.681 169.135C175.456 168.879 176.316 168.769 177.143 168.441C179.794 167.392 184.123 166.108 185.692 163.191C186.489 164.54 186.763 164.813 188.056 164.395C188.734 163.754 189.357 163.049 189.924 162.28C190.34 162.89 190.787 162.927 191.263 162.389C194.06 161.274 196.627 159.358 199.382 158.294C199.772 158.539 200.163 158.784 200.552 159.028C201.096 159.063 201.316 158.755 201.213 158.103C202.297 157.874 203.546 157.321 204.545 156.816C206.461 155.848 208.576 153.548 210.832 154.371C214.601 155.746 214.781 164.661 215.431 168.194C217.033 176.903 218.646 185.606 220.255 194.312C220.91 197.855 221.485 201.424 222.347 204.907C222.91 207.183 224.311 210.538 223.806 212.958C223.185 215.925 220.69 216.891 218.603 218.263C215.727 220.153 212.947 222.251 210.225 224.428C198.671 233.673 190.057 246.386 181.865 259.428C180.347 256.87 176.282 253.278 173.748 252.124C171.973 251.317 170.376 251.968 168.609 250.983C167.349 250.281 166.303 248.907 165.112 248.022C157.837 242.618 149.057 238.151 140.625 236.007C123.324 231.605 106.387 238.42 89.6117 241.654C93.016 236.226 98.1054 232.804 102.115 228.074ZM217.921 80.7732C220.881 69.581 225.866 58.7452 232.962 50.3488C236.54 46.1158 240.745 42.416 245.458 40.0626C249.558 38.0166 254.434 36.0544 254.371 42.6336C254.232 56.9168 251.388 71.0376 251.04 85.3432C250.702 99.3619 252.725 110.614 260.04 121.911C255.405 123.159 250.773 124.426 246.156 125.754C242.65 126.762 239.014 127.894 235.697 128.586C232.417 129.269 229.402 129.715 226.159 131.001C223.974 131.867 220.549 134.516 218.184 133.941C214.253 132.986 215.184 116.629 214.982 112.698C214.414 101.6 215.097 91.4547 217.921 80.7732ZM289.767 102.323C295.138 94.7622 300.718 85.9408 309.754 84.5363C318.49 83.1787 321.71 95.3322 321.155 103.526C320.966 106.3 320.611 113.5 318.874 115.746C316.953 118.231 313.543 116.358 311.102 115.975C300.565 114.32 289.762 117.082 279.197 117.082C282.72 112.161 286.261 107.259 289.767 102.323ZM333.002 132.478C336.666 133.087 339.593 133.735 337.824 138.574C334.281 148.266 331.559 157.516 334.664 168.081C337.035 176.15 344.542 185.945 352.044 187.562C354.673 188.128 358.628 187.114 360.243 190.211C361.682 192.97 360.123 201.243 359.954 204.306C359.33 215.718 356.811 227.041 350.443 236.009C344.776 243.987 337.862 250.232 329.621 242.7C322.674 236.353 318.573 224.997 316.517 215.293C315.42 210.112 315.286 204.944 315.077 199.65C314.891 194.967 314.122 191.998 318.686 191.027C319.91 190.768 322.966 190.849 322.971 188.682C322.978 185.771 319.663 186.863 318.396 186.716C313.506 186.15 315.796 179.554 316.252 175.289C317.028 168.026 318.285 160.844 319.439 153.654C320.421 147.529 320.473 139.504 322.607 133.777C323.852 130.434 330.556 132.071 333.002 132.478ZM342.003 153.986C342.559 150.038 342.855 145.104 346.232 142.922C349.943 140.525 351.801 144.431 353.632 147.623C358.49 156.09 363.865 164.014 364.661 174.526C364.756 175.779 365.219 178.296 364.178 179.163C363.713 179.551 362.602 178.53 361.883 178.59C358.036 178.911 355.253 180.107 351.48 177.587C344.099 172.655 340.661 163.512 342.003 153.986ZM371.026 177.631C370.233 168.44 366.573 160.288 362.484 152.528C360.469 148.702 356.554 144.519 355.164 140.477C354.418 138.311 355.737 135.63 358.447 136.559C359.797 137.021 362.397 141.174 363.299 142.611C365.617 146.303 367.538 150.422 369.372 154.455C371.332 158.763 376.903 174.578 371.026 177.631ZM346.726 86.1022C347.155 77.4544 347.198 67.5237 352.027 60.3469C355.77 54.7819 362.621 52.359 368.18 50.2078C375.669 47.3089 384.664 46.8615 392.495 47.7982C399.388 48.6235 404.591 54.0669 408.844 60.0527C413.17 66.1396 416.521 73.9774 419.496 81.0602C420.241 82.8325 426.555 94.2024 422.284 93.9379C420.591 93.8326 419.117 89.996 417.82 88.8632C416.804 87.9756 415.6 88.0859 414.689 87.376C413.712 86.615 413.923 85.9112 413.165 84.9714C407.949 78.5096 403.149 82.2308 397.523 85.6344C397.26 83.38 397.721 79.192 396.095 77.5443C393.969 75.388 391.747 78.8038 390.222 80.479C388.833 82.0051 387.122 84.7855 385.372 85.6109C383.102 86.6824 383.874 85.5434 381.901 84.6435C377.93 82.8315 374.875 88.1942 372.868 91.3127C372.118 92.4761 370.893 95.4129 369.552 95.7275C368.255 96.0308 368.085 94.9593 366.967 94.563C363.805 93.4445 362.93 96.0605 361.922 99.3087C360.788 102.962 359.824 106.48 358.146 109.892C355.178 115.929 353.902 117.915 356.25 124.581C352.821 125.171 352.101 125.645 350.401 122.116C348.65 118.479 348.195 115.461 348.305 111.28C348.535 102.537 346.285 94.9838 346.726 86.1022ZM426.326 127.475C429.916 134.995 432.197 145.46 432.16 154.028C432.14 158.278 431.926 163.506 430.215 167.362C428.573 171.062 425.137 172.915 421.972 174.491C414.343 178.292 405.748 178.248 397.727 176.553C393.564 175.673 389.514 176.242 385.951 173.34C383.271 171.155 380.037 169.033 379.251 165.028C378.923 163.352 379.43 161.946 379.324 160.302C379.455 159.519 379.406 158.756 379.179 158.01C378.711 157.698 378.239 157.393 377.763 157.097C377.389 155.848 378.106 154.456 377.923 153.151C377.701 151.576 376.574 150.294 376.047 148.866C374.596 144.931 375.632 142.728 378.348 140.055C378.998 139.462 379.653 138.874 380.31 138.292C380.901 137.208 381.554 137.204 382.268 138.278C383.562 138.298 383.524 138.761 384.884 138.301C387.865 137.294 390.365 133.616 393.285 132.324C394.419 131.821 396.111 132.248 397.033 131.322C397.856 130.493 397.327 128.757 398.05 127.944C400.359 125.346 403.993 127.809 406.129 124.032C407.872 120.952 407.503 116.58 407.681 113.081C413.033 114.268 415.352 120.217 419.749 123.21C420.619 119.3 420.745 119.416 424.103 118.343C422.582 121.606 425.041 124.783 426.326 127.475ZM430.423 85.9622C431.409 87.4352 432.161 91.0931 430.423 91.4465V85.9622ZM434.991 99.2668C443.163 99.2863 448.386 111.269 450.772 118.692C453.366 126.765 456.098 137.531 451.258 145.393C449.402 148.408 447.125 148.684 444.138 148.293C440.54 147.822 438.695 147.219 440.104 142.758C442.742 134.399 440.757 123.773 436.081 116.776C442.512 115.335 438.435 108.492 435.208 105.931C431.438 102.941 428.391 99.2505 434.991 99.2668ZM248.425 532.466C246.502 538.382 244.548 544.278 242.935 550.373C241.406 556.147 242.292 562.655 240.391 568.207C239.221 567.536 238.886 566.344 237.87 565.62C237.243 565.172 236.151 564.995 235.613 564.501C234.689 563.656 232.445 560.504 231.838 559.283C229.738 555.054 231.139 548.181 232.261 543.835C233.65 538.453 236.024 533.285 239.211 529.045C241.447 526.073 242.68 527.019 245.67 528.483C247.437 529.348 249.258 529.901 248.425 532.466ZM233.86 579.132C232.325 582.736 229.487 585.706 227.801 589.339C226.032 593.152 224.692 597.449 222.436 600.936C220.139 604.491 218.075 603.897 214.913 605.43C213.777 605.979 213.3 607 212.386 607.795C210.673 609.285 208.795 610.2 206.993 611.526C205.713 607.88 201.8 589.583 196.822 589.975C192.494 590.315 194.708 599.894 195.266 602.722C195.737 605.109 196.277 607.533 196.994 609.838C197.719 612.166 199.977 615.653 199.142 618.204C198.08 621.447 195.438 621.234 194.116 618.868C193.009 616.89 192.447 614.201 191.632 612.048C190.915 610.155 187.639 599.795 184.806 601.402C182.078 602.95 186.321 612.993 187.032 614.966C188.747 619.729 192.036 624.307 187.689 628.125C181.091 633.919 172.966 638.282 165.574 642.46C161.259 644.898 157.38 648.105 152.851 650.084C148.644 651.923 143.784 652.236 139.717 654.35C138.716 654.871 139.387 655.518 137.926 655.821C136.7 656.073 134.558 655.394 133.243 655.408C131.066 655.432 128.884 655.625 126.711 655.307C125.487 655.128 122.7 653.572 123.14 656.141C121.409 655.584 120.739 653.556 119.475 652.29C118.349 651.16 116.911 650.548 115.655 649.661C113.057 647.827 111.113 645.737 110.334 642.242C108.504 634.036 112.373 625.495 117.148 619.774C119.888 616.492 123.103 613.763 125.617 610.229C126.499 608.988 127.126 607.547 128.246 606.54C129.616 605.305 131.496 605.152 132.823 603.902C133.811 602.972 134.106 601.49 135.141 600.636C136.672 599.375 138.464 599.898 139.91 598.243C140.735 597.297 143.566 592.843 143.368 591.609C144.143 591.911 144.92 592.212 145.695 592.513C146.166 589.769 150.247 586.383 152.26 585.069C153.278 584.404 155.261 584.436 156.018 583.721C157.026 582.768 156.944 580.772 157.743 579.577C160.036 576.152 164.835 574.615 167.871 572.23C171.735 569.194 175.487 565.756 178.977 562.163C186.031 554.902 192.25 546.464 197.33 537.247C199.377 533.534 201.275 529.747 202.733 525.678C203.63 523.173 204.525 518.719 206.74 517.267C209.028 515.766 214.283 517.798 216.846 518.012C220.61 518.327 226.477 518.132 229.85 520.277C233.457 522.571 230.525 524.468 228.668 527.203C225.952 531.205 224.323 536.105 222.966 540.907C221.921 544.599 221.726 548.174 221.043 551.898C220.321 555.833 220.328 561.148 221.999 564.765C223.656 568.345 235.589 575.082 233.86 579.132ZM91.5948 651.704C83.4917 638.907 90.2001 620.175 98.1265 609.834C107.69 597.357 121.302 590.34 132.483 580.193C145.411 568.461 158.69 557.562 170.146 543.8C175.953 536.826 181.009 529.308 185.593 521.202C189.485 514.32 192.309 505.152 200.173 504.157C195.534 510.864 195.263 520.526 191.677 527.993C187.881 535.9 182.283 542.477 176.582 548.554C164.545 561.388 151.545 573.145 138.543 584.615C131.907 590.469 125.454 596.588 118.841 602.47C112.918 607.74 106.696 612.247 103.283 620.277C97.3939 634.129 97.0421 654.652 110.083 663.186C103.364 661.632 95.8056 658.352 91.5948 651.704ZM798.092 74.6352C795.694 69.0713 791.201 67.0896 786.69 64.9129C782.274 62.7831 778.238 60.159 773.341 59.4776C771.163 59.1743 765.021 59.9271 764.735 56.2661C764.495 53.216 770.913 50.1547 772.392 47.8309C774.584 44.3865 776.074 38.7939 775.224 34.4435C774.417 30.3178 770.958 29.0144 767.728 28.2667C757.682 25.9428 747 27.6518 736.928 28.6068C738.161 26.6068 739.898 24.9663 740.887 22.571L742.484 26.4219C743.393 24.2196 744.379 22.0582 745.51 19.9959C746.275 20.9928 747.041 21.9908 747.805 22.9877C746.534 17.8099 750.811 17.8365 750.361 13.4717C750.186 11.7741 749.195 11.0304 748.952 9.66575C748.474 6.95274 750.279 5.25608 748.224 2.7402C745.937 -0.0616829 742.195 1.04967 739.532 1.31117C739.198 1.34488 738.714 2.112 738.282 2.17431C737.683 2.26215 737.338 1.30606 736.598 1.35714C734.613 1.49299 732.863 3.28158 730.889 3.825C721.745 6.34394 712.597 10.8364 703.819 15.0305C694.884 19.3002 686.112 24.2717 678.322 30.9725C669.984 38.1443 663.961 47.364 657.302 56.448C654.172 60.7167 650.934 64.8158 648.552 69.7342C647.32 72.2756 646.207 80.2584 643.991 81.4188C641.584 82.6792 635.532 79.1153 633.071 78.4575C627.277 76.911 621.51 76.2654 615.57 76.576C610.845 76.8211 605.861 76.6751 601.175 77.3451C598.455 77.7343 591.677 81.2349 591.242 85.1492C591.05 86.8887 592.768 88.3351 593.153 89.9654C593.736 92.4312 592.773 95.0431 593.444 97.514C594.812 102.552 601.165 104.406 604.908 105.992C615.358 110.423 625.951 113.859 636.509 117.825C641.097 119.549 645.02 122.294 649.175 125.05C652.622 127.334 655.766 129.619 652.285 133.908C648.987 137.971 649.398 139.611 650.381 145.208C651.417 151.116 651.776 157.088 653.126 162.938C654.47 168.763 656.982 174.328 656.493 180.492C656.003 186.635 653.811 192.946 651.762 198.576C649.692 204.264 647.407 209.884 645.157 215.48C643.076 220.657 640.824 225.905 636.01 228.115C626.818 232.332 615.076 231.663 605.497 230.132C594.624 228.394 583.393 225.446 573.11 220.946C563.224 216.62 552.349 209.985 544.173 202.144C539.805 197.957 535.075 194.854 530.439 191.106C525.741 187.308 522.174 182.187 518.058 177.639C509.992 168.727 500.062 162.586 489.841 157.686C478.351 152.178 466.488 152.75 454.313 152.154C456.229 147.787 458.696 143.612 459.601 138.75C460.544 133.685 459.861 128.183 459.264 123.123C458.104 113.275 455.907 104.608 450.548 96.655C448.097 93.0175 445.235 90.1819 441.153 89.6538C438.68 89.3331 434.109 91.5364 432.324 89.1063C431.538 88.0348 431.722 85.7814 431.227 84.4617C430.789 83.2901 429.907 82.1113 429.43 80.8386C427.386 75.3982 424.836 70.5902 422.29 65.4287C421.276 63.3766 420.492 60.3469 419.11 58.6196C418.359 57.6798 417.393 57.2529 416.972 56.5654C416.185 55.2794 415.823 52.928 415.167 51.4765C414.045 48.9923 412.617 46.6837 410.969 44.6337C408.334 41.3568 404.943 38.465 401.331 36.8327C399.325 35.9256 397.854 35.7111 395.759 35.8439C395.145 35.8827 394.462 36.2934 393.848 36.2392C392.379 36.1095 392.609 35.4987 391.432 35.2147C383.553 33.3117 372.988 35.9818 365.598 39.2597C357.813 42.7123 351.491 47.265 346.761 55.4459C335.14 75.5382 337.848 101.481 342.778 123.612C339.796 122.703 336.827 121.629 333.817 120.86C331.974 120.388 329.458 120.477 327.812 119.348C324.149 116.837 327.128 110.394 327.15 106.23C327.207 95.6519 322.903 79.1092 313.517 74.6413C303.736 69.9855 291.838 83.0541 285.792 90.4649C281.914 95.2188 278.387 100.342 274.675 105.268C272.082 108.71 268.657 114.199 264.111 113.299C254.194 111.338 257.218 89.4546 257.659 82.0582C258.355 70.3655 259.839 58.4858 259.847 46.7634C259.852 39.6377 258.789 30.0246 251.245 29.1891C240.863 28.0399 231.027 38.9941 224.972 47.4223C209.005 69.6463 205.477 99.0217 209.748 126.91C210.375 130.999 212.374 136.042 208.56 138.58C203.549 141.915 197.142 143.935 191.757 146.383C179.715 151.856 168.564 159.158 157.226 166.294C146.002 173.359 134.956 180.372 124.829 189.476C114.734 198.55 104.741 208.167 95.5444 218.455C90.9608 223.583 86.538 228.933 82.3651 234.516C78.4384 239.769 75.2574 245.734 70.9895 250.643C68.0847 253.986 62.7404 258.468 62.1019 263.567C61.5856 267.682 67.5703 270.535 70.271 272.437C72.1222 273.742 73.4053 273.702 73.539 276.027C73.7044 278.927 71.0695 283.574 70.1312 286.338C67.7409 293.392 64.6162 299.233 60.5092 305.103C51.4114 318.104 40.4175 329.127 29.9829 340.675C20.2871 351.407 10.7864 361.969 3.67968 375.284C1.93838 378.546 -2.39551 385.247 1.72292 388.3C2.7888 389.091 6.05945 389.716 7.14468 388.867C8.48934 387.815 7.80778 386.231 9.39693 385.176C8.99854 388.721 22.8788 381.794 23.9587 381.151C26.8758 379.418 29.5142 377.385 32.4963 375.831C34.2456 374.919 34.4575 373.649 35.8118 372.632C36.5356 372.088 36.5444 372.818 37.5136 372.48C38.386 372.173 40.4333 372.058 41.0841 371.082C41.1017 371.055 41.8123 368.695 41.2081 369.184C43.5729 367.274 44.9704 370.163 43.5509 372.876C39.3542 380.893 34.0477 386.791 32.4031 396.424C31.806 399.924 30.7867 406.419 32.6283 409.609C32.6951 409.725 33.3151 409.387 33.3907 409.511C33.4611 409.628 34.1365 410.717 34.4144 411.027C36.0414 412.833 35.9367 413.638 38.6524 413.562C39.8573 413.529 42.259 413.35 43.3619 412.719C44.1912 412.244 44.5966 411.074 45.2342 410.657C45.8797 410.234 45.8032 410.015 46.4091 409.769C46.5331 409.717 46.7715 410.946 47.0071 410.895C48.3008 410.612 48.8584 409.715 49.9577 408.993C53.1254 406.914 56.2307 404.628 59.2472 402.532C62.283 400.425 64.5511 397.485 67.5755 395.037C70.7881 392.436 73.4159 390.441 75.8871 386.832C77.5976 384.332 79.6388 383.422 80.7874 382.192C82.1505 380.73 84.4995 375.091 86.6964 374.42C87.6963 374.113 88.4966 375.141 89.0445 374.72C89.6618 374.247 88.9891 373.34 89.2986 372.807C89.8764 371.812 89.9485 371.646 90.9309 370.734C92.1893 369.567 93.7354 369.253 94.7916 367.732C95.9657 366.04 96.1266 364.142 97.5715 362.556C101.046 358.742 104.14 354.724 107.822 351.027C106.4 360.225 104.991 369.359 106.093 378.715C107.161 387.781 110.478 391.842 116.99 396.443C118.423 397.457 119.927 398.931 121.466 399.649C122.402 400.086 123.811 399.826 124.508 400.146C126.869 401.232 126.066 403.455 126.39 405.959C126.892 409.842 129.968 412.83 131.953 415.854C133.623 418.399 136.635 424.187 139.429 425.065C141.951 425.858 144.331 422.436 146.432 420.978C149.599 418.781 153.05 417.206 156.39 415.41C162.915 411.903 169.219 407.72 175.67 404.011C178.617 402.317 181.594 401.627 184.713 400.533C188.459 399.22 191.656 396.707 195.249 394.992C201.71 391.908 207.9 388.229 214.321 384.991C227.612 378.29 242.108 373.686 253.935 363.633C259.285 359.084 266.174 358.6 271.447 354.18C276.942 349.572 273.572 342.526 271.22 336.873C264.79 321.425 260.953 305.383 252.103 291.311C247.504 283.999 243.255 276.444 239.245 268.671C235.698 261.792 235.77 254.001 234.88 246.231C234.283 241.037 233.725 235.823 232.997 230.652C232.535 227.366 231.044 223.226 232.847 220.247C234.786 217.047 239.389 215.685 242.298 213.996C245.913 211.898 249.414 209.641 253.165 207.864C261.737 203.806 270.766 200.997 279.758 198.518C282.44 197.778 293.917 192.491 296.102 195.588C293.419 197.669 292.635 201.447 291.431 204.685C289.639 209.511 287.789 214.108 286.481 219.166C283.779 229.621 281.48 240.244 279.277 250.854C277.089 261.388 274.482 272.005 273.813 282.857C273.47 288.397 273.705 293.94 273.696 299.486C273.688 305.403 272.63 311.208 272.819 317.141C272.945 321.086 273.23 325.825 275.222 329.191C277.068 332.31 280.207 332.657 282.943 334.325C286.552 336.525 287.965 337.464 287.999 342.252C288.038 347.832 287.727 353.312 288.177 358.888C289.745 378.308 295.369 401.353 306.595 416.346C307.341 417.343 329.122 449.211 331.533 444.545C333.194 446.826 335.677 447.661 337.721 449.65C340.932 452.775 344.084 455.274 346.74 459.145C351.575 466.19 355.684 474.446 356.893 483.454C357.932 491.206 357.308 500.475 353.538 507.194C349.758 513.935 341.674 518.357 335.572 521.675C327.551 526.037 319.411 526.527 310.702 525.434C306.405 524.895 302.141 524.052 297.875 523.257C296.1 522.926 294.03 522.924 292.35 522.148C290.548 521.318 289.938 520.399 288.14 520.295C286.796 520.219 286.061 520.564 284.641 520.22C282.883 519.794 280.975 519.02 279.221 518.497C277.272 517.914 275.673 517.086 273.877 516.018C272.214 515.029 270.341 514.838 268.74 513.901C265.981 512.285 265.131 509.585 261.398 511.082C257.458 512.662 258.282 516.615 255.767 519.325C253.533 521.735 250.764 519.507 248.54 518.075C245.267 515.966 241.867 514.213 238.382 512.616C234.617 510.892 230.771 509.392 226.853 508.205C222.567 506.907 217.86 506.65 213.732 504.76C210.104 503.1 208.543 499.889 205.914 496.889C203.15 493.732 199.399 492.53 195.568 492.811C188.589 493.324 183.824 502.075 180.137 508.152C169.838 525.13 158.454 539.595 144.687 552.932C138.109 559.303 130.695 564.722 124.334 571.334C121.651 574.124 119.703 576.739 116.525 578.815C112.351 581.544 108.564 584.966 104.574 588.042C88.9671 600.073 77.5194 617.599 81.8357 640.484C83.7784 650.785 87.6585 658.016 94.9086 664.214C98.2003 667.028 101.212 669.368 105.406 669.206C109.365 669.052 112.858 668.892 110.526 663.428C113.481 664.489 115.954 667.108 119.179 668.449C122.896 669.994 127.731 670.956 131.677 671.05C137.995 671.2 145.427 667.336 150.96 665.697C152.507 665.241 155.487 664.491 157.25 662.804C158.651 661.463 158.347 659.876 160.468 659.24C163.248 658.405 164.307 659.381 166.969 657.426C170.832 654.59 175.02 652.905 179.027 650.292C184.424 646.769 189.613 642.799 194.961 639.172C195.673 641.452 199.863 654.996 202.45 648.467C204.702 642.782 197.392 637.915 201.836 632.16C206.075 626.672 206.962 632.442 211.074 634.99C216.783 638.527 215.927 631.92 214.267 628.007C213.603 626.442 212.208 624.083 212.618 622.257C213.412 618.732 215.87 620.801 217.803 621.16C220.846 621.727 223.307 620.756 225.593 618.387C227.499 616.411 230.65 614.706 231.803 612.102C232.379 610.798 232.48 609.008 232.959 607.624C233.591 605.799 234.042 606.242 234.272 603.979C234.051 602.809 233.964 601.624 234.008 600.424C234.509 600.307 235.007 600.19 235.506 600.072C235.521 599.989 235.556 597.706 235.355 598.047C235.821 597.261 236.822 596.928 237.398 595.838C237.928 594.835 237.435 592.913 237.648 591.729C238.079 589.332 239.255 587.399 240.215 585.262C242.248 595.236 241.659 605.638 243.601 615.618C245.196 623.811 248.829 631.155 253.066 637.874C255.029 640.987 257.629 643.196 259.685 646.156C261.425 648.659 262.294 650.865 264.862 652.345C266.57 653.327 268.492 653.834 270.253 654.683C271.378 655.226 273.94 657.727 274.996 657.683C274.076 657.722 276.725 657.817 276.111 657.695C276.157 657.704 275.797 656.357 276.117 656.379C279.957 660.597 283.968 660.607 288.412 663.228C290.448 664.43 291.21 664.355 293.38 664.799C296.192 665.375 298.558 667.236 301.25 667.434C305.395 667.739 310.063 668.385 314.385 668.207C315.561 668.158 317.77 667.28 318.692 668.473C319.301 669.259 318.146 674.953 318.073 676.256C317.313 689.927 318.888 704.278 323.861 716.787C327.984 727.159 332.38 739.429 339.672 747.349C347.755 756.128 359.078 762.315 369.889 764.683C381.859 767.304 393.724 765.341 405.731 764.526C417.914 763.7 429.184 761.695 440.933 757.599C451.859 753.79 462.207 748.825 472.661 743.588C479.772 740.027 488.787 734.902 485.06 724.093C484.158 721.479 480.663 714.211 477.571 717.796C474.835 720.969 479.408 726.973 481.479 728.988C465.877 741.61 446.943 745.785 428.687 750.255C418.66 752.711 408.782 752.607 398.584 752.642C389.943 752.67 381.301 752.958 372.715 751.558C364.948 750.291 355.904 747.915 350.123 741.328C344.077 734.436 338.355 726.207 334.228 717.609C329.699 708.173 328.601 697.971 328.234 687.329C328.042 681.727 327.825 676.055 328.33 670.467C328.698 666.409 330.483 665.927 331.368 662.722C333.415 666.048 334.762 664.819 337.276 662.875C338.899 668.136 338.176 673.601 337.897 679.026C337.625 684.311 338.233 689.669 338.79 694.917C339.736 703.839 343.421 713.143 348.096 720.326C350.21 723.574 353.377 724.944 356.243 727.187C359.896 730.047 363.684 732.709 367.498 735.275C374.679 740.107 382.517 744.238 390.61 744.966C393.447 745.222 395.508 746.936 398.887 746.696C400.893 746.554 402.913 745.757 404.914 745.82C406.921 745.884 408.643 746.628 410.704 746.455C419.266 745.735 428.093 742.482 436.571 740.694C445.75 738.76 454.986 736.676 463.748 732.857C467.545 731.201 470.68 729.066 472.799 724.907C474.313 721.935 473.916 716.606 476.738 714.828C474.89 712.064 475.577 711.575 477.173 709.104C477.918 707.951 480.323 704.9 477.406 704.955C478.292 700.502 476.81 696.195 476.177 691.839C475.905 689.957 475.979 687.107 474.975 685.487C474.389 684.543 473.416 684.525 472.892 683.829C472.351 683.815 471.928 683.554 471.625 683.046C471.589 682.302 471.888 681.849 472.524 681.686C472.377 680.213 473.317 680.742 472.377 678.44C471.096 675.297 468.665 672.561 466.363 670.424C464.402 668.602 462.957 665.369 460.693 664.398C457.747 663.133 454.657 661.76 451.561 660.586C444.542 657.924 437.586 656.907 430.221 658.382C426.849 659.058 423.526 659.887 420.269 661.097C418.363 661.804 415.448 663.716 413.76 661.655C413.18 660.949 411.969 654.943 412.045 654.295C412.348 651.69 416.932 650.639 418.605 649.73C421.161 648.341 425.894 646.855 427.518 644.098C428.199 642.943 427.429 638.034 427.541 637.946C428.614 637.108 433.115 649.028 434.341 649.841C436.114 651.017 441.094 649.463 442.927 649.229C448.394 648.532 453.952 648.136 459.307 646.623C469.575 643.722 479.658 639.235 489.651 635.27C508.662 627.726 527.016 617.784 544.106 605.436C552.088 599.668 560.017 592.296 566.092 583.921C568.83 580.143 570.766 575.663 573.562 571.959C576.79 567.686 575.772 563.831 577.219 558.479C580.148 547.646 583.703 537.805 585.298 526.453C586.939 514.764 587.616 502.829 587.161 490.996C586.262 467.607 585.284 445.432 576.423 423.941C568.302 404.247 557.78 385.005 545.271 368.699C542.362 364.91 539.29 361.3 535.717 358.352C531.872 355.177 527.639 352.688 524.157 348.938C521.301 345.861 518.911 342.237 515.923 339.316C512.255 335.733 507.892 334.149 503.596 331.86C499.477 329.667 495.721 326.815 491.51 324.818C488.947 323.605 486.351 322.484 483.679 321.636C481.705 321.01 479.081 320.971 477.276 319.781C474.419 317.899 471.496 312.421 469.63 309.327C466.907 304.812 465.432 299.559 464.137 294.311C462.561 287.925 461.096 281.5 459.555 275.102C459.028 272.916 457.06 265.308 460.985 267.154C462.134 267.695 463.211 270.095 464.096 271.121C465.772 273.068 467.842 274.807 469.922 276.131C473.277 278.266 476.77 280.836 479.988 282.308C482.823 283.604 485.739 286.146 488.382 287.975C488.783 288.253 488.901 289.209 489.418 289.475C490.636 290.103 491.448 288.372 492.598 288.796C494.17 289.375 494.428 291.093 495.301 292.46C496.566 294.442 497.221 294.599 499.152 295.618C501.3 296.753 502.878 298.995 504.973 300.107C507.518 301.455 513.119 300.409 513.502 305.061C517.457 302.064 522.418 307.883 524.886 310.903C527.371 306.477 531.771 311.659 535.532 310.19C533.451 313.544 533.829 313.211 537.112 313.626C539.883 313.977 541.543 316.112 544.281 317.352C546.178 318.21 548.275 319.656 550.247 320.26C552.111 320.832 553.523 319.549 555.146 319.87C556.266 320.091 557.33 321.214 558.395 321.521C559.745 321.911 561.667 322.384 563.193 322.804C565.049 323.316 566.896 322.846 568.747 323.252C570.908 323.727 572.773 325.22 574.966 325.704C577.412 326.244 579.955 325.884 582.386 326.571C584.602 327.198 585.949 327.919 588.245 327.945C591.668 327.984 595.49 328.51 598.87 328.061C600.67 327.822 601.668 326.763 603.705 327.799C605.064 328.489 605.878 330.622 607.73 329.645C605.775 328.736 607.491 325.196 609.647 327.907C610.157 326.387 610.487 325.538 611.904 325.039C611.833 326.527 611.624 328.021 613.26 328.333C613.384 327.297 613.511 326.263 613.636 325.227C617.192 328.367 618.034 329.476 621.391 325.644C621.301 326.898 620.845 328.318 621.944 329.206C622.648 327.849 623.352 326.492 624.056 325.136C625.245 329.514 630.921 328.003 633.671 327.227C634.738 326.927 637.686 326.45 638.382 325.436C638.865 324.732 638.806 324.182 638.984 323.751C639.142 323.368 637.334 322.426 638.873 321.875C640.032 321.46 640.936 324.409 642.297 324.291C643.511 324.187 644.001 321.803 644.875 321.32C644.958 321.274 645.551 322.281 645.962 322.06C646.599 321.718 646.963 320.815 647.668 320.495C649.194 319.803 651.168 319.975 652.877 319.154C655.044 318.112 657.229 317.616 659.442 316.758C662.247 315.67 663.52 313.533 665.797 311.784C666.33 311.375 666.886 311.614 667.41 311.324C668.117 310.933 668.857 310.017 669.698 309.585C672.334 308.229 674.586 307.306 677.088 305.435C679.318 303.766 682.262 302.533 684.248 300.53C685.9 298.863 686.791 296.429 688.454 294.732C690.84 292.297 697.007 289.242 696.007 284.484C699.999 285.19 700.976 282.192 702.441 278.886C703.835 275.741 706.691 274.798 708.559 271.93C709.367 270.69 710.667 268.97 711.112 267.556C711.378 266.714 710.712 265.836 710.892 265.26C711.72 262.618 714.915 261.464 716.394 259.081C718.275 256.048 718.88 252.212 720.449 249.097C720.758 248.484 721.519 248.12 721.813 247.467C722.003 247.047 721.609 246.006 721.838 245.593C722.386 244.615 723.246 244.276 723.796 243.369C725.126 241.173 725.369 238.052 726.565 235.562C726.86 234.949 727.885 233.236 728.014 232.872C728.447 231.646 728.316 230.84 728.539 229.476C728.605 229.066 729.289 226.692 729.429 226.353C729.867 225.294 730.292 225.137 730.963 223.975C732.643 221.065 733.685 216.494 733.823 212.961C733.882 211.463 733.452 209.913 733.92 208.483C734.324 207.248 735.567 206.485 736.036 205.191C737.265 201.797 737.065 196.997 737.403 193.366C737.771 189.407 738.862 185.506 739.164 181.578C739.31 179.676 738.54 177.991 738.597 176.201C738.662 174.149 739.58 173.766 739.933 172.059C740.337 170.11 739.746 167.865 740.107 165.775C740.443 163.831 740.931 162.031 741.07 160.037C741.431 154.843 740.921 149.41 740.727 144.213C740.651 142.197 740.419 140.094 740.879 138.119C741.249 136.531 742.76 134.755 742.711 133.031C742.556 127.708 738.885 132.315 736.775 131.95C734.322 131.526 733.87 125.14 733.223 122.718C731.644 116.8 730.064 110.884 728.483 104.968C736.015 102.693 743.845 103.349 751.534 102.735C759.089 102.132 766.466 100.23 773.792 98.0891C779.977 96.2811 786.744 95.2331 792.302 91.373C796.97 88.1329 800.819 80.9622 798.092 74.6352Z" fill="black"/>
<ellipse cx="417.5" cy="141.5" rx="3.5" ry="2.5" fill="black"/>
<ellipse cx="430.172" cy="144.892" rx="6.26451" ry="1.87935" transform="rotate(-10.7205 430.172 144.892)" fill="#F5556E"/>
<ellipse cx="397.172" cy="154.892" rx="6.26451" ry="1.87935" transform="rotate(-10.7205 397.172 154.892)" fill="#F5556E"/>
<path fill-rule="evenodd" clip-rule="evenodd" d="M414.696 152.617C413.442 153.137 412.276 152.993 411.039 153.259C410.222 153.434 410.117 152.919 410.011 153.957C409.786 156.173 413.004 157.031 414.453 156.999C416.222 156.961 418.161 155.639 417.989 153.488C417.812 151.246 416.061 152.053 414.696 152.617Z" fill="black"/>
<ellipse cx="403.5" cy="145.5" rx="3.5" ry="2.5" fill="black"/>
</svg>
