<svg width="580" height="522" viewBox="0 0 580 522" fill="none" xmlns="http://www.w3.org/2000/svg">
<path fill-rule="evenodd" clip-rule="evenodd" d="M247.928 145.105C265.786 159.775 287.679 170.764 310.754 172.419C351.022 175.307 390.602 147.309 429.489 158.126C473.435 170.35 515.505 197.55 539.729 236.109C565.092 276.483 600.018 341.774 565.647 374.862C517.731 420.99 430.909 372.88 369.928 399.572C343.233 411.257 352.747 456.431 332.191 477.049C309.453 499.856 280.146 523.319 247.928 521.942C215.491 520.556 196.664 483.315 167.072 469.994C136.561 456.259 76.9657 475.627 71.7738 442.645C64.5698 396.88 160.098 369.705 144.421 326.098C125.734 274.121 19.4137 298.521 1.21185 246.372C-11.4254 210.167 78.6059 214.957 93.2566 179.514C116.272 123.835 43.5625 14.4525 102.498 1.34149C169.96 -13.6664 194.575 101.277 247.928 145.105Z" fill="url(#paint0_linear_410_1711)"/>
<path d="M155.896 203.224V215.28H139.528V265H124.48V215.28H108.112V203.224H155.896ZM196.632 215.368C202.264 215.368 206.782 217.245 210.184 221C213.587 224.696 215.288 229.8 215.288 236.312V265H200.328V238.336C200.328 235.051 199.478 232.499 197.776 230.68C196.075 228.861 193.787 227.952 190.912 227.952C188.038 227.952 185.75 228.861 184.048 230.68C182.347 232.499 181.496 235.051 181.496 238.336V265H166.448V199.88H181.496V222.496C183.022 220.325 185.104 218.595 187.744 217.304C190.384 216.013 193.347 215.368 196.632 215.368ZM236.313 210.792C233.673 210.792 231.502 210.029 229.801 208.504C228.158 206.92 227.337 204.984 227.337 202.696C227.337 200.349 228.158 198.413 229.801 196.888C231.502 195.304 233.673 194.512 236.313 194.512C238.894 194.512 241.006 195.304 242.649 196.888C244.35 198.413 245.201 200.349 245.201 202.696C245.201 204.984 244.35 206.92 242.649 208.504C241.006 210.029 238.894 210.792 236.313 210.792ZM243.793 215.896V265H228.745V215.896H243.793ZM277.674 265.704C273.392 265.704 269.578 264.971 266.234 263.504C262.89 262.037 260.25 260.043 258.314 257.52C256.378 254.939 255.293 252.064 255.058 248.896H269.93C270.106 250.597 270.898 251.976 272.306 253.032C273.714 254.088 275.445 254.616 277.498 254.616C279.376 254.616 280.813 254.264 281.81 253.56C282.866 252.797 283.394 251.829 283.394 250.656C283.394 249.248 282.661 248.221 281.194 247.576C279.728 246.872 277.352 246.109 274.066 245.288C270.546 244.467 267.613 243.616 265.266 242.736C262.92 241.797 260.896 240.36 259.194 238.424C257.493 236.429 256.642 233.76 256.642 230.416C256.642 227.6 257.405 225.048 258.93 222.76C260.514 220.413 262.802 218.565 265.794 217.216C268.845 215.867 272.453 215.192 276.618 215.192C282.778 215.192 287.618 216.717 291.138 219.768C294.717 222.819 296.77 226.867 297.298 231.912H283.394C283.16 230.211 282.397 228.861 281.106 227.864C279.874 226.867 278.232 226.368 276.178 226.368C274.418 226.368 273.069 226.72 272.13 227.424C271.192 228.069 270.722 228.979 270.722 230.152C270.722 231.56 271.456 232.616 272.922 233.32C274.448 234.024 276.794 234.728 279.962 235.432C283.6 236.371 286.562 237.309 288.85 238.248C291.138 239.128 293.133 240.595 294.834 242.648C296.594 244.643 297.504 247.341 297.562 250.744C297.562 253.619 296.741 256.2 295.098 258.488C293.514 260.717 291.197 262.477 288.146 263.768C285.154 265.059 281.664 265.704 277.674 265.704Z" fill="#313131"/>
<path d="M350.464 297.224L334.36 359H316.144L306.288 318.344L296.08 359H277.864L262.2 297.224H278.304L287.192 342.192L298.192 297.224H314.736L325.296 342.192L334.272 297.224H350.464ZM407.299 333.656C407.299 335.064 407.211 336.531 407.035 338.056H372.979C373.213 341.107 374.181 343.453 375.883 345.096C377.643 346.68 379.784 347.472 382.307 347.472C386.061 347.472 388.672 345.888 390.139 342.72H406.155C405.333 345.947 403.837 348.851 401.667 351.432C399.555 354.013 396.885 356.037 393.659 357.504C390.432 358.971 386.824 359.704 382.835 359.704C378.024 359.704 373.741 358.677 369.987 356.624C366.232 354.571 363.299 351.637 361.187 347.824C359.075 344.011 358.019 339.552 358.019 334.448C358.019 329.344 359.045 324.885 361.099 321.072C363.211 317.259 366.144 314.325 369.899 312.272C373.653 310.219 377.965 309.192 382.835 309.192C387.587 309.192 391.811 310.189 395.507 312.184C399.203 314.179 402.077 317.024 404.131 320.72C406.243 324.416 407.299 328.728 407.299 333.656ZM391.899 329.696C391.899 327.115 391.019 325.061 389.259 323.536C387.499 322.011 385.299 321.248 382.659 321.248C380.136 321.248 377.995 321.981 376.235 323.448C374.533 324.915 373.477 326.997 373.067 329.696H391.899ZM464.525 333.656C464.525 335.064 464.437 336.531 464.261 338.056H430.205C430.44 341.107 431.408 343.453 433.109 345.096C434.869 346.68 437.011 347.472 439.533 347.472C443.288 347.472 445.899 345.888 447.365 342.72H463.381C462.56 345.947 461.064 348.851 458.893 351.432C456.781 354.013 454.112 356.037 450.885 357.504C447.659 358.971 444.051 359.704 440.061 359.704C435.251 359.704 430.968 358.677 427.213 356.624C423.459 354.571 420.525 351.637 418.413 347.824C416.301 344.011 415.245 339.552 415.245 334.448C415.245 329.344 416.272 324.885 418.325 321.072C420.437 317.259 423.371 314.325 427.125 312.272C430.88 310.219 435.192 309.192 440.061 309.192C444.813 309.192 449.037 310.189 452.733 312.184C456.429 314.179 459.304 317.024 461.357 320.72C463.469 324.416 464.525 328.728 464.525 333.656ZM449.125 329.696C449.125 327.115 448.245 325.061 446.485 323.536C444.725 322.011 442.525 321.248 439.885 321.248C437.363 321.248 435.221 321.981 433.461 323.448C431.76 324.915 430.704 326.997 430.293 329.696H449.125ZM505.472 359L490.512 338.408V359H475.464V293.88H490.512V329.872L505.384 309.896H523.952L503.536 334.536L524.128 359H505.472Z" fill="#313131"/>
<path d="M129.728 401.986C129.347 401.986 129.024 401.854 128.76 401.59C128.496 401.326 128.364 401.003 128.364 400.622C128.364 400.241 128.496 399.918 128.76 399.654C129.024 399.39 129.347 399.258 129.728 399.258C130.095 399.258 130.403 399.39 130.652 399.654C130.916 399.918 131.048 400.241 131.048 400.622C131.048 401.003 130.916 401.326 130.652 401.59C130.403 401.854 130.095 401.986 129.728 401.986ZM130.696 403.944V416H128.694V403.944H130.696ZM142.982 403.724C144.449 403.724 145.637 404.171 146.546 405.066C147.455 405.946 147.91 407.222 147.91 408.894V416H145.93V409.18C145.93 407.977 145.629 407.061 145.028 406.43C144.427 405.785 143.605 405.462 142.564 405.462C141.508 405.462 140.665 405.792 140.034 406.452C139.418 407.112 139.11 408.073 139.11 409.334V416H137.108V403.944H139.11V405.66C139.506 405.044 140.041 404.567 140.716 404.23C141.405 403.893 142.161 403.724 142.982 403.724ZM178.6 400.776V416H176.598V404.648L171.538 416H170.13L165.048 404.626V416H163.046V400.776H165.202L170.834 413.36L176.466 400.776H178.6ZM190.253 416.198C189.123 416.198 188.097 415.941 187.173 415.428C186.263 414.915 185.545 414.189 185.017 413.25C184.503 412.297 184.247 411.197 184.247 409.95C184.247 408.718 184.511 407.633 185.039 406.694C185.581 405.741 186.315 405.015 187.239 404.516C188.163 404.003 189.197 403.746 190.341 403.746C191.485 403.746 192.519 404.003 193.443 404.516C194.367 405.015 195.093 405.733 195.621 406.672C196.163 407.611 196.435 408.703 196.435 409.95C196.435 411.197 196.156 412.297 195.599 413.25C195.056 414.189 194.315 414.915 193.377 415.428C192.438 415.941 191.397 416.198 190.253 416.198ZM190.253 414.438C190.971 414.438 191.646 414.269 192.277 413.932C192.907 413.595 193.413 413.089 193.795 412.414C194.191 411.739 194.389 410.918 194.389 409.95C194.389 408.982 194.198 408.161 193.817 407.486C193.435 406.811 192.937 406.313 192.321 405.99C191.705 405.653 191.037 405.484 190.319 405.484C189.585 405.484 188.911 405.653 188.295 405.99C187.693 406.313 187.209 406.811 186.843 407.486C186.476 408.161 186.293 408.982 186.293 409.95C186.293 410.933 186.469 411.761 186.821 412.436C187.187 413.111 187.671 413.617 188.273 413.954C188.874 414.277 189.534 414.438 190.253 414.438ZM207.941 403.724C209.408 403.724 210.596 404.171 211.505 405.066C212.414 405.946 212.869 407.222 212.869 408.894V416H210.889V409.18C210.889 407.977 210.588 407.061 209.987 406.43C209.386 405.785 208.564 405.462 207.523 405.462C206.467 405.462 205.624 405.792 204.993 406.452C204.377 407.112 204.069 408.073 204.069 409.334V416H202.067V403.944H204.069V405.66C204.465 405.044 205 404.567 205.675 404.23C206.364 403.893 207.12 403.724 207.941 403.724ZM221.581 405.594V412.7C221.581 413.287 221.706 413.705 221.955 413.954C222.205 414.189 222.637 414.306 223.253 414.306H224.727V416H222.923C221.809 416 220.973 415.743 220.415 415.23C219.858 414.717 219.579 413.873 219.579 412.7V405.594H218.017V403.944H219.579V400.908H221.581V403.944H224.727V405.594H221.581ZM232.155 405.902C232.507 405.213 233.006 404.677 233.651 404.296C234.311 403.915 235.11 403.724 236.049 403.724V405.792H235.521C233.277 405.792 232.155 407.009 232.155 409.444V416H230.153V403.944H232.155V405.902ZM252.36 409.51C252.36 409.891 252.338 410.295 252.294 410.72H242.658C242.731 411.908 243.135 412.839 243.868 413.514C244.616 414.174 245.518 414.504 246.574 414.504C247.439 414.504 248.158 414.306 248.73 413.91C249.317 413.499 249.727 412.957 249.962 412.282H252.118C251.795 413.441 251.15 414.387 250.182 415.12C249.214 415.839 248.011 416.198 246.574 416.198C245.43 416.198 244.403 415.941 243.494 415.428C242.599 414.915 241.895 414.189 241.382 413.25C240.869 412.297 240.612 411.197 240.612 409.95C240.612 408.703 240.861 407.611 241.36 406.672C241.859 405.733 242.555 405.015 243.45 404.516C244.359 404.003 245.401 403.746 246.574 403.746C247.718 403.746 248.73 403.995 249.61 404.494C250.49 404.993 251.165 405.682 251.634 406.562C252.118 407.427 252.36 408.41 252.36 409.51ZM250.292 409.092C250.292 408.329 250.123 407.677 249.786 407.134C249.449 406.577 248.987 406.159 248.4 405.88C247.828 405.587 247.19 405.44 246.486 405.44C245.474 405.44 244.609 405.763 243.89 406.408C243.186 407.053 242.783 407.948 242.68 409.092H250.292ZM257.255 409.928C257.255 408.696 257.504 407.618 258.003 406.694C258.501 405.755 259.183 405.029 260.049 404.516C260.929 404.003 261.904 403.746 262.975 403.746C264.031 403.746 264.947 403.973 265.725 404.428C266.502 404.883 267.081 405.455 267.463 406.144V403.944H269.487V416H267.463V413.756C267.067 414.46 266.473 415.047 265.681 415.516C264.903 415.971 263.994 416.198 262.953 416.198C261.882 416.198 260.914 415.934 260.049 415.406C259.183 414.878 258.501 414.137 258.003 413.184C257.504 412.231 257.255 411.145 257.255 409.928ZM267.463 409.95C267.463 409.041 267.279 408.249 266.913 407.574C266.546 406.899 266.047 406.386 265.417 406.034C264.801 405.667 264.119 405.484 263.371 405.484C262.623 405.484 261.941 405.66 261.325 406.012C260.709 406.364 260.217 406.877 259.851 407.552C259.484 408.227 259.301 409.019 259.301 409.928C259.301 410.852 259.484 411.659 259.851 412.348C260.217 413.023 260.709 413.543 261.325 413.91C261.941 414.262 262.623 414.438 263.371 414.438C264.119 414.438 264.801 414.262 265.417 413.91C266.047 413.543 266.546 413.023 266.913 412.348C267.279 411.659 267.463 410.859 267.463 409.95ZM277.872 399.72V416H275.87V399.72H277.872Z" fill="black"/>
<defs>
<linearGradient id="paint0_linear_410_1711" x1="0" y1="261" x2="580" y2="261" gradientUnits="userSpaceOnUse">
<stop stop-color="#4AC29A"/>
<stop offset="1" stop-color="#BDFFF3"/>
</linearGradient>
</defs>
</svg>
