<svg width="580" height="522" viewBox="0 0 580 522" fill="none" xmlns="http://www.w3.org/2000/svg">
<path fill-rule="evenodd" clip-rule="evenodd" d="M247.928 145.105C265.786 159.775 287.679 170.764 310.754 172.419C351.022 175.307 390.602 147.309 429.489 158.126C473.435 170.35 515.505 197.55 539.729 236.109C565.092 276.483 600.018 341.774 565.647 374.862C517.731 420.99 430.909 372.88 369.928 399.572C343.233 411.257 352.747 456.431 332.191 477.049C309.453 499.856 280.146 523.319 247.928 521.942C215.491 520.556 196.664 483.315 167.072 469.994C136.561 456.259 76.9657 475.627 71.7738 442.645C64.5698 396.88 160.098 369.705 144.421 326.098C125.734 274.121 19.4137 298.521 1.21185 246.372C-11.4254 210.167 78.6059 214.957 93.2566 179.514C116.272 123.835 43.5625 14.4525 102.498 1.34149C169.96 -13.6664 194.575 101.277 247.928 145.105Z" fill="url(#paint0_linear_410_5416)"/>
<path d="M164.32 269.92C164.32 267.147 164.92 264.68 166.12 262.52C167.32 260.333 168.987 258.64 171.12 257.44C173.28 256.213 175.72 255.6 178.44 255.6C181.773 255.6 184.627 256.48 187 258.24C189.373 260 190.96 262.4 191.76 265.44H184.24C183.68 264.267 182.88 263.373 181.84 262.76C180.827 262.147 179.667 261.84 178.36 261.84C176.253 261.84 174.547 262.573 173.24 264.04C171.933 265.507 171.28 267.467 171.28 269.92C171.28 272.373 171.933 274.333 173.24 275.8C174.547 277.267 176.253 278 178.36 278C179.667 278 180.827 277.693 181.84 277.08C182.88 276.467 183.68 275.573 184.24 274.4H191.76C190.96 277.44 189.373 279.84 187 281.6C184.627 283.333 181.773 284.2 178.44 284.2C175.72 284.2 173.28 283.6 171.12 282.4C168.987 281.173 167.32 279.48 166.12 277.32C164.92 275.16 164.32 272.693 164.32 269.92ZM197.589 272.8C197.589 270.507 198.015 268.493 198.869 266.76C199.749 265.027 200.935 263.693 202.429 262.76C203.922 261.827 205.589 261.36 207.429 261.36C209.002 261.36 210.375 261.68 211.549 262.32C212.749 262.96 213.669 263.8 214.309 264.84V261.68H221.149V284H214.309V280.84C213.642 281.88 212.709 282.72 211.509 283.36C210.335 284 208.962 284.32 207.389 284.32C205.575 284.32 203.922 283.853 202.429 282.92C200.935 281.96 199.749 280.613 198.869 278.88C198.015 277.12 197.589 275.093 197.589 272.8ZM214.309 272.84C214.309 271.133 213.829 269.787 212.869 268.8C211.935 267.813 210.789 267.32 209.429 267.32C208.069 267.32 206.909 267.813 205.949 268.8C205.015 269.76 204.549 271.093 204.549 272.8C204.549 274.507 205.015 275.867 205.949 276.88C206.909 277.867 208.069 278.36 209.429 278.36C210.789 278.36 211.935 277.867 212.869 276.88C213.829 275.893 214.309 274.547 214.309 272.84ZM241.537 278.2V284H238.057C235.577 284 233.644 283.4 232.257 282.2C230.871 280.973 230.177 278.987 230.177 276.24V267.36H227.457V261.68H230.177V256.24H237.017V261.68H241.497V267.36H237.017V276.32C237.017 276.987 237.177 277.467 237.497 277.76C237.817 278.053 238.351 278.2 239.097 278.2H241.537ZM249.907 255.92H256.907L252.427 266.64H247.827L249.907 255.92ZM273.005 284.32C271.059 284.32 269.325 283.987 267.805 283.32C266.285 282.653 265.085 281.747 264.205 280.6C263.325 279.427 262.832 278.12 262.725 276.68H269.485C269.565 277.453 269.925 278.08 270.565 278.56C271.205 279.04 271.992 279.28 272.925 279.28C273.779 279.28 274.432 279.12 274.885 278.8C275.365 278.453 275.605 278.013 275.605 277.48C275.605 276.84 275.272 276.373 274.605 276.08C273.939 275.76 272.859 275.413 271.365 275.04C269.765 274.667 268.432 274.28 267.365 273.88C266.299 273.453 265.379 272.8 264.605 271.92C263.832 271.013 263.445 269.8 263.445 268.28C263.445 267 263.792 265.84 264.485 264.8C265.205 263.733 266.245 262.893 267.605 262.28C268.992 261.667 270.632 261.36 272.525 261.36C275.325 261.36 277.525 262.053 279.125 263.44C280.752 264.827 281.685 266.667 281.925 268.96H275.605C275.499 268.187 275.152 267.573 274.565 267.12C274.005 266.667 273.259 266.44 272.325 266.44C271.525 266.44 270.912 266.6 270.485 266.92C270.059 267.213 269.845 267.627 269.845 268.16C269.845 268.8 270.179 269.28 270.845 269.6C271.539 269.92 272.605 270.24 274.045 270.56C275.699 270.987 277.045 271.413 278.085 271.84C279.125 272.24 280.032 272.907 280.805 273.84C281.605 274.747 282.019 275.973 282.045 277.52C282.045 278.827 281.672 280 280.925 281.04C280.205 282.053 279.152 282.853 277.765 283.44C276.405 284.027 274.819 284.32 273.005 284.32ZM299.547 269.92C299.547 267.147 300.147 264.68 301.347 262.52C302.547 260.333 304.213 258.64 306.347 257.44C308.507 256.213 310.947 255.6 313.667 255.6C317 255.6 319.853 256.48 322.227 258.24C324.6 260 326.187 262.4 326.987 265.44H319.467C318.907 264.267 318.107 263.373 317.067 262.76C316.053 262.147 314.893 261.84 313.587 261.84C311.48 261.84 309.773 262.573 308.467 264.04C307.16 265.507 306.507 267.467 306.507 269.92C306.507 272.373 307.16 274.333 308.467 275.8C309.773 277.267 311.48 278 313.587 278C314.893 278 316.053 277.693 317.067 277.08C318.107 276.467 318.907 275.573 319.467 274.4H326.987C326.187 277.44 324.6 279.84 322.227 281.6C319.853 283.333 317 284.2 313.667 284.2C310.947 284.2 308.507 283.6 306.347 282.4C304.213 281.173 302.547 279.48 301.347 277.32C300.147 275.16 299.547 272.693 299.547 269.92ZM344.335 284.32C342.149 284.32 340.175 283.853 338.415 282.92C336.682 281.987 335.309 280.653 334.295 278.92C333.309 277.187 332.815 275.16 332.815 272.84C332.815 270.547 333.322 268.533 334.335 266.8C335.349 265.04 336.735 263.693 338.495 262.76C340.255 261.827 342.229 261.36 344.415 261.36C346.602 261.36 348.575 261.827 350.335 262.76C352.095 263.693 353.482 265.04 354.495 266.8C355.509 268.533 356.015 270.547 356.015 272.84C356.015 275.133 355.495 277.16 354.455 278.92C353.442 280.653 352.042 281.987 350.255 282.92C348.495 283.853 346.522 284.32 344.335 284.32ZM344.335 278.4C345.642 278.4 346.749 277.92 347.655 276.96C348.589 276 349.055 274.627 349.055 272.84C349.055 271.053 348.602 269.68 347.695 268.72C346.815 267.76 345.722 267.28 344.415 267.28C343.082 267.28 341.975 267.76 341.095 268.72C340.215 269.653 339.775 271.027 339.775 272.84C339.775 274.627 340.202 276 341.055 276.96C341.935 277.92 343.029 278.4 344.335 278.4ZM369.484 265.4C370.284 264.173 371.284 263.213 372.484 262.52C373.684 261.8 375.017 261.44 376.484 261.44V268.68H374.604C372.897 268.68 371.617 269.053 370.764 269.8C369.911 270.52 369.484 271.8 369.484 273.64V284H362.644V261.68H369.484V265.4ZM396.353 261.44C398.967 261.44 401.047 262.293 402.593 264C404.167 265.68 404.953 268 404.953 270.96V284H398.153V271.88C398.153 270.387 397.767 269.227 396.993 268.4C396.22 267.573 395.18 267.16 393.873 267.16C392.567 267.16 391.527 267.573 390.753 268.4C389.98 269.227 389.593 270.387 389.593 271.88V284H382.753V261.68H389.593V264.64C390.287 263.653 391.22 262.88 392.393 262.32C393.567 261.733 394.887 261.44 396.353 261.44ZM433.747 272.48C433.747 273.12 433.707 273.787 433.627 274.48H418.147C418.253 275.867 418.693 276.933 419.467 277.68C420.267 278.4 421.24 278.76 422.387 278.76C424.093 278.76 425.28 278.04 425.947 276.6H433.227C432.853 278.067 432.173 279.387 431.187 280.56C430.227 281.733 429.013 282.653 427.547 283.32C426.08 283.987 424.44 284.32 422.627 284.32C420.44 284.32 418.493 283.853 416.787 282.92C415.08 281.987 413.747 280.653 412.787 278.92C411.827 277.187 411.347 275.16 411.347 272.84C411.347 270.52 411.813 268.493 412.747 266.76C413.707 265.027 415.04 263.693 416.747 262.76C418.453 261.827 420.413 261.36 422.627 261.36C424.787 261.36 426.707 261.813 428.387 262.72C430.067 263.627 431.373 264.92 432.307 266.6C433.267 268.28 433.747 270.24 433.747 272.48ZM426.747 270.68C426.747 269.507 426.347 268.573 425.547 267.88C424.747 267.187 423.747 266.84 422.547 266.84C421.4 266.84 420.427 267.173 419.627 267.84C418.853 268.507 418.373 269.453 418.187 270.68H426.747ZM447.195 265.4C447.995 264.173 448.995 263.213 450.195 262.52C451.395 261.8 452.728 261.44 454.195 261.44V268.68H452.315C450.608 268.68 449.328 269.053 448.475 269.8C447.622 270.52 447.195 271.8 447.195 273.64V284H440.355V261.68H447.195V265.4ZM204.12 305.92L196.8 334H188.52L184.04 315.52L179.4 334H171.12L164 305.92H171.32L175.36 326.36L180.36 305.92H187.88L192.68 326.36L196.76 305.92H204.12ZM231.59 322.48C231.59 323.12 231.55 323.787 231.47 324.48H215.99C216.097 325.867 216.537 326.933 217.31 327.68C218.11 328.4 219.084 328.76 220.23 328.76C221.937 328.76 223.124 328.04 223.79 326.6H231.07C230.697 328.067 230.017 329.387 229.03 330.56C228.07 331.733 226.857 332.653 225.39 333.32C223.924 333.987 222.284 334.32 220.47 334.32C218.284 334.32 216.337 333.853 214.63 332.92C212.924 331.987 211.59 330.653 210.63 328.92C209.67 327.187 209.19 325.16 209.19 322.84C209.19 320.52 209.657 318.493 210.59 316.76C211.55 315.027 212.884 313.693 214.59 312.76C216.297 311.827 218.257 311.36 220.47 311.36C222.63 311.36 224.55 311.813 226.23 312.72C227.91 313.627 229.217 314.92 230.15 316.6C231.11 318.28 231.59 320.24 231.59 322.48ZM224.59 320.68C224.59 319.507 224.19 318.573 223.39 317.88C222.59 317.187 221.59 316.84 220.39 316.84C219.244 316.84 218.27 317.173 217.47 317.84C216.697 318.507 216.217 319.453 216.03 320.68H224.59ZM259.239 322.48C259.239 323.12 259.199 323.787 259.119 324.48H243.639C243.745 325.867 244.185 326.933 244.959 327.68C245.759 328.4 246.732 328.76 247.879 328.76C249.585 328.76 250.772 328.04 251.439 326.6H258.719C258.345 328.067 257.665 329.387 256.679 330.56C255.719 331.733 254.505 332.653 253.039 333.32C251.572 333.987 249.932 334.32 248.119 334.32C245.932 334.32 243.985 333.853 242.279 332.92C240.572 331.987 239.239 330.653 238.279 328.92C237.319 327.187 236.839 325.16 236.839 322.84C236.839 320.52 237.305 318.493 238.239 316.76C239.199 315.027 240.532 313.693 242.239 312.76C243.945 311.827 245.905 311.36 248.119 311.36C250.279 311.36 252.199 311.813 253.879 312.72C255.559 313.627 256.865 314.92 257.799 316.6C258.759 318.28 259.239 320.24 259.239 322.48ZM252.239 320.68C252.239 319.507 251.839 318.573 251.039 317.88C250.239 317.187 249.239 316.84 248.039 316.84C246.892 316.84 245.919 317.173 245.119 317.84C244.345 318.507 243.865 319.453 243.679 320.68H252.239ZM279.487 334L272.687 324.64V334H265.847V304.4H272.687V320.76L279.447 311.68H287.887L278.607 322.88L287.967 334H279.487ZM300.414 304.4V334H293.574V304.4H300.414ZM331.171 311.68L317.171 344.6H309.811L314.931 333.24L305.851 311.68H313.491L318.651 325.64L323.771 311.68H331.171ZM358.281 334.28C356.227 334.28 354.387 333.947 352.761 333.28C351.134 332.613 349.827 331.627 348.841 330.32C347.881 329.013 347.374 327.44 347.321 325.6H354.601C354.707 326.64 355.067 327.44 355.681 328C356.294 328.533 357.094 328.8 358.081 328.8C359.094 328.8 359.894 328.573 360.481 328.12C361.067 327.64 361.361 326.987 361.361 326.16C361.361 325.467 361.121 324.893 360.641 324.44C360.187 323.987 359.614 323.613 358.921 323.32C358.254 323.027 357.294 322.693 356.041 322.32C354.227 321.76 352.747 321.2 351.601 320.64C350.454 320.08 349.467 319.253 348.641 318.16C347.814 317.067 347.401 315.64 347.401 313.88C347.401 311.267 348.347 309.227 350.241 307.76C352.134 306.267 354.601 305.52 357.641 305.52C360.734 305.52 363.227 306.267 365.121 307.76C367.014 309.227 368.027 311.28 368.161 313.92H360.761C360.707 313.013 360.374 312.307 359.761 311.8C359.147 311.267 358.361 311 357.401 311C356.574 311 355.907 311.227 355.401 311.68C354.894 312.107 354.641 312.733 354.641 313.56C354.641 314.467 355.067 315.173 355.921 315.68C356.774 316.187 358.107 316.733 359.921 317.32C361.734 317.933 363.201 318.52 364.321 319.08C365.467 319.64 366.454 320.453 367.281 321.52C368.107 322.587 368.521 323.96 368.521 325.64C368.521 327.24 368.107 328.693 367.281 330C366.481 331.307 365.307 332.347 363.761 333.12C362.214 333.893 360.387 334.28 358.281 334.28ZM385.89 334.32C383.703 334.32 381.73 333.853 379.97 332.92C378.237 331.987 376.863 330.653 375.85 328.92C374.863 327.187 374.37 325.16 374.37 322.84C374.37 320.547 374.877 318.533 375.89 316.8C376.903 315.04 378.29 313.693 380.05 312.76C381.81 311.827 383.783 311.36 385.97 311.36C388.157 311.36 390.13 311.827 391.89 312.76C393.65 313.693 395.037 315.04 396.05 316.8C397.063 318.533 397.57 320.547 397.57 322.84C397.57 325.133 397.05 327.16 396.01 328.92C394.997 330.653 393.597 331.987 391.81 332.92C390.05 333.853 388.077 334.32 385.89 334.32ZM385.89 328.4C387.197 328.4 388.303 327.92 389.21 326.96C390.143 326 390.61 324.627 390.61 322.84C390.61 321.053 390.157 319.68 389.25 318.72C388.37 317.76 387.277 317.28 385.97 317.28C384.637 317.28 383.53 317.76 382.65 318.72C381.77 319.653 381.33 321.027 381.33 322.84C381.33 324.627 381.757 326 382.61 326.96C383.49 327.92 384.583 328.4 385.89 328.4ZM402.839 322.84C402.839 320.52 403.305 318.493 404.239 316.76C405.199 315.027 406.519 313.693 408.199 312.76C409.905 311.827 411.852 311.36 414.039 311.36C416.839 311.36 419.172 312.093 421.039 313.56C422.932 315.027 424.172 317.093 424.759 319.76H417.479C416.865 318.053 415.679 317.2 413.919 317.2C412.665 317.2 411.665 317.693 410.919 318.68C410.172 319.64 409.799 321.027 409.799 322.84C409.799 324.653 410.172 326.053 410.919 327.04C411.665 328 412.665 328.48 413.919 328.48C415.679 328.48 416.865 327.627 417.479 325.92H424.759C424.172 328.533 422.932 330.587 421.039 332.08C419.145 333.573 416.812 334.32 414.039 334.32C411.852 334.32 409.905 333.853 408.199 332.92C406.519 331.987 405.199 330.653 404.239 328.92C403.305 327.187 402.839 325.16 402.839 322.84ZM434.858 309.36C433.658 309.36 432.671 309.013 431.898 308.32C431.151 307.6 430.778 306.72 430.778 305.68C430.778 304.613 431.151 303.733 431.898 303.04C432.671 302.32 433.658 301.96 434.858 301.96C436.031 301.96 436.991 302.32 437.738 303.04C438.511 303.733 438.898 304.613 438.898 305.68C438.898 306.72 438.511 307.6 437.738 308.32C436.991 309.013 436.031 309.36 434.858 309.36ZM438.258 311.68V334H431.418V311.68H438.258ZM444.854 322.8C444.854 320.507 445.281 318.493 446.134 316.76C447.014 315.027 448.201 313.693 449.694 312.76C451.188 311.827 452.854 311.36 454.694 311.36C456.268 311.36 457.641 311.68 458.814 312.32C460.014 312.96 460.934 313.8 461.574 314.84V311.68H468.414V334H461.574V330.84C460.908 331.88 459.974 332.72 458.774 333.36C457.601 334 456.228 334.32 454.654 334.32C452.841 334.32 451.188 333.853 449.694 332.92C448.201 331.96 447.014 330.613 446.134 328.88C445.281 327.12 444.854 325.093 444.854 322.8ZM461.574 322.84C461.574 321.133 461.094 319.787 460.134 318.8C459.201 317.813 458.054 317.32 456.694 317.32C455.334 317.32 454.174 317.813 453.214 318.8C452.281 319.76 451.814 321.093 451.814 322.8C451.814 324.507 452.281 325.867 453.214 326.88C454.174 327.867 455.334 328.36 456.694 328.36C458.054 328.36 459.201 327.867 460.134 326.88C461.094 325.893 461.574 324.547 461.574 322.84ZM483.203 304.4V334H476.363V304.4H483.203Z" fill="#313131"/>
<defs>
<linearGradient id="paint0_linear_410_5416" x1="0" y1="261" x2="580" y2="261" gradientUnits="userSpaceOnUse">
<stop stop-color="#4AC29A"/>
<stop offset="1" stop-color="#BDFFF3"/>
</linearGradient>
</defs>
</svg>
