<svg width="52" height="65" viewBox="0 0 52 65" fill="none" xmlns="http://www.w3.org/2000/svg">
<path d="M26.0861 29.4273C28.7696 29.4273 30.9451 27.2555 30.9451 24.5765C30.9451 21.8975 28.7696 19.7257 26.0861 19.7257C23.4025 19.7257 21.2271 21.8975 21.2271 24.5765C21.2271 27.2555 23.4025 29.4273 26.0861 29.4273Z" fill="#231F20"/>
<path d="M25.9148 3.2386e-08C19.0864 -0.000340816 12.5339 2.6898 7.68128 7.48572C2.8287 12.2816 0.0682836 18.7957 0 25.6122C0 43.3338 22.8374 63.0603 23.8092 63.9012C24.396 64.4022 25.1427 64.6775 25.9148 64.6775C26.6869 64.6775 27.4336 64.4022 28.0204 63.9012C29.1541 63.0603 51.8296 43.3338 51.8296 25.6122C51.7613 18.7957 49.0009 12.2816 44.1483 7.48572C39.2957 2.6898 32.7432 -0.000340816 25.9148 3.2386e-08ZM25.9148 35.5725C23.6724 35.5725 21.4804 34.9087 19.6159 33.665C17.7514 32.4213 16.2982 30.6536 15.4401 28.5854C14.582 26.5172 14.3575 24.2414 14.7949 22.0458C15.2324 19.8503 16.3122 17.8335 17.8978 16.2506C19.4834 14.6677 21.5036 13.5897 23.7029 13.1529C25.9022 12.7162 28.1819 12.9404 30.2536 13.797C32.3253 14.6537 34.096 16.1044 35.3418 17.9657C36.5876 19.8271 37.2525 22.0154 37.2525 24.254C37.2525 27.2558 36.058 30.1348 33.9318 32.2574C31.8055 34.38 28.9217 35.5725 25.9148 35.5725Z" fill="#231F20"/>
</svg>
